<svg xmlns="http://www.w3.org/2000/svg" width="21.855" height="25.237" viewBox="0 0 21.855 25.237">
  <g id="ico_pv_pronuncia" transform="translate(-26.999 -1267.23)">
    <path id="Caminho_2325" data-name="Caminho 2325" d="M10.929,25.781,0,32.091V44.708l10.929,6.31,10.926-6.31V32.091Z" transform="translate(26.999 1241.449)" fill="#c5cce9"/>
    <path id="Caminho_2326" data-name="Caminho 2326" d="M15.811,44.121a3.7,3.7,0,0,0,0-7.385" transform="translate(26.999 1241.449)" fill="#161615"/>
    <path id="Caminho_2327" data-name="Caminho 2327" d="M15.9,44.69h.126a.666.666,0,0,0,.666-.667V36.947a.666.666,0,0,0-.666-.666H15.9a.667.667,0,0,0-.667.666v7.076a.667.667,0,0,0,.667.667" transform="translate(26.999 1241.449)" fill="#161615"/>
    <path id="Caminho_2328" data-name="Caminho 2328" d="M6.044,44.121a3.7,3.7,0,0,1,0-7.385" transform="translate(26.999 1241.449)" fill="#161615"/>
    <path id="Caminho_2329" data-name="Caminho 2329" d="M5.951,44.69H5.825a.666.666,0,0,1-.666-.667V36.947a.666.666,0,0,1,.666-.666h.126a.667.667,0,0,1,.667.666v7.076a.667.667,0,0,1-.667.667" transform="translate(26.999 1241.449)" fill="#161615"/>
    <path id="Caminho_2330" data-name="Caminho 2330" d="M17.159,37.863H15.518c0-3.108-1.528-5.637-4.637-5.637s-4.637,2.529-4.637,5.637H4.6c0-4.013,2.265-7.279,6.278-7.279s6.278,3.266,6.278,7.279" transform="translate(26.999 1241.449)" fill="#161615"/>
  </g>
</svg>
