<svg xmlns="http://www.w3.org/2000/svg" width="21.855" height="25.237" viewBox="0 0 21.855 25.237">
  <g id="ico_pv_parasabermais" transform="translate(-26.999 -1193.781)">
    <path id="Caminho_2306" data-name="Caminho 2306" d="M10.929,25.781,0,32.091V44.708l10.929,6.31,10.926-6.31V32.091Z" transform="translate(26.999 1168)" fill="#f6c6cc"/>
    <path id="Caminho_2307" data-name="Caminho 2307" d="M16.2,38.11l-4.845,2.018a1.078,1.078,0,0,1-.818.005L5.7,38.179A.218.218,0,0,0,5.4,38.4v2.777a2.427,2.427,0,0,0,1.465,2.232c3.259,1.427,4.726,1.456,8.222.06a2.354,2.354,0,0,0,1.4-2.21V38.324a.214.214,0,0,0-.288-.214" transform="translate(26.999 1168)" fill="#161615"/>
    <path id="Caminho_2308" data-name="Caminho 2308" d="M10.5,39.4,2.725,36.5a.5.5,0,0,1,.025-.943l8.028-2.512a.5.5,0,0,1,.292,0l8.049,2.412a.5.5,0,0,1,.036.943l-7.776,3a1.238,1.238,0,0,1-.883.005" transform="translate(26.999 1168)" fill="#161615"/>
    <line id="Linha_1" data-name="Linha 1" y2="2.997" transform="translate(30.865 1203.985)" fill="#161615"/>
    <line id="Linha_2" data-name="Linha 2" y2="2.997" transform="translate(30.865 1203.985)" fill="none" stroke="#161615" stroke-miterlimit="10" stroke-width="0.5"/>
    <path id="Caminho_2309" data-name="Caminho 2309" d="M4.382,39.351a.492.492,0,1,1-.491-.491.491.491,0,0,1,.491.491" transform="translate(26.999 1168)" fill="#161615"/>
    <path id="Caminho_2310" data-name="Caminho 2310" d="M3.117,41.295c0-.932.336-1.688.75-1.688s.75.756.75,1.688" transform="translate(26.999 1168)" fill="#161615"/>
  </g>
</svg>
