<svg xmlns="http://www.w3.org/2000/svg" xmlns:xlink="http://www.w3.org/1999/xlink" width="14.497" height="11.365" viewBox="0 0 14.497 11.365">
  <defs>
    <clipPath id="clip-path">
      <rect id="Retângulo_460" data-name="Retângulo 460" width="14.497" height="11.365" transform="translate(0 0)" fill="none"/>
    </clipPath>
  </defs>
  <g id="ico_audio" transform="translate(0 0)">
    <g id="Grupo_1650" data-name="Grupo 1650" clip-path="url(#clip-path)">
      <path id="Caminho_3193" data-name="Caminho 3193" d="M11.386,10.94a.925.925,0,0,1-.924-.925V5.253a.857.857,0,0,1,.063-.321A3.46,3.46,0,0,0,7.217,2.4,3.421,3.421,0,0,0,3.939,4.846a.912.912,0,0,1,.1.407v4.762a.923.923,0,0,1-1.78.344A3.01,3.01,0,0,1,1.895,5a5.382,5.382,0,0,1,10.638-.033,3,3,0,0,1-.291,5.387.915.915,0,0,1-.856.582" fill="#f6e200"/>
      <path id="Caminho_3194" data-name="Caminho 3194" d="M7.217.85a4.976,4.976,0,0,1,4.927,4.406,2.517,2.517,0,0,1,1.5,2.339,2.5,2.5,0,0,1-1.764,2.436.5.5,0,0,1-1-.016V5.253a.482.482,0,0,1,.09-.269,3.85,3.85,0,0,0-7.5-.065.492.492,0,0,1,.134.334v4.762a.5.5,0,0,1-1,.016A2.5,2.5,0,0,1,.85,7.595,2.526,2.526,0,0,1,2.287,5.281,4.976,4.976,0,0,1,7.217.85m0-.85A5.817,5.817,0,0,0,1.509,4.742a3.442,3.442,0,0,0,.433,5.946,1.349,1.349,0,0,0,2.519-.673V5.253a1.324,1.324,0,0,0-.07-.425,3,3,0,0,1,2.826-2,3.032,3.032,0,0,1,2.862,2.1,1.3,1.3,0,0,0-.043.329v4.762a1.349,1.349,0,0,0,2.519.673A3.438,3.438,0,0,0,12.917,4.7,5.824,5.824,0,0,0,7.217,0" fill="#0e1519"/>
    </g>
  </g>
</svg>
