<svg xmlns="http://www.w3.org/2000/svg" xmlns:xlink="http://www.w3.org/1999/xlink" width="10.653" height="11.087" viewBox="0 0 10.653 11.087">
  <defs>
    <clipPath id="clip-path">
      <rect id="Retângulo_459" data-name="Retângulo 459" width="10.653" height="11.087" transform="translate(0 0)" fill="none"/>
    </clipPath>
  </defs>
  <g id="ico_oral" transform="translate(0 0)">
    <g id="Grupo_1649" data-name="Grupo 1649" clip-path="url(#clip-path)">
      <path id="Caminho_3188" data-name="Caminho 3188" d="M4.884,10.661a.686.686,0,0,1-.612-.377L3.1,7.989H2.268A1.845,1.845,0,0,1,.426,6.146V2.267A1.844,1.844,0,0,1,2.268.425H8.385a1.844,1.844,0,0,1,1.842,1.842V6.146A1.845,1.845,0,0,1,8.385,7.989H5.578v1.98a.685.685,0,0,1-.694.692" fill="#f6e200"/>
      <path id="Caminho_3189" data-name="Caminho 3189" d="M8.385.85A1.421,1.421,0,0,1,9.8,2.268V6.147A1.421,1.421,0,0,1,8.385,7.564H5.153V9.97a.263.263,0,0,1-.269.266.256.256,0,0,1-.233-.145l-1.3-2.527H2.268A1.422,1.422,0,0,1,.85,6.147V2.268A1.422,1.422,0,0,1,2.268.85Zm0-.85H2.268A2.27,2.27,0,0,0,0,2.268V6.147A2.271,2.271,0,0,0,2.268,8.415h.567l1.059,2.064a1.109,1.109,0,0,0,.99.608A1.12,1.12,0,0,0,6,9.97V8.415H8.385a2.271,2.271,0,0,0,2.268-2.268V2.268A2.271,2.271,0,0,0,8.385,0" fill="#0e1519"/>
      <path id="Caminho_3190" data-name="Caminho 3190" d="M3.68,4.207a.626.626,0,1,1-.626-.626.626.626,0,0,1,.626.626" fill="#1a1818"/>
      <path id="Caminho_3191" data-name="Caminho 3191" d="M5.952,4.207a.626.626,0,1,1-.626-.626.626.626,0,0,1,.626.626" fill="#1a1818"/>
      <path id="Caminho_3192" data-name="Caminho 3192" d="M8.224,4.207A.626.626,0,1,1,7.6,3.581a.626.626,0,0,1,.626.626" fill="#1a1818"/>
    </g>
  </g>
</svg>
