<svg xmlns="http://www.w3.org/2000/svg" xmlns:xlink="http://www.w3.org/1999/xlink" width="38.268" height="38.269" viewBox="0 0 38.268 38.269">
  <defs>
    <clipPath id="clip-path">
      <path id="Caminho_3655" data-name="Caminho 3655" d="M0,0H38.268V-38.269H0Z" fill="none"/>
    </clipPath>
  </defs>
  <g id="ods_07" transform="translate(0 38.269)">
    <path id="Caminho_3640" data-name="Caminho 3640" d="M0,0H38.268V-38.269H0Z" fill="#935500"/>
    <g id="Grupo_2134" data-name="Grupo 2134" clip-path="url(#clip-path)">
      <g id="Grupo_2120" data-name="Grupo 2120" transform="translate(19.132 -18.543)">
        <path id="Caminho_3641" data-name="Caminho 3641" d="M0,0A6.232,6.232,0,0,0-6.231,6.232,6.231,6.231,0,0,0,0,12.464,6.231,6.231,0,0,0,6.231,6.232,6.232,6.232,0,0,0,0,0M-.461,2.462A.474.474,0,0,1,0,2.026a.472.472,0,0,1,.461.436V4.6A.47.47,0,0,1,0,5.034.472.472,0,0,1-.461,4.6ZM0,9.425A3.241,3.241,0,0,1-3.24,6.184a3.242,3.242,0,0,1,2.278-3.1V4.3A2.12,2.12,0,0,0-2.121,6.184,2.122,2.122,0,0,0,0,8.306,2.122,2.122,0,0,0,2.123,6.184,2.12,2.12,0,0,0,.959,4.292v-1.2a3.243,3.243,0,0,1,2.284,3.1A3.241,3.241,0,0,1,0,9.425" fill="#fff"/>
      </g>
      <g id="Grupo_2121" data-name="Grupo 2121" transform="translate(11.979 -12.366)">
        <path id="Caminho_3642" data-name="Caminho 3642" d="M0,0A.52.52,0,0,0-.479-.511H-3.208A.523.523,0,0,0-3.691,0a.526.526,0,0,0,.483.514H-.479A.523.523,0,0,0,0,0" fill="#fff"/>
      </g>
      <g id="Grupo_2122" data-name="Grupo 2122" transform="translate(29.979 -12.366)">
        <path id="Caminho_3643" data-name="Caminho 3643" d="M0,0A.52.52,0,0,0-.479-.511H-3.208A.522.522,0,0,0-3.69,0a.525.525,0,0,0,.482.514H-.479A.523.523,0,0,0,0,0" fill="#fff"/>
      </g>
      <g id="Grupo_2123" data-name="Grupo 2123" transform="translate(19.135 -19.52)">
        <path id="Caminho_3644" data-name="Caminho 3644" d="M0,0A.521.521,0,0,0,.511-.478v-2.73A.523.523,0,0,0,0-3.69a.525.525,0,0,0-.514.482v2.73A.523.523,0,0,0,0,0" fill="#fff"/>
      </g>
      <g id="Grupo_2124" data-name="Grupo 2124" transform="translate(19.135 -1.519)">
        <path id="Caminho_3645" data-name="Caminho 3645" d="M0,0A.521.521,0,0,0,.511-.479V-3.208A.523.523,0,0,0,0-3.69a.526.526,0,0,0-.514.482V-.479A.523.523,0,0,0,0,0" fill="#fff"/>
      </g>
      <g id="Grupo_2125" data-name="Grupo 2125" transform="translate(12.925 -15.919)">
        <path id="Caminho_3646" data-name="Caminho 3646" d="M0,0A.521.521,0,0,0-.161-.682L-2.53-2.037a.522.522,0,0,0-.673.2.523.523,0,0,0,.164.685L-.67.208A.522.522,0,0,0,0,0" fill="#fff"/>
      </g>
      <g id="Grupo_2126" data-name="Grupo 2126" transform="translate(28.547 -6.978)">
        <path id="Caminho_3647" data-name="Caminho 3647" d="M0,0A.521.521,0,0,0-.162-.682L-2.53-2.037a.523.523,0,0,0-.673.2.522.522,0,0,0,.164.684L-.671.208A.523.523,0,0,0,0,0" fill="#fff"/>
      </g>
      <g id="Grupo_2127" data-name="Grupo 2127" transform="translate(22.689 -18.574)">
        <path id="Caminho_3648" data-name="Caminho 3648" d="M0,0A.52.52,0,0,0,.681-.162L2.037-2.53a.524.524,0,0,0-.2-.673.525.525,0,0,0-.686.164L-.208-.671A.523.523,0,0,0,0,0" fill="#fff"/>
      </g>
      <g id="Grupo_2128" data-name="Grupo 2128" transform="translate(13.748 -2.951)">
        <path id="Caminho_3649" data-name="Caminho 3649" d="M0,0A.52.52,0,0,0,.681-.162L2.037-2.53a.524.524,0,0,0-.2-.673.525.525,0,0,0-.686.164L-.208-.671A.524.524,0,0,0,0,0" fill="#fff"/>
      </g>
      <g id="Grupo_2129" data-name="Grupo 2129" transform="translate(15.568 -18.568)">
        <path id="Caminho_3650" data-name="Caminho 3650" d="M0,0A.521.521,0,0,0,.2-.67L-1.156-3.036A.523.523,0,0,0-1.84-3.2a.523.523,0,0,0-.2.674L-.684-.159A.523.523,0,0,0,0,0" fill="#fff"/>
      </g>
      <g id="Grupo_2130" data-name="Grupo 2130" transform="translate(24.541 -2.963)">
        <path id="Caminho_3651" data-name="Caminho 3651" d="M0,0A.521.521,0,0,0,.2-.67L-1.156-3.036A.523.523,0,0,0-1.84-3.2a.524.524,0,0,0-.2.674L-.684-.159A.523.523,0,0,0,0,0" fill="#fff"/>
      </g>
      <g id="Grupo_2131" data-name="Grupo 2131" transform="translate(25.337 -15.931)">
        <path id="Caminho_3652" data-name="Caminho 3652" d="M0,0A.522.522,0,0,0,.67.2L3.035-1.156A.523.523,0,0,0,3.2-1.84a.524.524,0,0,0-.674-.2L.159-.684A.523.523,0,0,0,0,0" fill="#fff"/>
      </g>
      <g id="Grupo_2132" data-name="Grupo 2132" transform="translate(9.733 -6.957)">
        <path id="Caminho_3653" data-name="Caminho 3653" d="M0,0A.521.521,0,0,0,.67.2l2.365-1.36A.523.523,0,0,0,3.2-1.84a.524.524,0,0,0-.674-.2L.159-.684A.523.523,0,0,0,0,0" fill="#fff"/>
      </g>
      <g id="Grupo_2133" data-name="Grupo 2133" transform="translate(8.177 -25.982)">
        <path id="Caminho_3654" data-name="Caminho 3654" d="M0,0A2.986,2.986,0,0,0,2.281-.742a3.143,3.143,0,0,0,.683-2.2V-6.248a3.1,3.1,0,0,0-.683-2.178A3,3,0,0,0,0-9.163a2.977,2.977,0,0,0-2.263.731A3.112,3.112,0,0,0-2.94-6.248v3.311a3.156,3.156,0,0,0,.677,2.2A2.947,2.947,0,0,0,0,0M0-1.4a.588.588,0,0,1-.593-.28,1.812,1.812,0,0,1-.133-.765v-4.29A1.673,1.673,0,0,1-.581-7.5.59.59,0,0,1,0-7.777.621.621,0,0,1,.605-7.5a1.669,1.669,0,0,1,.145.77v4.29a1.681,1.681,0,0,1-.145.765A.616.616,0,0,1,0-1.4M4.283-.132H6.788a5.224,5.224,0,0,0,1.966-.3,1.86,1.86,0,0,0,1.005-.913,3.857,3.857,0,0,0,.3-1.65V-6.226a3.784,3.784,0,0,0-.3-1.633,1.822,1.822,0,0,0-1.011-.9,5.492,5.492,0,0,0-1.984-.286H4.283ZM6.449-1.5V-7.667h.327a1.666,1.666,0,0,1,.7.11.528.528,0,0,1,.29.336,2.455,2.455,0,0,1,.067.654v3.883a3.022,3.022,0,0,1-.061.7.567.567,0,0,1-.284.364,1.474,1.474,0,0,1-.7.126ZM13.975,0a2.914,2.914,0,0,0,1.344-.3,2.24,2.24,0,0,0,.9-.808,2.1,2.1,0,0,0,.321-1.139,2.7,2.7,0,0,0-.4-1.485,4.754,4.754,0,0,0-1.125-1.188L14.2-5.566a3.959,3.959,0,0,1-.72-.7,1.256,1.256,0,0,1-.223-.759.806.806,0,0,1,.151-.478.5.5,0,0,1,.429-.215.478.478,0,0,1,.5.3,3.411,3.411,0,0,1,.14,1l1.863-.209a3.322,3.322,0,0,0-.538-1.793,2.14,2.14,0,0,0-1.894-.737,3.074,3.074,0,0,0-2.015.605,2.113,2.113,0,0,0-.732,1.727,2.365,2.365,0,0,0,.345,1.293,4.078,4.078,0,0,0,.974,1.028l.847.671a3.891,3.891,0,0,1,.817.8,1.523,1.523,0,0,1,.26.891q0,.649-.544.649a.688.688,0,0,1-.636-.369,2.649,2.649,0,0,1-.224-1.215l-1.851.253a3.073,3.073,0,0,0,.732,2.151A2.86,2.86,0,0,0,13.975,0m6.776-.132h1.973l2.129-7.645V-9.042H20.207v1.4h2.674Z" fill="#fff"/>
      </g>
    </g>
  </g>
</svg>
