<svg xmlns="http://www.w3.org/2000/svg" xmlns:xlink="http://www.w3.org/1999/xlink" width="38.268" height="38.268" viewBox="0 0 38.268 38.268">
  <defs>
    <clipPath id="clip-path">
      <path id="Caminho_3601" data-name="Caminho 3601" d="M0,0H38.268V-38.268H0Z" fill="none"/>
    </clipPath>
  </defs>
  <g id="ods_01" transform="translate(0 38.268)">
    <path id="Caminho_3590" data-name="Caminho 3590" d="M0,0H38.268V-38.268H0Z" fill="#db152f"/>
    <g id="Grupo_2086" data-name="Grupo 2086" clip-path="url(#clip-path)">
      <g id="Grupo_2076" data-name="Grupo 2076" transform="translate(31.811 -17.655)">
        <path id="Caminho_3591" data-name="Caminho 3591" d="M0,0A1.178,1.178,0,0,1,1.178-1.178,1.176,1.176,0,0,1,2.353,0,1.176,1.176,0,0,1,1.178,1.177,1.178,1.178,0,0,1,0,0" fill="#fff"/>
      </g>
      <g id="Grupo_2077" data-name="Grupo 2077" transform="translate(33.768 -16.024)">
        <path id="Caminho_3592" data-name="Caminho 3592" d="M0,0A1.568,1.568,0,0,1,1.425,1.563V4.826a.457.457,0,0,1-.913,0v-2.8c0-.1-.031-.248-.223-.248-.132,0-.16.141-.165.231v8.4a.655.655,0,0,1-.655.655.656.656,0,0,1-.657-.655V5.566a.178.178,0,0,0-.186-.192h0a.18.18,0,0,0-.189.192v4.841a.655.655,0,0,1-.655.655.656.656,0,0,1-.656-.655v-8.4c0-.09-.033-.231-.165-.231-.193,0-.223.143-.223.248v2.8a.456.456,0,0,1-.456.456.456.456,0,0,1-.456-.456V1.563A1.569,1.569,0,0,1-2.748,0a.73.73,0,0,1,.086-.007H-.09A.785.785,0,0,1,0,0" fill="#fff"/>
      </g>
      <g id="Grupo_2078" data-name="Grupo 2078" transform="translate(24.216 -17.037)">
        <path id="Caminho_3593" data-name="Caminho 3593" d="M0,0A1.115,1.115,0,0,0-1.114-1.116,1.116,1.116,0,0,0-2.229,0,1.115,1.115,0,0,0-1.114,1.115,1.114,1.114,0,0,0,0,0" fill="#fff"/>
      </g>
      <g id="Grupo_2079" data-name="Grupo 2079" transform="translate(20.856 -14.512)">
        <path id="Caminho_3594" data-name="Caminho 3594" d="M0,0-.927,3.016s-.165.553.3.691.609-.4.609-.4L.733.788S.774.594.919.637s.091.248.091.248L-.29,5.6H.919v3.38a.581.581,0,0,0,1.161,0V5.6h.33v3.38a.582.582,0,0,0,1.163,0V5.6H4.781L3.482.885S3.427.678,3.573.637s.186.151.186.151l.747,2.518s.142.54.608.4.3-.691.3-.691L4.491,0S4.16-.872,3.427-.872H1.065C.332-.872,0,0,0,0" fill="#fff"/>
      </g>
      <g id="Grupo_2080" data-name="Grupo 2080" transform="translate(17.54 -17.037)">
        <path id="Caminho_3595" data-name="Caminho 3595" d="M0,0A1.115,1.115,0,0,0-1.114-1.116,1.116,1.116,0,0,0-2.229,0,1.115,1.115,0,0,0-1.114,1.115,1.115,1.115,0,0,0,0,0" fill="#fff"/>
      </g>
      <g id="Grupo_2081" data-name="Grupo 2081" transform="translate(14.179 -14.512)">
        <path id="Caminho_3596" data-name="Caminho 3596" d="M0,0-.926,3.016s-.166.553.3.691.608-.4.608-.4L.733.788S.774.594.919.637s.091.248.091.248L-.29,5.6H.919v3.38a.581.581,0,0,0,1.162,0V5.6h.33v3.38a.581.581,0,0,0,1.161,0V5.6h1.21L3.482.885s-.055-.207.09-.248.187.151.187.151l.746,2.518s.142.54.609.4.3-.691.3-.691L4.491,0s-.33-.872-1.064-.872H1.065C.332-.872,0,0,0,0" fill="#fff"/>
      </g>
      <g id="Grupo_2082" data-name="Grupo 2082" transform="translate(27.959 -10.799)">
        <path id="Caminho_3597" data-name="Caminho 3597" d="M0,0A.927.927,0,0,0,.927-.929.926.926,0,0,0,0-1.856a.927.927,0,0,0-.928.927A.928.928,0,0,0,0,0" fill="#fff"/>
      </g>
      <g id="Grupo_2083" data-name="Grupo 2083" transform="translate(25.735 -7.916)">
        <path id="Caminho_3598" data-name="Caminho 3598" d="M0,0A.323.323,0,0,0,.135.439a.31.31,0,0,0,.4-.13l.5-1.608s.088-.108.088,0V2.491h0a.476.476,0,1,0,.952,0V1S2.052.785,2.221.785,2.366,1,2.366,1V2.491a.477.477,0,0,0,.954,0V-1.3c0-.111.058-.031.058-.031l.4,1.1A2.694,2.694,0,0,0,4,.288.351.351,0,0,0,4.458.1.344.344,0,0,0,4.42-.241l0,0C4.412-.28,3.833-1.7,3.765-1.9c-.21-.611-.59-.606-.957-.616s-.587,0-.587,0-.234-.01-.718.005S.867-2.249.334-.876C.258-.679,0-.039,0,0Z" fill="#fff"/>
      </g>
      <g id="Grupo_2084" data-name="Grupo 2084" transform="translate(7.422 -17.981)">
        <path id="Caminho_3599" data-name="Caminho 3599" d="M0,0A1.178,1.178,0,0,0-1.178-1.178,1.176,1.176,0,0,0-2.354,0,1.176,1.176,0,0,0-1.178,1.177,1.178,1.178,0,0,0,0,0" fill="#fff"/>
      </g>
      <g id="Grupo_2085" data-name="Grupo 2085" transform="translate(5.032 -16.024)">
        <path id="Caminho_3600" data-name="Caminho 3600" d="M0,0A1.569,1.569,0,0,0-1.425,1.563V4.826a.457.457,0,0,0,.457.456.456.456,0,0,0,.456-.456v-2.8c0-.1.031-.248.223-.248.132,0,.16.141.166.231v8.4a.655.655,0,1,0,1.31,0V5.566a.179.179,0,0,1,.187-.192h0a.18.18,0,0,1,.189.192v4.841a.656.656,0,0,0,1.311,0v-8.4c0-.09.034-.231.165-.231.193,0,.222.143.222.248v2.8a.457.457,0,0,0,.913,0V1.563A1.569,1.569,0,0,0,2.749,0a.748.748,0,0,0-.087-.007H.09A.785.785,0,0,0,0,0" fill="#fff"/>
      </g>
    </g>
    <g id="Grupo_2087" data-name="Grupo 2087" transform="translate(3.987 -10.534)">
      <path id="Caminho_3602" data-name="Caminho 3602" d="M0,0-.666,5.161" fill="none" stroke="#fff" stroke-linecap="round" stroke-width="0.49"/>
    </g>
    <g id="Grupo_2090" data-name="Grupo 2090" clip-path="url(#clip-path)">
      <g id="Grupo_2088" data-name="Grupo 2088" transform="translate(9.766 -11.285)">
        <path id="Caminho_3603" data-name="Caminho 3603" d="M0,0A.34.34,0,0,0-.286-.159.338.338,0,0,0-.624.179.61.61,0,0,0-.591.327L.344,2.02A.6.6,0,0,1,.4,2.243V5.878h0a.457.457,0,1,0,.913,0V4.443s-.025-.2.139-.2.137.2.137.2V5.878a.458.458,0,0,0,.916,0V2.243a.6.6,0,0,1,.057-.223L3.429.457A1.513,1.513,0,0,0,3.535.179.338.338,0,0,0,3.2-.159.334.334,0,0,0,2.911,0l0,0c-.027.023-.46.795-.6.937a.376.376,0,0,1-.287.136H.893A.374.374,0,0,1,.606.935C.462.793.03.021,0,0Z" fill="#fff"/>
      </g>
      <g id="Grupo_2089" data-name="Grupo 2089" transform="translate(11.221 -10.799)">
        <path id="Caminho_3604" data-name="Caminho 3604" d="M0,0A.927.927,0,0,0,.927-.929.926.926,0,0,0,0-1.856a.926.926,0,0,0-.927.927A.927.927,0,0,0,0,0" fill="#fff"/>
      </g>
    </g>
    <g id="Grupo_2091" data-name="Grupo 2091" transform="translate(11.222 -9.496)">
      <path id="Caminho_3606" data-name="Caminho 3606" d="M0,0,1.049.765l.5,1.835h-3.1l.5-1.835Z" fill="#fff"/>
    </g>
    <g id="Grupo_2093" data-name="Grupo 2093" clip-path="url(#clip-path)">
      <g id="Grupo_2092" data-name="Grupo 2092" transform="translate(8.807 -25.512)">
        <path id="Caminho_3607" data-name="Caminho 3607" d="M0,0A2.982,2.982,0,0,0,2.281-.743a3.138,3.138,0,0,0,.684-2.194V-6.248a3.1,3.1,0,0,0-.684-2.178A3,3,0,0,0,0-9.163a2.977,2.977,0,0,0-2.263.731A3.112,3.112,0,0,0-2.94-6.248v3.311A3.152,3.152,0,0,0-2.263-.743,2.943,2.943,0,0,0,0,0M0-1.4c-.307,0-.5-.093-.593-.281a1.8,1.8,0,0,1-.133-.764v-4.29A1.681,1.681,0,0,1-.581-7.5.592.592,0,0,1,0-7.777.621.621,0,0,1,.605-7.5a1.669,1.669,0,0,1,.145.77v4.29a1.673,1.673,0,0,1-.145.764A.615.615,0,0,1,0-1.4M4.283-.132H6.788a5.224,5.224,0,0,0,1.966-.3,1.86,1.86,0,0,0,1.005-.913,3.857,3.857,0,0,0,.3-1.65V-6.226a3.784,3.784,0,0,0-.3-1.633,1.822,1.822,0,0,0-1.011-.9,5.492,5.492,0,0,0-1.984-.286H4.283ZM6.449-1.5V-7.667h.327a1.666,1.666,0,0,1,.7.11.528.528,0,0,1,.29.336,2.455,2.455,0,0,1,.067.654v3.883a3.022,3.022,0,0,1-.061.7.567.567,0,0,1-.284.364,1.474,1.474,0,0,1-.7.126ZM13.975,0a2.914,2.914,0,0,0,1.344-.3,2.24,2.24,0,0,0,.9-.808,2.1,2.1,0,0,0,.321-1.139,2.7,2.7,0,0,0-.4-1.485,4.754,4.754,0,0,0-1.125-1.188L14.2-5.566a3.959,3.959,0,0,1-.72-.7,1.256,1.256,0,0,1-.223-.759.811.811,0,0,1,.151-.479.5.5,0,0,1,.429-.214.48.48,0,0,1,.5.3,3.453,3.453,0,0,1,.139,1l1.863-.209a3.322,3.322,0,0,0-.538-1.793,2.14,2.14,0,0,0-1.894-.737,3.074,3.074,0,0,0-2.015.605,2.113,2.113,0,0,0-.732,1.727,2.367,2.367,0,0,0,.345,1.293,4.1,4.1,0,0,0,.974,1.028l.847.671a3.891,3.891,0,0,1,.817.8,1.523,1.523,0,0,1,.26.891q0,.649-.544.649a.688.688,0,0,1-.636-.369,2.649,2.649,0,0,1-.224-1.215l-1.851.253a3.073,3.073,0,0,0,.732,2.151A2.86,2.86,0,0,0,13.975,0m7.6-.132h2.021v-8.91H22.01a8.706,8.706,0,0,1-1.779.99v1.364a3.665,3.665,0,0,1,.339-.143c.137-.051.238-.088.3-.11q.568-.22.7-.286Z" fill="#fff"/>
      </g>
    </g>
  </g>
</svg>
