<svg xmlns="http://www.w3.org/2000/svg" xmlns:xlink="http://www.w3.org/1999/xlink" width="38.268" height="38.269" viewBox="0 0 38.268 38.269">
  <defs>
    <clipPath id="clip-path">
      <path id="Caminho_3625" data-name="Caminho 3625" d="M0,0H38.268V-38.269H0Z" fill="none"/>
    </clipPath>
  </defs>
  <g id="ods_04" transform="translate(0 38.269)">
    <path id="Caminho_3621" data-name="Caminho 3621" d="M0,0H38.268V-38.269H0Z" fill="#c01720"/>
    <g id="Grupo_2104" data-name="Grupo 2104" transform="translate(16.51 -17.237)">
      <path id="Caminho_3622" data-name="Caminho 3622" d="M0,0-7.626-4.4V9.841L0,12.142Z" fill="#fff"/>
    </g>
    <g id="Grupo_2105" data-name="Grupo 2105" transform="translate(17.349 -17.208)">
      <path id="Caminho_3623" data-name="Caminho 3623" d="M0,0V12.118L7.675,9.81V-4.432Z" fill="#fff"/>
    </g>
    <g id="Grupo_2107" data-name="Grupo 2107" clip-path="url(#clip-path)">
      <g id="Grupo_2106" data-name="Grupo 2106" transform="translate(31.011 -22.001)">
        <path id="Caminho_3624" data-name="Caminho 3624" d="M0,0A.9.9,0,0,0-.9-.9a.9.9,0,0,0-.9.9V.973H0Z" fill="#fff"/>
      </g>
    </g>
    <g id="Grupo_2108" data-name="Grupo 2108" transform="translate(29.431 -7.648)">
      <path id="Caminho_3626" data-name="Caminho 3626" d="M0,0H-.224l.9,3.153L1.58,0h0V-12.674h-1.8V0Z" fill="#fff"/>
    </g>
    <g id="Grupo_2109" data-name="Grupo 2109" transform="translate(26.663 -21.029)">
      <path id="Caminho_3627" data-name="Caminho 3627" d="M0,0-.817-.646V14.019l-8.474,2.738h-.861L-18.588,14.4V-.646L-19.406,0V14.974l9.215,2.551h.939l8.5-2.7L0,14.6Z" fill="#fff"/>
    </g>
    <g id="Grupo_2111" data-name="Grupo 2111" clip-path="url(#clip-path)">
      <g id="Grupo_2110" data-name="Grupo 2110" transform="translate(7.566 -25.513)">
        <path id="Caminho_3628" data-name="Caminho 3628" d="M0,0A2.982,2.982,0,0,0,2.281-.743a3.138,3.138,0,0,0,.683-2.194V-6.248a3.1,3.1,0,0,0-.683-2.178A3,3,0,0,0,0-9.163a2.977,2.977,0,0,0-2.263.731A3.112,3.112,0,0,0-2.94-6.248v3.311A3.152,3.152,0,0,0-2.263-.743,2.943,2.943,0,0,0,0,0M0-1.4c-.307,0-.5-.093-.593-.281a1.8,1.8,0,0,1-.133-.764v-4.29A1.681,1.681,0,0,1-.581-7.5.592.592,0,0,1,0-7.777.621.621,0,0,1,.605-7.5a1.669,1.669,0,0,1,.145.77v4.29a1.673,1.673,0,0,1-.145.764A.615.615,0,0,1,0-1.4M4.283-.132H6.788a5.224,5.224,0,0,0,1.966-.3,1.86,1.86,0,0,0,1.005-.913,3.857,3.857,0,0,0,.3-1.65V-6.226a3.784,3.784,0,0,0-.3-1.633,1.822,1.822,0,0,0-1.011-.9,5.492,5.492,0,0,0-1.984-.286H4.283ZM6.449-1.5V-7.667h.327a1.666,1.666,0,0,1,.7.11.528.528,0,0,1,.29.336,2.455,2.455,0,0,1,.067.654v3.883a3.022,3.022,0,0,1-.061.7.567.567,0,0,1-.284.364,1.474,1.474,0,0,1-.7.126ZM13.975,0a2.914,2.914,0,0,0,1.344-.3,2.24,2.24,0,0,0,.9-.808,2.1,2.1,0,0,0,.321-1.139,2.7,2.7,0,0,0-.4-1.485,4.754,4.754,0,0,0-1.125-1.188L14.2-5.566a3.959,3.959,0,0,1-.72-.7,1.256,1.256,0,0,1-.223-.759.811.811,0,0,1,.151-.479.5.5,0,0,1,.429-.214.478.478,0,0,1,.5.3,3.411,3.411,0,0,1,.14,1l1.863-.209a3.322,3.322,0,0,0-.538-1.793,2.14,2.14,0,0,0-1.894-.737,3.074,3.074,0,0,0-2.015.605,2.113,2.113,0,0,0-.732,1.727,2.367,2.367,0,0,0,.345,1.293,4.1,4.1,0,0,0,.974,1.028l.847.671a3.891,3.891,0,0,1,.817.8,1.523,1.523,0,0,1,.26.891q0,.649-.544.649a.688.688,0,0,1-.636-.369,2.649,2.649,0,0,1-.224-1.215l-1.851.253a3.073,3.073,0,0,0,.732,2.151A2.86,2.86,0,0,0,13.975,0M23.28-.132h1.888v-2h.907V-3.5h-.907V-9.042H22.82L20.267-3.487v1.353H23.28ZM21.8-3.5,23.28-7.2V-3.5Z" fill="#fff"/>
      </g>
    </g>
  </g>
</svg>
