<svg xmlns="http://www.w3.org/2000/svg" xmlns:xlink="http://www.w3.org/1999/xlink" width="38.268" height="38.271" viewBox="0 0 38.268 38.271">
  <defs>
    <clipPath id="clip-path">
      <path id="Caminho_3692" data-name="Caminho 3692" d="M0,0H38.268V-38.27H0Z" fill="none"/>
    </clipPath>
  </defs>
  <g id="ods_13" transform="translate(0 38.271)">
    <path id="Caminho_3689" data-name="Caminho 3689" d="M0,0H38.268V-38.271H0Z" fill="#1e451e"/>
    <g id="Grupo_2163" data-name="Grupo 2163" clip-path="url(#clip-path)">
      <g id="Grupo_2161" data-name="Grupo 2161" transform="translate(34.742 -12.709)">
        <path id="Caminho_3690" data-name="Caminho 3690" d="M0,0A19.3,19.3,0,0,0-15.607-7.845,19.309,19.309,0,0,0-31.216,0c-.048.067-.089.125-.122.175.033.051.074.108.122.176A19.309,19.309,0,0,0-15.607,8.2,19.3,19.3,0,0,0,0,.351C.049.283.089.226.122.175.089.125.049.067,0,0M-20.862-3.878c.085-.124.367-.48.4-.525a.5.5,0,0,1,.318-.131c.1-.019.233.037.249.112a.855.855,0,0,1-.088.417,1.082,1.082,0,0,1-.7.314c-.153-.023-.213-.142-.184-.187m-.336.669.034-.039a.88.88,0,0,1,.517-.19c.164-.028.381.055.407.163s-.409.306-.489.38c-.227.209-.581.635-.789.68a.247.247,0,0,1-.169-.018,6.4,6.4,0,0,1,.489-.976m3.525,7.233a1.861,1.861,0,0,1-.4.84,1.361,1.361,0,0,1-.9.343c-.3-.023-.34-.819-.34-1.229,0-.141-.2.278-.3-.574-.067-.546-.417.057-.442-.308s-.2-.29-.384-.517-.411.022-.667.137-.15.172-.512.058l-.023-.009A6.541,6.541,0,0,1-22.159.211c0-.221.012-.439.032-.655A.5.5,0,0,1-22.086-.5c.347-.41.339-.507.339-.507l.384-.132a6.392,6.392,0,0,1,1.075.268c.38.142.98.465,1.328.323.252-.1.449-.241.425-.451-.028-.263-.235-.326-.486-.148-.093.065-.29-.4-.445-.373s.192.542.061.564-.4-.541-.441-.633-.249-.317-.432-.144c-.387.368-1.016.345-1.142.44-.384.287-.486-.1-.477-.328.016-.053.031-.106.048-.159a.787.787,0,0,1,.73-.081c.17.113.292-.029.358-.1s.044-.176,0-.267.085-.158.172-.181a4.766,4.766,0,0,0,.5-.3,1.633,1.633,0,0,1,1,0,.528.528,0,0,0,.655-.132,1.742,1.742,0,0,1,.476-.4c.095-.045-.234-.352-.5-.017S-18.876-2.9-19-2.9s-.885-.189-.978-.428.237-.418.516-.554a6.946,6.946,0,0,1,1.24-.176c.4-.087.907-.286,1.163-.112s-1.07.473-.635.708c.155.085.855-.4,1.095-.528.565-.291-.547-.387-.4-.979.163-.669-1.363-.41-2.124-.353A6.524,6.524,0,0,1-15.6-6.352,6.567,6.567,0,0,1-9.215-1.323a1.117,1.117,0,0,1-.032.3.429.429,0,0,1-.769.059c-.066-.1-.348-.361-.338.093s.442.5.022.775a1.605,1.605,0,0,1-.689.275.891.891,0,0,0-.335.788c.047.251.645.934.2.906A2.556,2.556,0,0,1-12.172.989c-.137-.363-.286-.718-.392-.991a.391.391,0,0,0-.618-.182c-.234.16.065.319-.1.661s-.287.646-.534.365C-14.46.108-15.39.47-15.536-.347c-.079-.443-.46-.4-.779-.651s-.5-.385-.553-.2c-.047.159,1,.992,1.078,1.2.112.317-.314.6-.626.672S-16.864.5-17.169.18s-.44-.545-.461-.3a1.432,1.432,0,0,0,.6,1.089c.265.168.563.244.477.518s0,.118-.3.412a.8.8,0,0,0-.333.8c.021.41-.085.433-.15.774s-.211.046-.34.546m7.04-2.617c.22-.018.552.288.422.405a.588.588,0,0,1-.626-.056c-.165-.129.1-.341.2-.349m-.28-.2c-.07-.026-.133-.093-.186-.254a.148.148,0,0,1,.214-.189.638.638,0,0,1,.31.377c0,.107-.265.094-.338.066m-2.9-.011a.592.592,0,0,1-.627-.057c-.165-.128.1-.341.2-.349.22-.019.552.289.423.406m-2.679,1.3c-.091.147-.338,1.251-.5,1.123s.067-1.28.115-1.368c.259-.475.82-.452.388.245m.892,4.277a6.566,6.566,0,0,1-1.845-.264.27.27,0,0,1-.079-.321,1.463,1.463,0,0,1,1.285-.783c1.064-.1,2.463.691,2.685.563s.673-.713,1.333-.688a1.03,1.03,0,0,1,.6.149A6.532,6.532,0,0,1-15.6,6.774m4.628-1.91a1.189,1.189,0,0,1-.206-.076c-.358-.183-.316.109-.492.045s.2-.475-.33-.129-.384-.054-.614-.638a1.19,1.19,0,0,1,.679-1.4,8.546,8.546,0,0,1,1.191-.315c.788-.2.955-.664,1.1-.379l.077.152a1.039,1.039,0,0,1,.1.427,6.584,6.584,0,0,1-1.505,2.315m1.8-3.313C-9.346,1.5-10.083.484-9.5-.186-9.4-.3-9.7-.621-9.616-.627a.534.534,0,0,1,.572.458c.006.125.011.252.011.38a6.578,6.578,0,0,1-.138,1.34" fill="#fff"/>
      </g>
      <g id="Grupo_2162" data-name="Grupo 2162" transform="translate(5.346 -25.833)">
        <path id="Caminho_3691" data-name="Caminho 3691" d="M0,0A2.982,2.982,0,0,0,2.281-.743a3.138,3.138,0,0,0,.684-2.194V-6.248a3.1,3.1,0,0,0-.684-2.178A3,3,0,0,0,0-9.163a2.977,2.977,0,0,0-2.263.731A3.112,3.112,0,0,0-2.94-6.248v3.311A3.152,3.152,0,0,0-2.263-.743,2.943,2.943,0,0,0,0,0M0-1.4c-.307,0-.5-.093-.593-.281a1.8,1.8,0,0,1-.133-.764v-4.29A1.681,1.681,0,0,1-.581-7.5.592.592,0,0,1,0-7.777.621.621,0,0,1,.605-7.5a1.669,1.669,0,0,1,.145.77v4.29a1.673,1.673,0,0,1-.145.764A.615.615,0,0,1,0-1.4M4.283-.132H6.788a5.224,5.224,0,0,0,1.966-.3,1.86,1.86,0,0,0,1.005-.913,3.857,3.857,0,0,0,.3-1.65V-6.226a3.784,3.784,0,0,0-.3-1.633,1.822,1.822,0,0,0-1.011-.9,5.492,5.492,0,0,0-1.984-.286H4.283ZM6.449-1.5V-7.667h.327a1.666,1.666,0,0,1,.7.11.528.528,0,0,1,.29.336,2.455,2.455,0,0,1,.067.654v3.883a3.022,3.022,0,0,1-.061.7.567.567,0,0,1-.284.364,1.474,1.474,0,0,1-.7.126ZM13.975,0a2.914,2.914,0,0,0,1.344-.3,2.24,2.24,0,0,0,.9-.808,2.1,2.1,0,0,0,.321-1.139,2.7,2.7,0,0,0-.4-1.485,4.754,4.754,0,0,0-1.125-1.188L14.2-5.566a3.959,3.959,0,0,1-.72-.7,1.256,1.256,0,0,1-.223-.759.811.811,0,0,1,.151-.479.5.5,0,0,1,.429-.214.478.478,0,0,1,.5.3,3.411,3.411,0,0,1,.14,1l1.863-.209a3.322,3.322,0,0,0-.538-1.793,2.14,2.14,0,0,0-1.894-.737,3.074,3.074,0,0,0-2.015.605,2.113,2.113,0,0,0-.732,1.727,2.367,2.367,0,0,0,.345,1.293,4.1,4.1,0,0,0,.974,1.028l.847.671a3.891,3.891,0,0,1,.817.8,1.523,1.523,0,0,1,.26.891q0,.649-.544.649a.688.688,0,0,1-.636-.369,2.649,2.649,0,0,1-.224-1.215l-1.851.253a3.073,3.073,0,0,0,.732,2.151A2.86,2.86,0,0,0,13.975,0m7.6-.132h2.021v-8.91H22.01a8.706,8.706,0,0,1-1.779.99v1.364a3.665,3.665,0,0,1,.339-.143c.137-.051.238-.088.3-.11q.568-.22.7-.286ZM27.83.033A2.566,2.566,0,0,0,29.875-.71a3.019,3.019,0,0,0,.641-2.04,2.506,2.506,0,0,0-.321-1.386,1.656,1.656,0,0,0-.877-.671,1.428,1.428,0,0,0,.859-.666,2.357,2.357,0,0,0,.339-1.292A2.239,2.239,0,0,0,29.8-8.558a2.959,2.959,0,0,0-2-.616,2.816,2.816,0,0,0-1.967.643,2.365,2.365,0,0,0-.708,1.843v.539h2.021v-.462a1.9,1.9,0,0,1,.139-.819.52.52,0,0,1,.515-.281.593.593,0,0,1,.556.264,1.608,1.608,0,0,1,.157.8,1.7,1.7,0,0,1-.229,1.007,1.011,1.011,0,0,1-.847.3h-.327V-4.07h.375a.929.929,0,0,1,.811.336,1.888,1.888,0,0,1,.217,1.028,2.254,2.254,0,0,1-.133.913.522.522,0,0,1-.52.275A.58.58,0,0,1,27.3-1.8a2.183,2.183,0,0,1-.151-.962V-3.08H25.131v.319a3.1,3.1,0,0,0,.618,2.068A2.6,2.6,0,0,0,27.83.033" fill="#fff"/>
      </g>
    </g>
  </g>
</svg>
