<svg xmlns="http://www.w3.org/2000/svg" xmlns:xlink="http://www.w3.org/1999/xlink" width="38.268" height="38.269" viewBox="0 0 38.268 38.269">
  <defs>
    <clipPath id="clip-path">
      <path id="Caminho_3675" data-name="Caminho 3675" d="M0,0H38.268V-38.269H0Z" fill="none"/>
    </clipPath>
  </defs>
  <g id="ods_10" transform="translate(0 38.269)">
    <path id="Caminho_3667" data-name="Caminho 3667" d="M0,0H38.268V-38.269H0Z" fill="#d7055e"/>
    <g id="Grupo_2144" data-name="Grupo 2144" transform="translate(26.184 -16.49)">
      <path id="Caminho_3668" data-name="Caminho 3668" d="M0,0,3.9,3.9,0,7.8Z" fill="#fff"/>
    </g>
    <g id="Grupo_2145" data-name="Grupo 2145" transform="translate(12.084 -16.49)">
      <path id="Caminho_3669" data-name="Caminho 3669" d="M0,0-3.9,3.9,0,7.8Z" fill="#fff"/>
    </g>
    <g id="Grupo_2146" data-name="Grupo 2146" transform="translate(15.311 -19.448)">
      <path id="Caminho_3670" data-name="Caminho 3670" d="M0,0,3.9-3.9,7.8,0Z" fill="#fff"/>
    </g>
    <g id="Grupo_2147" data-name="Grupo 2147" transform="translate(15.646 -5.496)">
      <path id="Caminho_3671" data-name="Caminho 3671" d="M0,0,3.9,3.9,7.8,0Z" fill="#fff"/>
    </g>
    <path id="Caminho_3672" data-name="Caminho 3672" d="M23.451-13.869H14.984v-2.294h8.467Z" fill="#fff"/>
    <path id="Caminho_3673" data-name="Caminho 3673" d="M23.451-8.87H14.984v-2.294h8.467Z" fill="#fff"/>
    <g id="Grupo_2149" data-name="Grupo 2149" clip-path="url(#clip-path)">
      <g id="Grupo_2148" data-name="Grupo 2148" transform="translate(5.273 -26.014)">
        <path id="Caminho_3674" data-name="Caminho 3674" d="M0,0A2.982,2.982,0,0,0,2.281-.743a3.138,3.138,0,0,0,.684-2.194V-6.248a3.1,3.1,0,0,0-.684-2.178A3,3,0,0,0,0-9.163a2.977,2.977,0,0,0-2.263.731A3.112,3.112,0,0,0-2.94-6.248v3.311A3.152,3.152,0,0,0-2.263-.743,2.943,2.943,0,0,0,0,0M0-1.4a.588.588,0,0,1-.593-.281,1.8,1.8,0,0,1-.133-.764v-4.29A1.678,1.678,0,0,1-.581-7.5.592.592,0,0,1,0-7.777.621.621,0,0,1,.605-7.5a1.669,1.669,0,0,1,.145.77v4.29a1.673,1.673,0,0,1-.145.764A.617.617,0,0,1,0-1.4M4.283-.132H6.788a5.224,5.224,0,0,0,1.966-.3,1.86,1.86,0,0,0,1.005-.913,3.857,3.857,0,0,0,.3-1.65V-6.226a3.792,3.792,0,0,0-.3-1.634,1.821,1.821,0,0,0-1.011-.9,5.492,5.492,0,0,0-1.984-.286H4.283ZM6.449-1.5V-7.667h.327a1.666,1.666,0,0,1,.7.11.528.528,0,0,1,.29.335,2.469,2.469,0,0,1,.067.655v3.883a3.022,3.022,0,0,1-.061.7.567.567,0,0,1-.284.364,1.474,1.474,0,0,1-.7.126ZM13.975,0a2.914,2.914,0,0,0,1.344-.3,2.247,2.247,0,0,0,.9-.808,2.1,2.1,0,0,0,.321-1.139,2.7,2.7,0,0,0-.4-1.485,4.754,4.754,0,0,0-1.125-1.188L14.2-5.566a3.959,3.959,0,0,1-.72-.7,1.256,1.256,0,0,1-.223-.759.811.811,0,0,1,.151-.479.5.5,0,0,1,.429-.214.48.48,0,0,1,.5.3,3.468,3.468,0,0,1,.139,1l1.863-.209a3.322,3.322,0,0,0-.538-1.793,2.14,2.14,0,0,0-1.894-.737,3.074,3.074,0,0,0-2.015.605,2.113,2.113,0,0,0-.732,1.727,2.367,2.367,0,0,0,.345,1.293,4.1,4.1,0,0,0,.974,1.028l.847.671a3.891,3.891,0,0,1,.817.8,1.523,1.523,0,0,1,.26.891q0,.649-.544.649a.688.688,0,0,1-.636-.369,2.649,2.649,0,0,1-.224-1.215l-1.851.253a3.073,3.073,0,0,0,.732,2.151A2.864,2.864,0,0,0,13.975,0m7.6-.132h2.021v-8.91H22.01a8.706,8.706,0,0,1-1.779.99v1.364a3.665,3.665,0,0,1,.339-.143c.137-.051.238-.088.3-.11q.568-.22.7-.286ZM28,.033a2.655,2.655,0,0,0,1.966-.7,2.512,2.512,0,0,0,.7-1.854V-6.556A2.673,2.673,0,0,0,30-8.476a2.639,2.639,0,0,0-2-.7,2.655,2.655,0,0,0-2,.7,2.655,2.655,0,0,0-.672,1.92v4.037a2.519,2.519,0,0,0,.69,1.859A2.678,2.678,0,0,0,28,.033m0-1.639q-.6,0-.605-.957V-6.512a2.2,2.2,0,0,1,.1-.737.468.468,0,0,1,.5-.286.467.467,0,0,1,.5.292,2.209,2.209,0,0,1,.1.731v3.949a1.785,1.785,0,0,1-.115.671.471.471,0,0,1-.49.286" fill="#fff"/>
      </g>
    </g>
  </g>
</svg>
