<svg xmlns="http://www.w3.org/2000/svg" xmlns:xlink="http://www.w3.org/1999/xlink" width="38.268" height="38.269" viewBox="0 0 38.268 38.269">
  <defs>
    <clipPath id="clip-path">
      <path id="Caminho_3708" data-name="Caminho 3708" d="M0,0H38.268V-38.269H0Z" fill="none"/>
    </clipPath>
  </defs>
  <g id="ods_15" transform="translate(0 38.269)">
    <path id="Caminho_3699" data-name="Caminho 3699" d="M0,0H38.268V-38.269H0Z" fill="#407920"/>
    <g id="Grupo_2177" data-name="Grupo 2177" clip-path="url(#clip-path)">
      <g id="Grupo_2169" data-name="Grupo 2169" transform="translate(15.87 -10.865)">
        <path id="Caminho_3700" data-name="Caminho 3700" d="M0,0A.089.089,0,0,1,.089.089V3.031A.089.089,0,0,1,0,3.12H-1.19a.089.089,0,0,1-.09-.089V.089A.089.089,0,0,1-1.19,0Z" fill="#fff"/>
      </g>
      <g id="Grupo_2170" data-name="Grupo 2170" transform="translate(28.941 -6.482)">
        <path id="Caminho_3701" data-name="Caminho 3701" d="M0,0H-19.615a.092.092,0,0,0-.09.092v1.2a.089.089,0,0,0,.09.088H0a.09.09,0,0,0,.09-.088V.092A.093.093,0,0,0,0,0" fill="#fff"/>
      </g>
      <g id="Grupo_2171" data-name="Grupo 2171" transform="translate(28.941 -4.099)">
        <path id="Caminho_3702" data-name="Caminho 3702" d="M0,0H-19.615a.089.089,0,0,0-.09.088v1.2a.09.09,0,0,0,.09.088H0a.091.091,0,0,0,.09-.088V.088A.091.091,0,0,0,0,0" fill="#fff"/>
      </g>
      <g id="Grupo_2172" data-name="Grupo 2172" transform="translate(25.209 -14.121)">
        <path id="Caminho_3703" data-name="Caminho 3703" d="M0,0A2.9,2.9,0,0,0-1.7-.639,2.264,2.264,0,0,0-3.272.03a.167.167,0,0,0-.052.123V.26a.168.168,0,0,0,.056.134.153.153,0,0,0,.137.032A.154.154,0,0,0-3.094.417.264.264,0,0,0-3,.355,1.588,1.588,0,0,1-2.21.191a2.965,2.965,0,0,1,2.021.847l.018.017A.24.24,0,0,0,0,1.125a.229.229,0,0,0,.166-.069L.182,1.04A2.972,2.972,0,0,1,2.206.191a1.592,1.592,0,0,1,.788.164A.287.287,0,0,0,3.1.421a.238.238,0,0,0,.115,0A.169.169,0,0,0,3.34.263v-.1A.17.17,0,0,0,3.288.047a2.276,2.276,0,0,0-1.6-.687A2.876,2.876,0,0,0,0,0" fill="#fff"/>
      </g>
      <g id="Grupo_2173" data-name="Grupo 2173" transform="translate(23.992 -21.939)">
        <path id="Caminho_3704" data-name="Caminho 3704" d="M0,0A.162.162,0,0,0-.086.1L-.1.169A.17.17,0,0,0-.08.316.162.162,0,0,0,.042.382a.072.072,0,0,0,.025,0A.208.208,0,0,0,.161.359.476.476,0,0,1,.28.346a1.7,1.7,0,0,1,1.4.915l.007.012a.2.2,0,0,0,.126.1.244.244,0,0,0,.062.01.207.207,0,0,0,.1-.025l.013-.006a1.954,1.954,0,0,1,.875-.217,1.331,1.331,0,0,1,.894.287.241.241,0,0,0,.066.073.538.538,0,0,0,.064.031l.029,0h.017a.168.168,0,0,0,.078-.02.163.163,0,0,0,.083-.1l.017-.058a.151.151,0,0,0,.006-.048.16.16,0,0,0-.022-.084,1.475,1.475,0,0,0-1.331-.8,2.1,2.1,0,0,0-.706.132A1.714,1.714,0,0,0,.736-.186,1.628,1.628,0,0,0,0,0" fill="#fff"/>
      </g>
      <g id="Grupo_2174" data-name="Grupo 2174" transform="translate(19.847 -18.921)">
        <path id="Caminho_3705" data-name="Caminho 3705" d="M0,0,.006.088A.164.164,0,0,0,.084.221.166.166,0,0,0,.216.24L.245.232A.219.219,0,0,0,.329.169,1.44,1.44,0,0,1,1.077,0,2.423,2.423,0,0,1,2.628.586L2.642.6a.235.235,0,0,0,.152.057h.014A.228.228,0,0,0,2.962.583L2.975.568a2.357,2.357,0,0,1,1.72-.8,1.154,1.154,0,0,1,.511.094.266.266,0,0,0,.1.053.235.235,0,0,0,.072,0,.145.145,0,0,0,.041-.01.165.165,0,0,0,.111-.168l0-.077a.167.167,0,0,0-.059-.117A1.926,1.926,0,0,0,4.214-.942a2.335,2.335,0,0,0-1.468.608A2.452,2.452,0,0,0,1.437-.768,1.868,1.868,0,0,0,.046-.126.173.173,0,0,0,0,0" fill="#fff"/>
      </g>
      <g id="Grupo_2175" data-name="Grupo 2175" transform="translate(9.921 -17.347)">
        <path id="Caminho_3706" data-name="Caminho 3706" d="M0,0A2.126,2.126,0,0,1,2.127-2.126c.046,0,.09,0,.136.006A2.875,2.875,0,0,1,5.129-4.778,2.878,2.878,0,0,1,8.007-1.9,2.855,2.855,0,0,1,7.715-.647a3.214,3.214,0,0,1-.7,6.352L2.727,5.68A2.274,2.274,0,0,1,1.071,1.844,2.123,2.123,0,0,1,0,0" fill="#fff"/>
      </g>
      <g id="Grupo_2176" data-name="Grupo 2176" transform="translate(5.388 -25.83)">
        <path id="Caminho_3707" data-name="Caminho 3707" d="M0,0A2.982,2.982,0,0,0,2.281-.743a3.138,3.138,0,0,0,.683-2.194V-6.248a3.1,3.1,0,0,0-.683-2.178A3,3,0,0,0,0-9.163a2.977,2.977,0,0,0-2.263.731A3.112,3.112,0,0,0-2.94-6.248v3.311A3.152,3.152,0,0,0-2.263-.743,2.943,2.943,0,0,0,0,0M0-1.4c-.307,0-.5-.093-.593-.281a1.8,1.8,0,0,1-.133-.764v-4.29A1.681,1.681,0,0,1-.581-7.5.592.592,0,0,1,0-7.777.621.621,0,0,1,.605-7.5a1.669,1.669,0,0,1,.145.77v4.29a1.673,1.673,0,0,1-.145.764A.615.615,0,0,1,0-1.4M4.283-.132H6.788a5.224,5.224,0,0,0,1.966-.3,1.86,1.86,0,0,0,1.005-.913,3.857,3.857,0,0,0,.3-1.65V-6.226a3.784,3.784,0,0,0-.3-1.633,1.822,1.822,0,0,0-1.011-.9,5.492,5.492,0,0,0-1.984-.286H4.283ZM6.449-1.5V-7.667h.327a1.666,1.666,0,0,1,.7.11.528.528,0,0,1,.29.336,2.455,2.455,0,0,1,.067.654v3.883a3.022,3.022,0,0,1-.061.7.567.567,0,0,1-.284.364,1.474,1.474,0,0,1-.7.126ZM13.975,0a2.914,2.914,0,0,0,1.344-.3,2.24,2.24,0,0,0,.9-.808,2.1,2.1,0,0,0,.321-1.139,2.7,2.7,0,0,0-.4-1.485,4.754,4.754,0,0,0-1.125-1.188L14.2-5.566a3.959,3.959,0,0,1-.72-.7,1.256,1.256,0,0,1-.223-.759.811.811,0,0,1,.151-.479.5.5,0,0,1,.429-.214.478.478,0,0,1,.5.3,3.411,3.411,0,0,1,.14,1l1.863-.209a3.322,3.322,0,0,0-.538-1.793,2.14,2.14,0,0,0-1.894-.737,3.074,3.074,0,0,0-2.015.605,2.113,2.113,0,0,0-.732,1.727,2.367,2.367,0,0,0,.345,1.293,4.1,4.1,0,0,0,.974,1.028l.847.671a3.891,3.891,0,0,1,.817.8,1.523,1.523,0,0,1,.26.891q0,.649-.544.649a.688.688,0,0,1-.636-.369,2.649,2.649,0,0,1-.224-1.215l-1.851.253a3.073,3.073,0,0,0,.732,2.151A2.86,2.86,0,0,0,13.975,0m7.6-.132h2.021v-8.91H22.01a8.706,8.706,0,0,1-1.779.99v1.364a3.665,3.665,0,0,1,.339-.143c.137-.051.238-.088.3-.11q.568-.22.7-.286Zm6.183.165a2.953,2.953,0,0,0,1.682-.4,1.975,1.975,0,0,0,.786-1.1,6.329,6.329,0,0,0,.206-1.765,3.634,3.634,0,0,0-.526-2.112,1.742,1.742,0,0,0-1.519-.748,3.065,3.065,0,0,0-.877.127,1.1,1.1,0,0,0-.563.3L27.055-7.5h2.953v-1.54H25.434L25.252-3.9H27q.157-.814.774-.814a.594.594,0,0,1,.605.39,3.187,3.187,0,0,1,.157,1.139q0,.715-.036,1.083a1.14,1.14,0,0,1-.187.572.556.556,0,0,1-.478.2.543.543,0,0,1-.551-.314,2.981,2.981,0,0,1-.139-1.094H25.192A4.647,4.647,0,0,0,25.4-1.232,1.71,1.71,0,0,0,26.16-.3a3.115,3.115,0,0,0,1.6.336" fill="#fff"/>
      </g>
    </g>
  </g>
</svg>
