<svg xmlns="http://www.w3.org/2000/svg" xmlns:xlink="http://www.w3.org/1999/xlink" width="38.268" height="38.269" viewBox="0 0 38.268 38.269">
  <defs>
    <clipPath id="clip-path">
      <path id="Caminho_3662" data-name="Caminho 3662" d="M0,0H38.268V-38.269H0Z" fill="none"/>
    </clipPath>
  </defs>
  <g id="ods_08" transform="translate(0 38.269)">
    <path id="Caminho_3656" data-name="Caminho 3656" d="M0,0H38.268V-38.269H0Z" fill="#a3183c"/>
    <g id="Grupo_2140" data-name="Grupo 2140" clip-path="url(#clip-path)">
      <g id="Grupo_2135" data-name="Grupo 2135" transform="translate(26.952 -19.013)">
        <path id="Caminho_3657" data-name="Caminho 3657" d="M0,0-4.092,3.893a.677.677,0,0,0-.234.585V15.389a.233.233,0,0,0,.234.233H.135a.233.233,0,0,0,.233-.233V.1C.368-.031.267-.266,0,0" fill="#fff"/>
      </g>
      <g id="Grupo_2136" data-name="Grupo 2136" transform="translate(15.161 -13.941)">
        <path id="Caminho_3658" data-name="Caminho 3658" d="M0,0-4.093,3.893a.677.677,0,0,0-.233.584v5.84a.232.232,0,0,0,.233.232H.135a.232.232,0,0,0,.233-.232V.1C.368-.031.266-.267,0,0" fill="#fff"/>
      </g>
      <g id="Grupo_2137" data-name="Grupo 2137" transform="translate(28.812 -23.735)">
        <path id="Caminho_3659" data-name="Caminho 3659" d="M0,0A.117.117,0,0,0-.035-.089.119.119,0,0,0-.11-.122l-.023,0H-.166L-3.3.589l-.057,0a.129.129,0,0,0-.061.032.119.119,0,0,0,0,.169l.035.035.716.716-7.1,7.1-3.279-3.28a.093.093,0,0,0-.134,0l-.89.89h0l-5.257,5.256a.1.1,0,0,0,0,.134l.891.89a.094.094,0,0,0,.133,0l5.192-5.19,2.38,2.38a.026.026,0,0,0,.007.011l.89.889a.093.093,0,0,0,.134,0L-1.643,2.57l.751.75a.118.118,0,0,0,.168,0,.113.113,0,0,0,.033-.077v-.01L0,.034Z" fill="#fff"/>
      </g>
      <g id="Grupo_2138" data-name="Grupo 2138" transform="translate(21.08 -13.258)">
        <path id="Caminho_3660" data-name="Caminho 3660" d="M0,0-1.98,2a.1.1,0,0,1-.128,0L-3.9.163C-4.23-.164-4.3.1-4.3.23v9.4a.232.232,0,0,0,.232.233H.16a.234.234,0,0,0,.232-.233V.074C.392-.055.291-.291,0,0" fill="#fff"/>
      </g>
      <g id="Grupo_2139" data-name="Grupo 2139" transform="translate(7.706 -25.993)">
        <path id="Caminho_3661" data-name="Caminho 3661" d="M0,0A2.986,2.986,0,0,0,2.281-.742a3.141,3.141,0,0,0,.684-2.2V-6.248a3.1,3.1,0,0,0-.684-2.178A3,3,0,0,0,0-9.163a2.973,2.973,0,0,0-2.263.732A3.108,3.108,0,0,0-2.94-6.248v3.311a3.154,3.154,0,0,0,.677,2.2A2.947,2.947,0,0,0,0,0M0-1.4a.588.588,0,0,1-.593-.28,1.808,1.808,0,0,1-.133-.765v-4.29A1.673,1.673,0,0,1-.581-7.5.592.592,0,0,1,0-7.777.621.621,0,0,1,.605-7.5a1.669,1.669,0,0,1,.145.77v4.29a1.678,1.678,0,0,1-.145.765A.616.616,0,0,1,0-1.4M4.283-.132H6.788a5.224,5.224,0,0,0,1.966-.3,1.86,1.86,0,0,0,1.005-.913,3.857,3.857,0,0,0,.3-1.65V-6.226a3.784,3.784,0,0,0-.3-1.633,1.822,1.822,0,0,0-1.011-.9,5.492,5.492,0,0,0-1.984-.286H4.283ZM6.449-1.5V-7.667h.327a1.666,1.666,0,0,1,.7.11.528.528,0,0,1,.29.336,2.455,2.455,0,0,1,.067.654v3.883a3.038,3.038,0,0,1-.061.7.568.568,0,0,1-.284.363,1.474,1.474,0,0,1-.7.126ZM13.975,0a2.914,2.914,0,0,0,1.344-.3,2.24,2.24,0,0,0,.9-.808,2.1,2.1,0,0,0,.321-1.139,2.7,2.7,0,0,0-.4-1.485,4.754,4.754,0,0,0-1.125-1.188L14.2-5.566a3.959,3.959,0,0,1-.72-.7,1.256,1.256,0,0,1-.223-.759.808.808,0,0,1,.151-.478.5.5,0,0,1,.429-.215.478.478,0,0,1,.5.3,3.411,3.411,0,0,1,.14,1l1.863-.209a3.322,3.322,0,0,0-.538-1.793,2.14,2.14,0,0,0-1.894-.737,3.074,3.074,0,0,0-2.015.605,2.113,2.113,0,0,0-.732,1.727,2.365,2.365,0,0,0,.345,1.293,4.078,4.078,0,0,0,.974,1.028l.847.671a3.891,3.891,0,0,1,.817.8,1.523,1.523,0,0,1,.26.891q0,.649-.544.649a.689.689,0,0,1-.636-.368,2.656,2.656,0,0,1-.224-1.216l-1.851.253a3.071,3.071,0,0,0,.732,2.151A2.86,2.86,0,0,0,13.975,0m9.136.011A2.633,2.633,0,0,0,25.156-.7,2.826,2.826,0,0,0,25.8-2.662a2.968,2.968,0,0,0-.284-1.325,1.7,1.7,0,0,0-.853-.831,1.856,1.856,0,0,0,.695-.786,2.852,2.852,0,0,0,.261-1.282,2.176,2.176,0,0,0-.648-1.672,2.621,2.621,0,0,0-1.857-.605,2.652,2.652,0,0,0-1.87.611,2.2,2.2,0,0,0-.659,1.7,2.565,2.565,0,0,0,.278,1.238,2.226,2.226,0,0,0,.7.8,1.713,1.713,0,0,0-.853.809,2.74,2.74,0,0,0-.284,1.27A2.976,2.976,0,0,0,21.06-.72a2.584,2.584,0,0,0,2.051.731m0-5.489q-.63,0-.629-1.342a1.317,1.317,0,0,1,.163-.709.519.519,0,0,1,.466-.259.5.5,0,0,1,.448.264,1.4,1.4,0,0,1,.157.715q0,1.331-.6,1.331m0,4.136a.535.535,0,0,1-.557-.374,2.77,2.77,0,0,1-.133-.924,3.084,3.084,0,0,1,.133-1.017.535.535,0,0,1,.557-.369.538.538,0,0,1,.55.33,2.371,2.371,0,0,1,.14.9,6.723,6.723,0,0,1-.031.7,1.179,1.179,0,0,1-.181.517.527.527,0,0,1-.478.236" fill="#fff"/>
      </g>
    </g>
  </g>
</svg>
