<svg xmlns="http://www.w3.org/2000/svg" xmlns:xlink="http://www.w3.org/1999/xlink" width="38.268" height="38.268" viewBox="0 0 38.268 38.268">
  <defs>
    <clipPath id="clip-path">
      <path id="Caminho_3615" data-name="Caminho 3615" d="M0,0H38.268V-38.268H0Z" fill="none"/>
    </clipPath>
  </defs>
  <g id="ods_02" transform="translate(0 38.268)">
    <path id="Caminho_3609" data-name="Caminho 3609" d="M0,0H38.268V-38.268H0Z" fill="#824b00"/>
    <g id="Grupo_2099" data-name="Grupo 2099" clip-path="url(#clip-path)">
      <g id="Grupo_2094" data-name="Grupo 2094" transform="translate(15.625 -4.04)">
        <path id="Caminho_3610" data-name="Caminho 3610" d="M0,0V.568A.059.059,0,0,0,0,.581.051.051,0,0,0,0,.594.266.266,0,0,0,.262.849l0,0,.007,0H6.937l.006,0,.006,0A.267.267,0,0,0,7.211.582h0V-.064A10.376,10.376,0,0,0,14.39-8.038c0-.009,0-.016,0-.022a.253.253,0,0,0,0-.038.268.268,0,0,0-.269-.269H-7.108a.27.27,0,0,0-.271.269l.015.121A10.408,10.408,0,0,0,0,0" fill="#fff"/>
      </g>
      <g id="Grupo_2095" data-name="Grupo 2095" transform="translate(22.83 -21.471)">
        <path id="Caminho_3611" data-name="Caminho 3611" d="M0,0C-.088.124-2.139,3.078.046,5.467A2.392,2.392,0,0,1,.675,8.184h1.4a3.446,3.446,0,0,0-.971-3.418C-.5,3.006,1.126.627,1.15.59A.525.525,0,0,0,.923-.194.745.745,0,0,0,0,0" fill="#fff"/>
      </g>
      <g id="Grupo_2096" data-name="Grupo 2096" transform="translate(19.28 -13.287)">
        <path id="Caminho_3612" data-name="Caminho 3612" d="M0,0H1.4A3.447,3.447,0,0,0,.43-3.418c-1.611-1.76.019-4.138.045-4.177a.525.525,0,0,0-.228-.783.744.744,0,0,0-.922.194c-.088.124-2.142,3.079.046,5.467A2.394,2.394,0,0,1,0,0" fill="#fff"/>
      </g>
      <g id="Grupo_2097" data-name="Grupo 2097" transform="translate(14.379 -21.471)">
        <path id="Caminho_3613" data-name="Caminho 3613" d="M0,0C-.089.124-2.14,3.078.045,5.467a2.391,2.391,0,0,1,.63,2.717h1.4A3.449,3.449,0,0,0,1.1,4.766C-.506,3.006,1.125.627,1.15.589A.525.525,0,0,0,.921-.194.741.741,0,0,0,0,0" fill="#fff"/>
      </g>
      <g id="Grupo_2098" data-name="Grupo 2098" transform="translate(7.681 -25.512)">
        <path id="Caminho_3614" data-name="Caminho 3614" d="M0,0A2.982,2.982,0,0,0,2.281-.743a3.138,3.138,0,0,0,.683-2.194V-6.248a3.1,3.1,0,0,0-.683-2.178A3,3,0,0,0,0-9.163a2.977,2.977,0,0,0-2.263.731A3.112,3.112,0,0,0-2.94-6.248v3.311A3.152,3.152,0,0,0-2.263-.743,2.943,2.943,0,0,0,0,0M0-1.4c-.307,0-.5-.093-.593-.281a1.8,1.8,0,0,1-.133-.764v-4.29A1.681,1.681,0,0,1-.581-7.5.592.592,0,0,1,0-7.777.621.621,0,0,1,.605-7.5a1.669,1.669,0,0,1,.145.77v4.29a1.673,1.673,0,0,1-.145.764A.615.615,0,0,1,0-1.4M4.283-.132H6.788a5.224,5.224,0,0,0,1.966-.3,1.86,1.86,0,0,0,1.005-.913,3.857,3.857,0,0,0,.3-1.65V-6.226a3.784,3.784,0,0,0-.3-1.633,1.822,1.822,0,0,0-1.011-.9,5.492,5.492,0,0,0-1.984-.286H4.283ZM6.449-1.5V-7.667h.327a1.666,1.666,0,0,1,.7.11.528.528,0,0,1,.29.336,2.455,2.455,0,0,1,.067.654v3.883a3.022,3.022,0,0,1-.061.7.567.567,0,0,1-.284.364,1.474,1.474,0,0,1-.7.126ZM13.975,0a2.914,2.914,0,0,0,1.344-.3,2.24,2.24,0,0,0,.9-.808,2.1,2.1,0,0,0,.321-1.139,2.7,2.7,0,0,0-.4-1.485,4.754,4.754,0,0,0-1.125-1.188L14.2-5.566a3.959,3.959,0,0,1-.72-.7,1.256,1.256,0,0,1-.223-.759.811.811,0,0,1,.151-.479.5.5,0,0,1,.429-.214.478.478,0,0,1,.5.3,3.411,3.411,0,0,1,.14,1l1.863-.209a3.322,3.322,0,0,0-.538-1.793,2.14,2.14,0,0,0-1.894-.737,3.074,3.074,0,0,0-2.015.605,2.113,2.113,0,0,0-.732,1.727,2.367,2.367,0,0,0,.345,1.293,4.1,4.1,0,0,0,.974,1.028l.847.671a3.891,3.891,0,0,1,.817.8,1.523,1.523,0,0,1,.26.891q0,.649-.544.649a.688.688,0,0,1-.636-.369,2.649,2.649,0,0,1-.224-1.215l-1.851.253a3.073,3.073,0,0,0,.732,2.151A2.86,2.86,0,0,0,13.975,0m6.486-.132h5.118V-1.573H22.712L24.5-4q.508-.671.751-1.034a4.23,4.23,0,0,0,.417-.814,2.618,2.618,0,0,0,.175-.957,2.222,2.222,0,0,0-.683-1.738,2.861,2.861,0,0,0-1.979-.616,2.652,2.652,0,0,0-2.075.748,2.888,2.888,0,0,0-.671,2v.473H22.4v-.44a1.854,1.854,0,0,1,.181-.9A.672.672,0,0,1,23.22-7.6a.579.579,0,0,1,.466.192.863.863,0,0,1,.163.567,1.918,1.918,0,0,1-.218.886,8.332,8.332,0,0,1-.677,1.05l-.146.2L20.461-1.43Z" fill="#fff"/>
      </g>
    </g>
  </g>
</svg>
