<svg xmlns="http://www.w3.org/2000/svg" xmlns:xlink="http://www.w3.org/1999/xlink" width="38.268" height="38.27" viewBox="0 0 38.268 38.27">
  <defs>
    <clipPath id="clip-path">
      <path id="Caminho_3698" data-name="Caminho 3698" d="M0,0H38.268V-38.27H0Z" fill="none"/>
    </clipPath>
  </defs>
  <g id="ods_14" transform="translate(0 38.27)">
    <path id="Caminho_3693" data-name="Caminho 3693" d="M0,0H38.268V-38.27H0Z" fill="#115880"/>
    <g id="Grupo_2168" data-name="Grupo 2168" clip-path="url(#clip-path)">
      <g id="Grupo_2164" data-name="Grupo 2164" transform="translate(30.6 -7.739)">
        <path id="Caminho_3694" data-name="Caminho 3694" d="M0,0C-.535-.723-3.993-5.132-8.841-5.132c-4.209,0-8.712,3.818-8.712,3.818s-1.692-3.462-5.152-3.8c-.021,0-.042,0-.065,0h-.022a.141.141,0,0,0-.132.137.392.392,0,0,0,.054.126A10.59,10.59,0,0,1-21.285.1a10.625,10.625,0,0,1-1.587,4.961l-.03.047a.137.137,0,0,0-.022.073.137.137,0,0,0,.128.136l.037,0a.158.158,0,0,0,.037,0c3.471-.323,5.169-3.8,5.169-3.8s4.5,3.818,8.712,3.818C-3.993,5.335-.535.927,0,.2L.037.155A.147.147,0,0,0,.049.1.147.147,0,0,0,.037.049C.027.035.015.018,0,0M-6.145.659A1.415,1.415,0,0,1-7.56-.756,1.414,1.414,0,0,1-6.145-2.17,1.414,1.414,0,0,1-4.729-.756,1.415,1.415,0,0,1-6.145.659" fill="#fff"/>
      </g>
      <g id="Grupo_2165" data-name="Grupo 2165" transform="translate(7.785 -21.156)">
        <path id="Caminho_3695" data-name="Caminho 3695" d="M0,0A.168.168,0,0,0-.027-.006a.14.14,0,0,0-.139.14V1.1a.136.136,0,0,0,.041.1c2.34,2.034,4.556.128,5.068-.375A.137.137,0,0,1,5.057.76.137.137,0,0,1,5.151.8.019.019,0,0,0,5.158.8c2.643,2.523,5.414.479,5.991,0l.057-.052a.117.117,0,0,1,.053-.01.125.125,0,0,1,.055.01L11.371.8c.576.479,3.348,2.523,5.991,0L17.367.8A.137.137,0,0,1,17.461.76a.133.133,0,0,1,.076.025.145.145,0,0,1,.039.039c.513.5,2.726,2.409,5.068.375a.136.136,0,0,0,.04-.1V.134a.137.137,0,0,0-.137-.14.177.177,0,0,0-.03.006c-.022.012-.044.024-.07.036a4.258,4.258,0,0,1-4.978-.7C17.45-.68,17.43-.7,17.41-.719a.138.138,0,0,0-.059-.013.194.194,0,0,0-.042.007.149.149,0,0,0-.07.055c-.6.46-3.376,2.336-5.844.034l-.036-.035a.154.154,0,0,0-.1-.042.147.147,0,0,0-.1.042l-.038.035C8.657,1.666,5.882-.21,5.279-.67A.147.147,0,0,0,5.21-.725a.2.2,0,0,0-.044-.007.152.152,0,0,0-.058.013.516.516,0,0,1-.059.056,4.258,4.258,0,0,1-4.978.7L0,0" fill="#fff"/>
      </g>
      <g id="Grupo_2166" data-name="Grupo 2166" transform="translate(12.728 -16.822)">
        <path id="Caminho_3696" data-name="Caminho 3696" d="M0,0A.122.122,0,0,1,.037-.038.14.14,0,0,1,.113-.065a.136.136,0,0,1,.1.039A.012.012,0,0,0,.214-.02C2.857,2.5,5.629.457,6.206-.02l.056-.054a.155.155,0,0,1,.053-.009.169.169,0,0,1,.056.009l.056.054C7,.457,9.775,2.5,12.419-.02c0,0,0,0,0-.006a.134.134,0,0,1,.094-.039.132.132,0,0,1,.076.027.132.132,0,0,1,.04.038c.512.5,2.725,2.409,5.068.374a.137.137,0,0,0,.041-.1V-.691A.138.138,0,0,0,17.6-.829a.159.159,0,0,0-.03.006l-.07.035a4.263,4.263,0,0,1-4.978-.7l-.059-.056a.11.11,0,0,0-.059-.014.087.087,0,0,0-.042.01.118.118,0,0,0-.07.053c-.6.459-3.376,2.336-5.845.033L6.415-1.5a.141.141,0,0,0-.1-.039.139.139,0,0,0-.1.039L6.18-1.46C3.713.843.939-1.034.336-1.493a.122.122,0,0,0-.069-.053.1.1,0,0,0-.044-.01.111.111,0,0,0-.058.014C.146-1.523.126-1.5.1-1.486a4.261,4.261,0,0,1-4.977.7l-.071-.035A.168.168,0,0,0-4.97-.829a.138.138,0,0,0-.139.138V.277a.133.133,0,0,0,.04.1C-2.728,2.409-.512.5,0,0" fill="#fff"/>
      </g>
      <g id="Grupo_2167" data-name="Grupo 2167" transform="translate(5.213 -25.799)">
        <path id="Caminho_3697" data-name="Caminho 3697" d="M0,0A2.986,2.986,0,0,0,2.281-.742a3.141,3.141,0,0,0,.684-2.2V-6.248a3.1,3.1,0,0,0-.684-2.178A3,3,0,0,0,0-9.163a2.973,2.973,0,0,0-2.263.732A3.108,3.108,0,0,0-2.94-6.248v3.311a3.154,3.154,0,0,0,.677,2.2A2.947,2.947,0,0,0,0,0M0-1.4a.588.588,0,0,1-.593-.28,1.808,1.808,0,0,1-.133-.765v-4.29A1.673,1.673,0,0,1-.581-7.5.592.592,0,0,1,0-7.777.621.621,0,0,1,.605-7.5a1.669,1.669,0,0,1,.145.77v4.29a1.678,1.678,0,0,1-.145.765A.616.616,0,0,1,0-1.4M4.283-.132H6.788a5.224,5.224,0,0,0,1.966-.3,1.86,1.86,0,0,0,1.005-.913,3.857,3.857,0,0,0,.3-1.65V-6.226a3.784,3.784,0,0,0-.3-1.633,1.822,1.822,0,0,0-1.011-.9,5.492,5.492,0,0,0-1.984-.286H4.283ZM6.449-1.5V-7.667h.327a1.666,1.666,0,0,1,.7.11.528.528,0,0,1,.29.336,2.455,2.455,0,0,1,.067.654v3.883a3.038,3.038,0,0,1-.061.7.568.568,0,0,1-.284.363,1.474,1.474,0,0,1-.7.126ZM13.975,0a2.914,2.914,0,0,0,1.344-.3,2.24,2.24,0,0,0,.9-.808,2.1,2.1,0,0,0,.321-1.139,2.7,2.7,0,0,0-.4-1.485,4.754,4.754,0,0,0-1.125-1.188L14.2-5.566a3.959,3.959,0,0,1-.72-.7,1.256,1.256,0,0,1-.223-.759.808.808,0,0,1,.151-.478.5.5,0,0,1,.429-.215.478.478,0,0,1,.5.3,3.411,3.411,0,0,1,.14,1l1.863-.209a3.322,3.322,0,0,0-.538-1.793,2.14,2.14,0,0,0-1.894-.737,3.074,3.074,0,0,0-2.015.605,2.113,2.113,0,0,0-.732,1.727,2.365,2.365,0,0,0,.345,1.293,4.078,4.078,0,0,0,.974,1.028l.847.671a3.891,3.891,0,0,1,.817.8,1.523,1.523,0,0,1,.26.891q0,.649-.544.649a.689.689,0,0,1-.636-.368,2.656,2.656,0,0,1-.224-1.216l-1.851.253a3.071,3.071,0,0,0,.732,2.151A2.86,2.86,0,0,0,13.975,0m7.6-.132h2.021v-8.91H22.01a8.706,8.706,0,0,1-1.779.99v1.364a3.665,3.665,0,0,1,.339-.143c.137-.051.238-.088.3-.11q.568-.22.7-.286Zm6.413,0h1.888v-2h.907V-3.5h-.907V-9.042H27.527L24.974-3.487v1.353h3.013ZM26.511-3.5,27.987-7.2V-3.5Z" fill="#fff"/>
      </g>
    </g>
  </g>
</svg>
