<svg xmlns="http://www.w3.org/2000/svg" xmlns:xlink="http://www.w3.org/1999/xlink" width="38.268" height="38.27" viewBox="0 0 38.268 38.27">
  <defs>
    <clipPath id="clip-path">
      <path id="Caminho_3688" data-name="Caminho 3688" d="M0,0H38.268V-38.27H0Z" fill="none"/>
    </clipPath>
  </defs>
  <g id="ods_12" transform="translate(0 38.27)">
    <path id="Caminho_3685" data-name="Caminho 3685" d="M0,0H38.268V-38.27H0Z" fill="#603900"/>
    <g id="Grupo_2160" data-name="Grupo 2160" clip-path="url(#clip-path)">
      <g id="Grupo_2158" data-name="Grupo 2158" transform="translate(30.978 -17.358)">
        <path id="Caminho_3686" data-name="Caminho 3686" d="M0,0A7.685,7.685,0,0,0-4.627-1.517a5.1,5.1,0,0,0-1.117.107l-.114.027a8.317,8.317,0,0,0-5.076,3.349L-11,2.044a.279.279,0,0,0-.053.161.291.291,0,0,0,.037.141l.049.079q.529.887.88,1.54a.283.283,0,0,0,.458.064c.014-.02.03-.041.04-.057,1.848-2.556,3.3-2.9,4.255-3.122l.119-.028a2.769,2.769,0,0,1,.587-.05A5.436,5.436,0,0,1-1.422,1.8,4.837,4.837,0,0,1,.2,5.829c0,3.058-1.479,4.251-2.721,4.713a4.315,4.315,0,0,1-1.517.267,5.385,5.385,0,0,1-2.275-.519l-.089-.043c-1.068-.464-2.662-1.43-4.169-4.456-3.09-6.206-5.685-6.794-7.4-7.183l-.09-.02a5.134,5.134,0,0,0-1.107-.1,7.372,7.372,0,0,0-4.55,1.506A7.025,7.025,0,0,0-26.18,5.817,6.839,6.839,0,0,0-24.752,10.4a6.84,6.84,0,0,0,5.422,2.576,8.363,8.363,0,0,0,1.569-.154A6.678,6.678,0,0,0-15.083,11.6l.9.815a.269.269,0,0,0,.367-.017.238.238,0,0,0,.065-.171l.7-4.307v-.05a.251.251,0,0,0-.084-.188.251.251,0,0,0-.181-.066h0l-4.192,1.159-.08.013a.24.24,0,0,0-.133.077.256.256,0,0,0-.068.19.255.255,0,0,0,.086.179l.868.785a4.1,4.1,0,0,1-1.357.552,5.965,5.965,0,0,1-1.112.109A4.538,4.538,0,0,1-22.9,9.053l-.023-.033a4.608,4.608,0,0,1-.967-3.2,4.873,4.873,0,0,1,1.592-4.031A5.27,5.27,0,0,1-19.169.775a2.912,2.912,0,0,1,.594.05l.093.021c1.372.31,3.25.735,5.855,5.967a10.936,10.936,0,0,0,5.268,5.521,7.773,7.773,0,0,0,3.321.77,6.635,6.635,0,0,0,2.317-.411C-.454,12.22,2.492,10.6,2.492,5.829A7.008,7.008,0,0,0,0,0" fill="#fff"/>
      </g>
      <g id="Grupo_2159" data-name="Grupo 2159" transform="translate(5.328 -25.799)">
        <path id="Caminho_3687" data-name="Caminho 3687" d="M0,0A2.986,2.986,0,0,0,2.281-.742a3.141,3.141,0,0,0,.683-2.2V-6.248a3.1,3.1,0,0,0-.683-2.178A3,3,0,0,0,0-9.163a2.973,2.973,0,0,0-2.263.732A3.108,3.108,0,0,0-2.94-6.248v3.311a3.154,3.154,0,0,0,.677,2.2A2.947,2.947,0,0,0,0,0M0-1.4a.588.588,0,0,1-.593-.28,1.808,1.808,0,0,1-.133-.765v-4.29A1.673,1.673,0,0,1-.581-7.5.592.592,0,0,1,0-7.777.621.621,0,0,1,.605-7.5a1.669,1.669,0,0,1,.145.77v4.29a1.678,1.678,0,0,1-.145.765A.616.616,0,0,1,0-1.4M4.283-.132H6.788a5.224,5.224,0,0,0,1.966-.3,1.86,1.86,0,0,0,1.005-.913,3.857,3.857,0,0,0,.3-1.65V-6.226a3.784,3.784,0,0,0-.3-1.633,1.822,1.822,0,0,0-1.011-.9,5.492,5.492,0,0,0-1.984-.286H4.283ZM6.449-1.5V-7.667h.327a1.666,1.666,0,0,1,.7.11.528.528,0,0,1,.29.336,2.455,2.455,0,0,1,.067.654v3.883a3.038,3.038,0,0,1-.061.7.568.568,0,0,1-.284.363,1.474,1.474,0,0,1-.7.126ZM13.975,0a2.914,2.914,0,0,0,1.344-.3,2.24,2.24,0,0,0,.9-.808,2.1,2.1,0,0,0,.321-1.139,2.7,2.7,0,0,0-.4-1.485,4.754,4.754,0,0,0-1.125-1.188L14.2-5.566a3.959,3.959,0,0,1-.72-.7,1.256,1.256,0,0,1-.223-.759.808.808,0,0,1,.151-.478.5.5,0,0,1,.429-.215.478.478,0,0,1,.5.3,3.411,3.411,0,0,1,.14,1l1.863-.209a3.322,3.322,0,0,0-.538-1.793,2.14,2.14,0,0,0-1.894-.737,3.074,3.074,0,0,0-2.015.605,2.113,2.113,0,0,0-.732,1.727,2.365,2.365,0,0,0,.345,1.293,4.078,4.078,0,0,0,.974,1.028l.847.671a3.891,3.891,0,0,1,.817.8,1.523,1.523,0,0,1,.26.891q0,.649-.544.649a.689.689,0,0,1-.636-.368,2.656,2.656,0,0,1-.224-1.216l-1.851.253a3.071,3.071,0,0,0,.732,2.151A2.86,2.86,0,0,0,13.975,0m7.6-.132h2.021v-8.91H22.01a8.706,8.706,0,0,1-1.779.99v1.364a3.665,3.665,0,0,1,.339-.143c.137-.051.238-.088.3-.11q.568-.22.7-.286Zm3.594,0h5.118V-1.573H27.418L29.209-4q.509-.671.75-1.034a4.177,4.177,0,0,0,.418-.814,2.618,2.618,0,0,0,.175-.957,2.222,2.222,0,0,0-.683-1.738,2.861,2.861,0,0,0-1.979-.616,2.651,2.651,0,0,0-2.075.748,2.883,2.883,0,0,0-.671,2v.473H27.1v-.44a1.847,1.847,0,0,1,.181-.9.671.671,0,0,1,.641-.325.575.575,0,0,1,.466.193.853.853,0,0,1,.164.566,1.918,1.918,0,0,1-.218.886,8.245,8.245,0,0,1-.678,1.05l-.145.2L25.168-1.43Z" fill="#fff"/>
      </g>
    </g>
  </g>
</svg>
