<svg xmlns="http://www.w3.org/2000/svg" xmlns:xlink="http://www.w3.org/1999/xlink" width="38.268" height="38.269" viewBox="0 0 38.268 38.269">
  <defs>
    <clipPath id="clip-path">
      <path id="Caminho_3684" data-name="Caminho 3684" d="M0,0H38.268V-38.269H0Z" fill="none"/>
    </clipPath>
  </defs>
  <g id="ods_11" transform="translate(0 38.269)">
    <path id="Caminho_3676" data-name="Caminho 3676" d="M0,0H38.268V-38.269H0Z" fill="#af4616"/>
    <g id="Grupo_2157" data-name="Grupo 2157" clip-path="url(#clip-path)">
      <g id="Grupo_2150" data-name="Grupo 2150" transform="translate(5.6 -7.966)">
        <path id="Caminho_3677" data-name="Caminho 3677" d="M0,0H6.076a.15.15,0,0,0,.149-.15.144.144,0,0,0-.039-.1L6.178-.257,3.154-4.169,3.125-4.2a.147.147,0,0,0-.11-.049.153.153,0,0,0-.1.039L2.9-4.19l-.028.032L-.078-.288l-.046.055A.15.15,0,0,0-.149-.15.15.15,0,0,0,0,0" fill="#fff"/>
      </g>
      <g id="Grupo_2151" data-name="Grupo 2151" transform="translate(11.658 -7.415)">
        <path id="Caminho_3678" data-name="Caminho 3678" d="M0,0H-6.088a.149.149,0,0,0-.149.149V4.913a.149.149,0,0,0,.149.15h1.959v-3a.149.149,0,0,1,.149-.149h1.819a.148.148,0,0,1,.149.149v3H0a.15.15,0,0,0,.149-.15V.149A.149.149,0,0,0,0,0" fill="#fff"/>
      </g>
      <g id="Grupo_2152" data-name="Grupo 2152" transform="translate(32.7 -8.662)">
        <path id="Caminho_3679" data-name="Caminho 3679" d="M0,0H-6.026a.145.145,0,0,0-.147.143V6.228a.145.145,0,0,0,.147.143H0a.145.145,0,0,0,.148-.143V.143A.145.145,0,0,0,0,0M-3.3,3.972a.146.146,0,0,1-.147.145h-1.8a.146.146,0,0,1-.148-.145V2.878a.145.145,0,0,1,.148-.143h1.8a.145.145,0,0,1,.147.143Zm0-2.022a.145.145,0,0,1-.147.144h-1.8a.146.146,0,0,1-.148-.144V.856A.146.146,0,0,1-5.244.712h1.8A.146.146,0,0,1-3.3.856ZM-.546,3.972a.146.146,0,0,1-.147.145h-1.8a.146.146,0,0,1-.148-.145V2.878a.145.145,0,0,1,.148-.143h1.8a.145.145,0,0,1,.147.143Zm0-2.022a.145.145,0,0,1-.147.144h-1.8a.146.146,0,0,1-.148-.144V.856A.146.146,0,0,1-2.493.712h1.8A.145.145,0,0,1-.546.856Z" fill="#fff"/>
      </g>
      <g id="Grupo_2153" data-name="Grupo 2153" transform="translate(18.692 -22.786)">
        <path id="Caminho_3680" data-name="Caminho 3680" d="M0,0H-5.9a.144.144,0,0,0-.144.145V20.3a.145.145,0,0,0,.144.144H0A.146.146,0,0,0,.145,20.3V.145A.145.145,0,0,0,0,0M-3.508,18.146a.078.078,0,0,1-.077.078H-4.936a.078.078,0,0,1-.077-.078v-1.5a.077.077,0,0,1,.077-.076h1.351a.077.077,0,0,1,.077.076Zm0-3.456a.077.077,0,0,1-.077.078H-4.936a.077.077,0,0,1-.077-.078v-1.5a.077.077,0,0,1,.077-.077h1.351a.077.077,0,0,1,.077.077Zm0-3.455a.078.078,0,0,1-.077.078H-4.936a.078.078,0,0,1-.077-.078V9.73a.077.077,0,0,1,.077-.077h1.351a.077.077,0,0,1,.077.077Zm0-3.455a.078.078,0,0,1-.077.077H-4.936a.078.078,0,0,1-.077-.077V6.274A.077.077,0,0,1-4.936,6.2h1.351a.077.077,0,0,1,.077.076Zm0-3.456a.078.078,0,0,1-.077.078H-4.936a.078.078,0,0,1-.077-.078V2.82a.077.077,0,0,1,.077-.078h1.351a.077.077,0,0,1,.077.078ZM-.86,18.146a.078.078,0,0,1-.078.078h-1.35a.077.077,0,0,1-.077-.078v-1.5a.076.076,0,0,1,.077-.076h1.35a.077.077,0,0,1,.078.076Zm0-3.456a.077.077,0,0,1-.078.078h-1.35a.077.077,0,0,1-.077-.078v-1.5a.076.076,0,0,1,.077-.077h1.35a.077.077,0,0,1,.078.077Zm0-3.455a.078.078,0,0,1-.078.078h-1.35a.077.077,0,0,1-.077-.078V9.73a.076.076,0,0,1,.077-.077h1.35A.077.077,0,0,1-.86,9.73Zm0-3.455a.078.078,0,0,1-.078.077h-1.35a.077.077,0,0,1-.077-.077V6.274A.076.076,0,0,1-2.288,6.2h1.35a.077.077,0,0,1,.078.076Zm0-3.456A.078.078,0,0,1-.938,4.4h-1.35a.077.077,0,0,1-.077-.078V2.82a.077.077,0,0,1,.077-.078h1.35A.077.077,0,0,1-.86,2.82Z" fill="#fff"/>
      </g>
      <g id="Grupo_2154" data-name="Grupo 2154" transform="translate(32.84 -9.274)">
        <path id="Caminho_3681" data-name="Caminho 3681" d="M0,0A.121.121,0,0,1-.121.122H-6.186A.121.121,0,0,1-6.307,0V-1.213a.121.121,0,0,1,.121-.121H-.121A.121.121,0,0,1,0-1.213Z" fill="#fff"/>
      </g>
      <g id="Grupo_2155" data-name="Grupo 2155" transform="translate(25.815 -18.98)">
        <path id="Caminho_3682" data-name="Caminho 3682" d="M0,0A.155.155,0,0,0-.148-.113a.151.151,0,0,0-.084.028.105.105,0,0,0-.011.007l-.05.063-5.8,7.352-.027.036a.167.167,0,0,0-.05.115v9.034a.144.144,0,0,0,.145.144H-.13a.143.143,0,0,0,.144-.144V.06A.147.147,0,0,0,0,0M-2.44,3.992l.041-.051c.4-.509,1.065-1.332,1.391-1.732l.043-.051A.168.168,0,0,1-.836,2.1a.166.166,0,0,1,.161.135v1.86a.166.166,0,0,1-.16.166H-2.313a.166.166,0,0,1-.16-.166.167.167,0,0,1,.033-.1m-.917,10.3a.143.143,0,0,1-.144.144H-5.259a.143.143,0,0,1-.144-.144v-1.1a.144.144,0,0,1,.144-.144H-3.5a.144.144,0,0,1,.144.144Zm0-2.032A.144.144,0,0,1-3.5,12.4H-5.259a.144.144,0,0,1-.144-.144v-1.1a.143.143,0,0,1,.144-.144H-3.5a.143.143,0,0,1,.144.144Zm0-2.033a.143.143,0,0,1-.144.143H-5.259a.143.143,0,0,1-.144-.143v-1.1a.143.143,0,0,1,.144-.144H-3.5a.143.143,0,0,1,.144.144Zm.005-4.455V8.193a.144.144,0,0,1-.144.144H-5.253A.144.144,0,0,1-5.4,8.193v-.3a.185.185,0,0,1,.011-.054l.009-.017c0-.007.009-.013.013-.019l.016-.024c.225-.321,1.239-1.57,1.665-2.092l.042-.052a.173.173,0,0,1,.13-.061.166.166,0,0,1,.161.135Zm2.681,8.52a.144.144,0,0,1-.144.144H-2.572a.144.144,0,0,1-.145-.144v-1.1a.145.145,0,0,1,.145-.144H-.815a.145.145,0,0,1,.144.144Zm0-2.032a.145.145,0,0,1-.144.144H-2.572a.145.145,0,0,1-.145-.144v-1.1a.144.144,0,0,1,.145-.144H-.815a.144.144,0,0,1,.144.144Zm0-2.033a.144.144,0,0,1-.144.143H-2.572a.144.144,0,0,1-.145-.143v-1.1a.144.144,0,0,1,.145-.144H-.815a.144.144,0,0,1,.144.144Zm0-2.033a.145.145,0,0,1-.144.144H-2.572a.145.145,0,0,1-.145-.144v-1.1a.144.144,0,0,1,.145-.144H-.815a.144.144,0,0,1,.144.144Zm0-2.033A.145.145,0,0,1-.815,6.3H-2.572a.145.145,0,0,1-.145-.144v-1.1a.144.144,0,0,1,.145-.144H-.815a.144.144,0,0,1,.144.144Z" fill="#fff"/>
      </g>
      <g id="Grupo_2156" data-name="Grupo 2156" transform="translate(6.453 -25.798)">
        <path id="Caminho_3683" data-name="Caminho 3683" d="M0,0A2.986,2.986,0,0,0,2.281-.742a3.141,3.141,0,0,0,.684-2.2V-6.248a3.1,3.1,0,0,0-.684-2.178A3,3,0,0,0,0-9.163a2.973,2.973,0,0,0-2.263.732A3.108,3.108,0,0,0-2.94-6.248v3.311a3.154,3.154,0,0,0,.677,2.2A2.947,2.947,0,0,0,0,0M0-1.4a.588.588,0,0,1-.593-.28,1.808,1.808,0,0,1-.133-.765v-4.29A1.673,1.673,0,0,1-.581-7.5.592.592,0,0,1,0-7.777.621.621,0,0,1,.605-7.5a1.669,1.669,0,0,1,.145.77v4.29a1.678,1.678,0,0,1-.145.765A.616.616,0,0,1,0-1.4M4.283-.132H6.788a5.224,5.224,0,0,0,1.966-.3,1.86,1.86,0,0,0,1.005-.913,3.857,3.857,0,0,0,.3-1.65V-6.226a3.784,3.784,0,0,0-.3-1.633,1.822,1.822,0,0,0-1.011-.9,5.492,5.492,0,0,0-1.984-.286H4.283ZM6.449-1.5V-7.667h.327a1.666,1.666,0,0,1,.7.11.528.528,0,0,1,.29.336,2.455,2.455,0,0,1,.067.654v3.883a3.038,3.038,0,0,1-.061.7.568.568,0,0,1-.284.363,1.474,1.474,0,0,1-.7.126ZM13.975,0a2.914,2.914,0,0,0,1.344-.3,2.24,2.24,0,0,0,.9-.808,2.1,2.1,0,0,0,.321-1.139,2.7,2.7,0,0,0-.4-1.485,4.754,4.754,0,0,0-1.125-1.188L14.2-5.566a3.959,3.959,0,0,1-.72-.7,1.256,1.256,0,0,1-.223-.759.808.808,0,0,1,.151-.478.5.5,0,0,1,.429-.215.48.48,0,0,1,.5.3,3.453,3.453,0,0,1,.139,1l1.863-.209a3.322,3.322,0,0,0-.538-1.793,2.14,2.14,0,0,0-1.894-.737,3.074,3.074,0,0,0-2.015.605,2.113,2.113,0,0,0-.732,1.727,2.365,2.365,0,0,0,.345,1.293,4.078,4.078,0,0,0,.974,1.028l.847.671a3.891,3.891,0,0,1,.817.8,1.523,1.523,0,0,1,.26.891q0,.649-.544.649a.689.689,0,0,1-.636-.368,2.656,2.656,0,0,1-.224-1.216l-1.851.253a3.071,3.071,0,0,0,.732,2.151A2.86,2.86,0,0,0,13.975,0m7.6-.132h2.021v-8.91H22.01a8.706,8.706,0,0,1-1.779.99v1.364a3.665,3.665,0,0,1,.339-.143c.137-.051.238-.088.3-.11q.568-.22.7-.286Zm4.707,0H28.3v-8.91H26.717a8.706,8.706,0,0,1-1.779.99v1.364a3.443,3.443,0,0,1,.339-.143c.137-.051.237-.088.3-.11q.568-.22.7-.286Z" fill="#fff"/>
      </g>
    </g>
  </g>
</svg>
