<svg xmlns="http://www.w3.org/2000/svg" xmlns:xlink="http://www.w3.org/1999/xlink" width="38.268" height="38.269" viewBox="0 0 38.268 38.269">
  <defs>
    <clipPath id="clip-path">
      <path id="Caminho_3666" data-name="Caminho 3666" d="M0,0H38.268V-38.269H0Z" fill="none"/>
    </clipPath>
  </defs>
  <g id="ods_09" transform="translate(0 38.269)">
    <path id="Caminho_3663" data-name="Caminho 3663" d="M0,0H38.268V-38.269H0Z" fill="#9e4014"/>
    <g id="Grupo_2143" data-name="Grupo 2143" clip-path="url(#clip-path)">
      <g id="Grupo_2141" data-name="Grupo 2141" transform="translate(29.25 -11.14)">
        <path id="Caminho_3664" data-name="Caminho 3664" d="M0,0-4.813-2.777V-8.334a.328.328,0,0,0-.164-.284l-4.975-2.873a.331.331,0,0,0-.328,0l-4.976,2.873a.328.328,0,0,0-.164.284v5.557L-20.232,0A.328.328,0,0,0-20.4.284V6.031a.328.328,0,0,0,.164.284l4.976,2.872a.331.331,0,0,0,.164.044.331.331,0,0,0,.164-.044l4.812-2.777L-5.3,9.187a.333.333,0,0,0,.164.044.318.318,0,0,0,.164-.044L0,6.315a.328.328,0,0,0,.164-.284V.284A.33.33,0,0,0,0,0M-10.445,5.462l-3.991-2.3L-10.445.853ZM-5.8-2.588l-3.991,2.3V-4.893Zm-4.648,2.3-3.99-2.3,3.99-2.305Zm.986.568,4.318-2.493L-.821.284l-4.32,2.5Zm3.99-3.44-3.99-2.305,3.99-2.3Zm-5.3-2.305-3.991,2.305V-7.765Zm-4.647,13.8-4.32-2.494V.853l4.32,2.494Zm.656,0V3.726l3.991,2.305ZM-.492,5.841-4.813,8.335V3.347L-.492.853Z" fill="#fff"/>
      </g>
      <g id="Grupo_2142" data-name="Grupo 2142" transform="translate(7.693 -25.981)">
        <path id="Caminho_3665" data-name="Caminho 3665" d="M0,0A2.986,2.986,0,0,0,2.281-.742a3.143,3.143,0,0,0,.683-2.2V-6.248a3.1,3.1,0,0,0-.683-2.178A3,3,0,0,0,0-9.163a2.977,2.977,0,0,0-2.263.731A3.112,3.112,0,0,0-2.94-6.248v3.311a3.156,3.156,0,0,0,.677,2.2A2.947,2.947,0,0,0,0,0M0-1.4a.588.588,0,0,1-.593-.28,1.812,1.812,0,0,1-.133-.765v-4.29A1.673,1.673,0,0,1-.581-7.5.59.59,0,0,1,0-7.777.621.621,0,0,1,.605-7.5a1.669,1.669,0,0,1,.145.77v4.29a1.681,1.681,0,0,1-.145.765A.616.616,0,0,1,0-1.4M4.283-.132H6.788a5.224,5.224,0,0,0,1.966-.3,1.86,1.86,0,0,0,1.005-.913,3.857,3.857,0,0,0,.3-1.65V-6.226a3.784,3.784,0,0,0-.3-1.633,1.822,1.822,0,0,0-1.011-.9,5.492,5.492,0,0,0-1.984-.286H4.283ZM6.449-1.5V-7.667h.327a1.666,1.666,0,0,1,.7.11.528.528,0,0,1,.29.336,2.455,2.455,0,0,1,.067.654v3.883a3.022,3.022,0,0,1-.061.7.567.567,0,0,1-.284.364,1.474,1.474,0,0,1-.7.126ZM13.975,0a2.914,2.914,0,0,0,1.344-.3,2.24,2.24,0,0,0,.9-.808,2.1,2.1,0,0,0,.321-1.139,2.7,2.7,0,0,0-.4-1.485,4.754,4.754,0,0,0-1.125-1.188L14.2-5.566a3.959,3.959,0,0,1-.72-.7,1.256,1.256,0,0,1-.223-.759.806.806,0,0,1,.151-.478.5.5,0,0,1,.429-.215.478.478,0,0,1,.5.3,3.411,3.411,0,0,1,.14,1l1.863-.209a3.322,3.322,0,0,0-.538-1.793,2.14,2.14,0,0,0-1.894-.737,3.074,3.074,0,0,0-2.015.605,2.113,2.113,0,0,0-.732,1.727,2.365,2.365,0,0,0,.345,1.293,4.078,4.078,0,0,0,.974,1.028l.847.671a3.891,3.891,0,0,1,.817.8,1.523,1.523,0,0,1,.26.891q0,.649-.544.649a.688.688,0,0,1-.636-.369,2.649,2.649,0,0,1-.224-1.215l-1.851.253a3.073,3.073,0,0,0,.732,2.151A2.86,2.86,0,0,0,13.975,0m9.148,0a2.482,2.482,0,0,0,2.105-.786,3.644,3.644,0,0,0,.593-2.228V-6.336a3.057,3.057,0,0,0-.653-2.085,2.592,2.592,0,0,0-2.045-.742,2.482,2.482,0,0,0-2.051.787,3.5,3.5,0,0,0-.635,2.249,3.386,3.386,0,0,0,.5,1.925,1.752,1.752,0,0,0,1.567.748,2.086,2.086,0,0,0,.762-.132,1.028,1.028,0,0,0,.5-.363v.792a9.177,9.177,0,0,1-.048,1.1,1.05,1.05,0,0,1-.176.517.494.494,0,0,1-.405.154.5.5,0,0,1-.5-.231,2.042,2.042,0,0,1-.115-.825H20.63V-2.3a2.371,2.371,0,0,0,.563,1.733A2.668,2.668,0,0,0,23.123,0m.024-4.862a.516.516,0,0,1-.435-.171.9.9,0,0,1-.17-.45,6.969,6.969,0,0,1-.036-.82,4.092,4.092,0,0,1,.115-1.161.477.477,0,0,1,.5-.346.5.5,0,0,1,.508.308,2.144,2.144,0,0,1,.133.836v1.452a.743.743,0,0,1-.617.352" fill="#fff"/>
      </g>
    </g>
  </g>
</svg>
