<svg xmlns="http://www.w3.org/2000/svg" xmlns:xlink="http://www.w3.org/1999/xlink" width="38.268" height="38.269" viewBox="0 0 38.268 38.269">
  <defs>
    <clipPath id="clip-path">
      <path id="Caminho_3620" data-name="Caminho 3620" d="M0,0H38.268V-38.269H0Z" fill="none"/>
    </clipPath>
  </defs>
  <g id="ods_03" transform="translate(0 38.269)">
    <path id="Caminho_3616" data-name="Caminho 3616" d="M0,0H38.268V-38.269H0Z" fill="#2a5e20"/>
    <g id="Grupo_2103" data-name="Grupo 2103" clip-path="url(#clip-path)">
      <g id="Grupo_2100" data-name="Grupo 2100" transform="translate(34.102 -12.951)">
        <path id="Caminho_3617" data-name="Caminho 3617" d="M0,0A2.1,2.1,0,0,0-2.027-2.275,3.142,3.142,0,0,0-3.774-1.2c-.4-.412-1.087-1.081-1.7-1.081A2.136,2.136,0,0,0-7.549,0,2.3,2.3,0,0,0-6.9,1.608l3.13,3.135L-.646,1.612l0,0A2.3,2.3,0,0,0,0,0" fill="#fff"/>
      </g>
      <g id="Grupo_2101" data-name="Grupo 2101" transform="translate(20.777 -3.089)">
        <path id="Caminho_3618" data-name="Caminho 3618" d="M0,0H-.032A.515.515,0,0,1-.507-.427L-2.1-9.686-4.5-5.221a.515.515,0,0,1-.543.262.513.513,0,0,1-.418-.433l-1.023-7.145-1.87,4.2a.516.516,0,0,1-.47.305H-16.1a.514.514,0,0,1-.514-.514.514.514,0,0,1,.514-.514h6.935L-6.7-14.585a.514.514,0,0,1,.54-.3.513.513,0,0,1,.438.436l1.054,7.368,2.375-4.4a.513.513,0,0,1,.536-.263.513.513,0,0,1,.423.42L.137-2.752,5.5-20.575a.512.512,0,0,1,.451-.364.516.516,0,0,1,.5.289L9.281-14.8a.514.514,0,0,1-.24.686.514.514,0,0,1-.686-.24L6.106-19.013.492-.366A.514.514,0,0,1,0,0" fill="#fff"/>
      </g>
      <g id="Grupo_2102" data-name="Grupo 2102" transform="translate(7.7 -25.546)">
        <path id="Caminho_3619" data-name="Caminho 3619" d="M0,0A2.986,2.986,0,0,0,2.281-.742a3.141,3.141,0,0,0,.683-2.2V-6.248a3.1,3.1,0,0,0-.683-2.178A3,3,0,0,0,0-9.163a2.973,2.973,0,0,0-2.263.732A3.108,3.108,0,0,0-2.94-6.248v3.311a3.154,3.154,0,0,0,.677,2.2A2.947,2.947,0,0,0,0,0M0-1.4a.588.588,0,0,1-.593-.28,1.808,1.808,0,0,1-.133-.765v-4.29A1.673,1.673,0,0,1-.581-7.5.592.592,0,0,1,0-7.777.621.621,0,0,1,.605-7.5a1.669,1.669,0,0,1,.145.77v4.29a1.678,1.678,0,0,1-.145.765A.616.616,0,0,1,0-1.4M4.283-.132H6.788a5.224,5.224,0,0,0,1.966-.3,1.86,1.86,0,0,0,1.005-.913,3.857,3.857,0,0,0,.3-1.65V-6.226a3.784,3.784,0,0,0-.3-1.633,1.822,1.822,0,0,0-1.011-.9,5.492,5.492,0,0,0-1.984-.286H4.283ZM6.449-1.5V-7.667h.327a1.666,1.666,0,0,1,.7.11.528.528,0,0,1,.29.336,2.455,2.455,0,0,1,.067.654v3.883a3.038,3.038,0,0,1-.061.7.568.568,0,0,1-.284.363,1.474,1.474,0,0,1-.7.126ZM13.975,0a2.914,2.914,0,0,0,1.344-.3,2.24,2.24,0,0,0,.9-.808,2.1,2.1,0,0,0,.321-1.139,2.7,2.7,0,0,0-.4-1.485,4.754,4.754,0,0,0-1.125-1.188L14.2-5.566a3.959,3.959,0,0,1-.72-.7,1.256,1.256,0,0,1-.223-.759.808.808,0,0,1,.151-.478.5.5,0,0,1,.429-.215.478.478,0,0,1,.5.3,3.411,3.411,0,0,1,.14,1l1.863-.209a3.322,3.322,0,0,0-.538-1.793,2.14,2.14,0,0,0-1.894-.737,3.074,3.074,0,0,0-2.015.605,2.113,2.113,0,0,0-.732,1.727,2.365,2.365,0,0,0,.345,1.293,4.078,4.078,0,0,0,.974,1.028l.847.671a3.891,3.891,0,0,1,.817.8,1.523,1.523,0,0,1,.26.891q0,.649-.544.649a.689.689,0,0,1-.636-.368,2.656,2.656,0,0,1-.224-1.216l-1.851.253a3.071,3.071,0,0,0,.732,2.151A2.86,2.86,0,0,0,13.975,0m9.148.033a2.565,2.565,0,0,0,2.045-.742,3.024,3.024,0,0,0,.641-2.041,2.506,2.506,0,0,0-.321-1.386,1.652,1.652,0,0,0-.877-.671,1.43,1.43,0,0,0,.859-.665,2.363,2.363,0,0,0,.339-1.293,2.239,2.239,0,0,0-.714-1.793,2.957,2.957,0,0,0-2-.616,2.818,2.818,0,0,0-1.967.644,2.365,2.365,0,0,0-.707,1.842v.539h2.02v-.462a1.911,1.911,0,0,1,.139-.819.523.523,0,0,1,.515-.281.593.593,0,0,1,.556.264,1.606,1.606,0,0,1,.158.8,1.7,1.7,0,0,1-.23,1.007,1.011,1.011,0,0,1-.847.3h-.327V-4.07h.375a.928.928,0,0,1,.811.336,1.887,1.887,0,0,1,.218,1.028,2.272,2.272,0,0,1-.133.913.523.523,0,0,1-.521.275A.579.579,0,0,1,22.6-1.8a2.185,2.185,0,0,1-.152-.963V-3.08h-2.02v.319a3.1,3.1,0,0,0,.617,2.068,2.6,2.6,0,0,0,2.081.726" fill="#fff"/>
      </g>
    </g>
  </g>
</svg>
