<svg xmlns="http://www.w3.org/2000/svg" xmlns:xlink="http://www.w3.org/1999/xlink" width="38.268" height="38.27" viewBox="0 0 38.268 38.27">
  <defs>
    <clipPath id="clip-path">
      <path id="Caminho_3725" data-name="Caminho 3725" d="M0,0H38.268V-38.27H0Z" fill="none"/>
    </clipPath>
  </defs>
  <g id="ods_17" transform="translate(0 38.27)">
    <path id="Caminho_3722" data-name="Caminho 3722" d="M0,0H38.268V-38.27H0Z" fill="#0f2133"/>
    <g id="Grupo_2192" data-name="Grupo 2192" clip-path="url(#clip-path)">
      <g id="Grupo_2190" data-name="Grupo 2190" transform="translate(29.162 -13.823)">
        <path id="Caminho_3723" data-name="Caminho 3723" d="M0,0A5.267,5.267,0,0,0-5.068-5.257a5.269,5.269,0,0,0-4.96-3.509,5.271,5.271,0,0,0-4.961,3.509A5.268,5.268,0,0,0-20.056,0a5.253,5.253,0,0,0,2.03,4.147,5.263,5.263,0,0,0-.207,1.461,5.267,5.267,0,0,0,5.261,5.26A5.231,5.231,0,0,0-10,9.947a5.235,5.235,0,0,0,2.919.886,5.267,5.267,0,0,0,5.261-5.26,5.241,5.241,0,0,0-.2-1.432A5.255,5.255,0,0,0,0,0M-5.826-3.505A4.2,4.2,0,0,1-9.409.646,4.309,4.309,0,0,1-9.463,0,4.2,4.2,0,0,1-5.881-4.151a4.16,4.16,0,0,1,.055.646M-10.009,8.582a4.186,4.186,0,0,1-1.277-3.009A4.19,4.19,0,0,1-10.047,2.6,4.187,4.187,0,0,1-8.771,5.608a4.182,4.182,0,0,1-1.238,2.974M-14.175-4.151A4.2,4.2,0,0,1-10.593,0a4.181,4.181,0,0,1-.055.646A4.2,4.2,0,0,1-14.23-3.505a4.16,4.16,0,0,1,.055-.646m3.133,6.03A4.2,4.2,0,0,1-14.8,4.2a4.17,4.17,0,0,1-1.93-.474,4.2,4.2,0,0,1,3.753-2.322,4.182,4.182,0,0,1,1.93.473m2.014-.028a4.174,4.174,0,0,1,1.944-.48,4.206,4.206,0,0,1,3.767,2.35A4.169,4.169,0,0,1-5.261,4.2,4.2,4.2,0,0,1-9.028,1.851m-1-9.558A4.2,4.2,0,0,1-6.177-5.18a5.275,5.275,0,0,0-3.851,2.956A5.275,5.275,0,0,0-13.88-5.18a4.206,4.206,0,0,1,3.852-2.527M-19,0a4.207,4.207,0,0,1,3.752-4.177,5.316,5.316,0,0,0-.044.672A5.247,5.247,0,0,0-13.571.381,5.273,5.273,0,0,0-17.6,3.115,4.185,4.185,0,0,1-19,0m1.823,5.608a4.165,4.165,0,0,1,.092-.871,5.222,5.222,0,0,0,2.287.524,5.235,5.235,0,0,0,2.541-.656,5.234,5.234,0,0,0-.091.968,5.243,5.243,0,0,0,1.487,3.659,4.172,4.172,0,0,1-2.114.577,4.207,4.207,0,0,1-4.2-4.2m14.292-.035a4.207,4.207,0,0,1-4.2,4.2,4.171,4.171,0,0,1-2.072-.551A5.243,5.243,0,0,0-7.711,5.608a5.3,5.3,0,0,0-.1-1.007,5.229,5.229,0,0,0,2.548.66,5.221,5.221,0,0,0,2.294-.528,4.155,4.155,0,0,1,.085.84M-6.453.35A5.245,5.245,0,0,0-4.767-3.505a5.316,5.316,0,0,0-.044-.672A4.207,4.207,0,0,1-1.059,0,4.185,4.185,0,0,1-2.44,3.1,5.276,5.276,0,0,0-6.453.35" fill="#fff"/>
      </g>
      <g id="Grupo_2191" data-name="Grupo 2191" transform="translate(5.824 -25.797)">
        <path id="Caminho_3724" data-name="Caminho 3724" d="M0,0A2.986,2.986,0,0,0,2.281-.742a3.141,3.141,0,0,0,.684-2.2V-6.248a3.1,3.1,0,0,0-.684-2.178A3,3,0,0,0,0-9.163a2.973,2.973,0,0,0-2.263.732A3.108,3.108,0,0,0-2.94-6.248v3.311a3.154,3.154,0,0,0,.677,2.2A2.947,2.947,0,0,0,0,0M0-1.4a.588.588,0,0,1-.593-.28,1.808,1.808,0,0,1-.133-.765v-4.29A1.673,1.673,0,0,1-.581-7.5.592.592,0,0,1,0-7.777.621.621,0,0,1,.605-7.5a1.669,1.669,0,0,1,.145.77v4.29a1.678,1.678,0,0,1-.145.765A.616.616,0,0,1,0-1.4M4.283-.132H6.788a5.224,5.224,0,0,0,1.966-.3,1.86,1.86,0,0,0,1.005-.913,3.857,3.857,0,0,0,.3-1.65V-6.226a3.784,3.784,0,0,0-.3-1.633,1.822,1.822,0,0,0-1.011-.9,5.492,5.492,0,0,0-1.984-.286H4.283ZM6.449-1.5V-7.667h.327a1.666,1.666,0,0,1,.7.11.528.528,0,0,1,.29.336,2.455,2.455,0,0,1,.067.654v3.883a3.038,3.038,0,0,1-.061.7.568.568,0,0,1-.284.363,1.474,1.474,0,0,1-.7.126ZM13.975,0a2.914,2.914,0,0,0,1.344-.3,2.24,2.24,0,0,0,.9-.808,2.1,2.1,0,0,0,.321-1.139,2.7,2.7,0,0,0-.4-1.485,4.754,4.754,0,0,0-1.125-1.188L14.2-5.566a3.959,3.959,0,0,1-.72-.7,1.256,1.256,0,0,1-.223-.759.808.808,0,0,1,.151-.478.5.5,0,0,1,.429-.215.48.48,0,0,1,.5.3,3.453,3.453,0,0,1,.139,1l1.863-.209a3.322,3.322,0,0,0-.538-1.793,2.14,2.14,0,0,0-1.894-.737,3.074,3.074,0,0,0-2.015.605,2.113,2.113,0,0,0-.732,1.727,2.365,2.365,0,0,0,.345,1.293,4.078,4.078,0,0,0,.974,1.028l.847.671a3.891,3.891,0,0,1,.817.8,1.523,1.523,0,0,1,.26.891q0,.649-.544.649a.689.689,0,0,1-.636-.368,2.656,2.656,0,0,1-.224-1.216l-1.851.253a3.071,3.071,0,0,0,.732,2.151A2.86,2.86,0,0,0,13.975,0m7.6-.132h2.021v-8.91H22.01a8.706,8.706,0,0,1-1.779.99v1.364a3.665,3.665,0,0,1,.339-.143c.137-.051.238-.088.3-.11q.568-.22.7-.286Zm3.884,0H27.43l2.13-7.645V-9.042H24.914v1.4h2.674Z" fill="#fff"/>
      </g>
    </g>
  </g>
</svg>
