<svg xmlns="http://www.w3.org/2000/svg" xmlns:xlink="http://www.w3.org/1999/xlink" width="38.268" height="38.27" viewBox="0 0 38.268 38.27">
  <defs>
    <clipPath id="clip-path">
      <path id="Caminho_3721" data-name="Caminho 3721" d="M0,0H38.268V-38.27H0Z" fill="none"/>
    </clipPath>
  </defs>
  <g id="ods_16" transform="translate(0 38.27)">
    <path id="Caminho_3709" data-name="Caminho 3709" d="M0,0H38.268V-38.27H0Z" fill="#004162"/>
    <g id="Grupo_2189" data-name="Grupo 2189" clip-path="url(#clip-path)">
      <g id="Grupo_2178" data-name="Grupo 2178" transform="translate(27.221 -24)">
        <path id="Caminho_3710" data-name="Caminho 3710" d="M0,0A1.72,1.72,0,0,0-.33,1.221a1.719,1.719,0,0,0,.823.961A1.722,1.722,0,0,0,.823.961,1.719,1.719,0,0,0,0,0" fill="#fff"/>
      </g>
      <g id="Grupo_2179" data-name="Grupo 2179" transform="translate(26.463 -20.469)">
        <path id="Caminho_3711" data-name="Caminho 3711" d="M0,0A1.722,1.722,0,0,0,.33-1.221a1.723,1.723,0,0,0-.823-.961A1.724,1.724,0,0,0-.824-.961,1.728,1.728,0,0,0,0,0" fill="#fff"/>
      </g>
      <g id="Grupo_2180" data-name="Grupo 2180" transform="translate(28.376 -21.132)">
        <path id="Caminho_3712" data-name="Caminho 3712" d="M0,0A1.53,1.53,0,0,0,1.051.446,1.6,1.6,0,0,0,2.026-.18,1.528,1.528,0,0,0,.975-.626,1.6,1.6,0,0,0,0,0" fill="#fff"/>
      </g>
      <g id="Grupo_2181" data-name="Grupo 2181" transform="translate(29.182 -23.78)">
        <path id="Caminho_3713" data-name="Caminho 3713" d="M0,0A1.846,1.846,0,0,0-.391,1.28,1.766,1.766,0,0,0,.868.888a1.852,1.852,0,0,0,.391-1.28A1.771,1.771,0,0,0,0,0" fill="#fff"/>
      </g>
      <g id="Grupo_2182" data-name="Grupo 2182" transform="translate(28.177 -19.294)">
        <path id="Caminho_3714" data-name="Caminho 3714" d="M0,0A1.6,1.6,0,0,0,1.082-.413a1.532,1.532,0,0,0-.937-.652A1.6,1.6,0,0,0-.938-.651,1.532,1.532,0,0,0,0,0" fill="#fff"/>
      </g>
      <g id="Grupo_2183" data-name="Grupo 2183" transform="translate(28.675 -9.601)">
        <path id="Caminho_3715" data-name="Caminho 3715" d="M0,0H-4.17a.59.59,0,0,0-.591.589.592.592,0,0,0,.591.591H0A.591.591,0,0,0,.59.589.589.589,0,0,0,0,0" fill="#fff"/>
      </g>
      <g id="Grupo_2184" data-name="Grupo 2184" transform="translate(28.675 -3.098)">
        <path id="Caminho_3716" data-name="Caminho 3716" d="M0,0H-4.17a.591.591,0,0,0-.591.59.591.591,0,0,0,.591.59H0A.59.59,0,0,0,.59.59.59.59,0,0,0,0,0" fill="#fff"/>
      </g>
      <g id="Grupo_2185" data-name="Grupo 2185" transform="translate(9.92 -11.033)">
        <path id="Caminho_3717" data-name="Caminho 3717" d="M0,0A2.52,2.52,0,0,0-.29-.074S-.183-.041,0,0" fill="#fff"/>
      </g>
      <g id="Grupo_2186" data-name="Grupo 2186" transform="translate(28.521 -8.009)">
        <path id="Caminho_3718" data-name="Caminho 3718" d="M0,0H-3.864A.336.336,0,0,0-4.2.336v1.17l-2.523.277L-10.408,1.7V-.552a10.185,10.185,0,0,0,1.466-.3A5.633,5.633,0,0,0-4.7-6.813c-.077-2.067.585-2.869,1.535-3.226a4.311,4.311,0,0,1,.787-.209,6.341,6.341,0,0,0,.341,1.8c.084,0,.168-.012.251-.021a5.979,5.979,0,0,1-.347-1.815,4.463,4.463,0,0,1,.841-.026,5.3,5.3,0,0,1-.8-.57A4,4,0,0,1-.747-13.073a7.233,7.233,0,0,0,.94-1.1l-.21-.136a6.936,6.936,0,0,1-.909,1.065A4.323,4.323,0,0,0-2.3-11.063a8.008,8.008,0,0,1-.608-.612c-.875-.981-2-.26-3.607,1.235s-3.627,1.546-5.6-.473a7.19,7.19,0,0,0-6.431-2.5c1.065.454,1.438,1.449,1.977,3.979.565,2.655,1.99,3.857,3.939,4.022-1.084.383-1.137.995-2.59,2a4.531,4.531,0,0,1-3.378.388c1.188.37,2.595,1.617,3.854,2.05a9.349,9.349,0,0,0,2.3.471V1.652l-6.6-.151v1.5l12.329-.282L-4.2,3V4.17a.336.336,0,0,0,.336.336H0A.336.336,0,0,0,.336,4.17V.336A.336.336,0,0,0,0,0M-11.842-.471c.275,0,.55,0,.827-.023V1.685l-.827-.019Z" fill="#fff"/>
      </g>
      <g id="Grupo_2187" data-name="Grupo 2187" transform="translate(9.108 -5.253)">
        <path id="Caminho_3719" data-name="Caminho 3719" d="M0,0A.538.538,0,0,1-.494.574h-.3A.539.539,0,0,1-1.285,0V-1.039a.538.538,0,0,1,.494-.574h.3A.538.538,0,0,1,0-1.039Z" fill="#fff"/>
      </g>
      <g id="Grupo_2188" data-name="Grupo 2188" transform="translate(5.261 -25.443)">
        <path id="Caminho_3720" data-name="Caminho 3720" d="M0,0A2.982,2.982,0,0,0,2.281-.743a3.138,3.138,0,0,0,.683-2.194V-6.248a3.1,3.1,0,0,0-.683-2.178A3,3,0,0,0,0-9.163a2.977,2.977,0,0,0-2.263.731A3.112,3.112,0,0,0-2.94-6.248v3.311A3.152,3.152,0,0,0-2.263-.743,2.943,2.943,0,0,0,0,0M0-1.4c-.307,0-.5-.093-.593-.281a1.8,1.8,0,0,1-.133-.764v-4.29A1.681,1.681,0,0,1-.581-7.5.592.592,0,0,1,0-7.777.621.621,0,0,1,.605-7.5a1.669,1.669,0,0,1,.145.77v4.29a1.673,1.673,0,0,1-.145.764A.615.615,0,0,1,0-1.4M4.283-.132H6.788a5.224,5.224,0,0,0,1.966-.3,1.86,1.86,0,0,0,1.005-.913,3.857,3.857,0,0,0,.3-1.65V-6.226a3.784,3.784,0,0,0-.3-1.633,1.822,1.822,0,0,0-1.011-.9,5.492,5.492,0,0,0-1.984-.286H4.283ZM6.449-1.5V-7.667h.327a1.666,1.666,0,0,1,.7.11.528.528,0,0,1,.29.336,2.455,2.455,0,0,1,.067.654v3.883a3.022,3.022,0,0,1-.061.7.567.567,0,0,1-.284.364,1.474,1.474,0,0,1-.7.126ZM13.975,0a2.914,2.914,0,0,0,1.344-.3,2.24,2.24,0,0,0,.9-.808,2.1,2.1,0,0,0,.321-1.139,2.7,2.7,0,0,0-.4-1.485,4.754,4.754,0,0,0-1.125-1.188L14.2-5.566a3.959,3.959,0,0,1-.72-.7,1.256,1.256,0,0,1-.223-.759.811.811,0,0,1,.151-.479.5.5,0,0,1,.429-.214.478.478,0,0,1,.5.3,3.411,3.411,0,0,1,.14,1l1.863-.209a3.322,3.322,0,0,0-.538-1.793,2.14,2.14,0,0,0-1.894-.737,3.074,3.074,0,0,0-2.015.605,2.113,2.113,0,0,0-.732,1.727,2.367,2.367,0,0,0,.345,1.293,4.1,4.1,0,0,0,.974,1.028l.847.671a3.891,3.891,0,0,1,.817.8,1.523,1.523,0,0,1,.26.891q0,.649-.544.649a.688.688,0,0,1-.636-.369,2.649,2.649,0,0,1-.224-1.215l-1.851.253a3.073,3.073,0,0,0,.732,2.151A2.86,2.86,0,0,0,13.975,0m7.6-.132h2.021v-8.91H22.01a8.706,8.706,0,0,1-1.779.99v1.364a3.665,3.665,0,0,1,.339-.143c.137-.051.238-.088.3-.11q.568-.22.7-.286ZM28.011,0A2.412,2.412,0,0,0,30.08-.814a3.854,3.854,0,0,0,.6-2.332,3.161,3.161,0,0,0-.5-1.859,1.778,1.778,0,0,0-1.561-.7,2.121,2.121,0,0,0-.774.132,1.028,1.028,0,0,0-.5.363v-.792a9.177,9.177,0,0,1,.048-1.1.961.961,0,0,1,.188-.517.532.532,0,0,1,.417-.154c.258,0,.422.077.49.231a2.258,2.258,0,0,1,.1.825h1.9l-.012-.154A2.334,2.334,0,0,0,29.923-8.6,2.687,2.687,0,0,0,28-9.163a2.487,2.487,0,0,0-2.111.781A3.659,3.659,0,0,0,25.3-6.149v3.223a3.214,3.214,0,0,0,.665,2.134A2.523,2.523,0,0,0,28.011,0m.024-1.353q-.677,0-.677-1.144V-3.949a.792.792,0,0,1,.266-.242.737.737,0,0,1,.387-.11.519.519,0,0,1,.436.171.908.908,0,0,1,.169.45,6.957,6.957,0,0,1,.036.82,4.122,4.122,0,0,1-.114,1.166.479.479,0,0,1-.5.341" fill="#fff"/>
      </g>
    </g>
  </g>
</svg>
