<svg xmlns="http://www.w3.org/2000/svg" xmlns:xlink="http://www.w3.org/1999/xlink" width="38.268" height="38.27" viewBox="0 0 38.268 38.27">
  <defs>
    <clipPath id="clip-path">
      <path id="Caminho_3635" data-name="Caminho 3635" d="M0,0H38.268V-38.27H0Z" fill="none"/>
    </clipPath>
  </defs>
  <g id="ods_05" transform="translate(0 38.27)">
    <path id="Caminho_3630" data-name="Caminho 3630" d="M0,0H38.268V-38.27H0Z" fill="#d62527"/>
    <g id="Grupo_2116" data-name="Grupo 2116" clip-path="url(#clip-path)">
      <g id="Grupo_2112" data-name="Grupo 2112" transform="translate(27.037 -22.93)">
        <path id="Caminho_3631" data-name="Caminho 3631" d="M0,0H-5.02a.064.064,0,0,0-.064.064V1.732A.064.064,0,0,0-5.02,1.8h2l-2.22,2.22A6.542,6.542,0,0,0-9.3,2.612a6.584,6.584,0,0,0-6.576,6.576,6.585,6.585,0,0,0,5.727,6.519v1.922h-1.98a.064.064,0,0,0-.065.063v1.789a.064.064,0,0,0,.065.064h1.98v1.891a.064.064,0,0,0,.064.064h1.787a.065.065,0,0,0,.065-.064V19.545h1.98a.064.064,0,0,0,.064-.064V17.692a.064.064,0,0,0-.064-.063h-1.98V15.675A6.585,6.585,0,0,0-2.72,9.188a6.533,6.533,0,0,0-1.2-3.782l2.188-2.189V5.085a.064.064,0,0,0,.065.063H0a.064.064,0,0,0,.065-.063V.064A.064.064,0,0,0,0,0M-9.3,14.028a4.845,4.845,0,0,1-4.84-4.84A4.845,4.845,0,0,1-9.3,4.348a4.845,4.845,0,0,1,4.84,4.84,4.845,4.845,0,0,1-4.84,4.84" fill="#fff"/>
      </g>
      <g id="Grupo_2113" data-name="Grupo 2113" transform="translate(20.617 -15.729)">
        <path id="Caminho_3632" data-name="Caminho 3632" d="M0,0H-5.87c.045,0,.017.026.017.057V1.479a.06.06,0,0,0,.063.058H.081a.061.061,0,0,0,.065-.058V.057A.062.062,0,0,0,.081,0" fill="#fff"/>
      </g>
      <g id="Grupo_2114" data-name="Grupo 2114" transform="translate(20.698 -13.192)">
        <path id="Caminho_3633" data-name="Caminho 3633" d="M0,0H-5.87a.062.062,0,0,0-.064.059V1.48a.061.061,0,0,0,.064.058H0A.061.061,0,0,0,.065,1.48V.059A.062.062,0,0,0,0,0" fill="#fff"/>
      </g>
      <g id="Grupo_2115" data-name="Grupo 2115" transform="translate(7.742 -25.547)">
        <path id="Caminho_3634" data-name="Caminho 3634" d="M0,0A2.982,2.982,0,0,0,2.281-.743a3.138,3.138,0,0,0,.684-2.194V-6.248a3.1,3.1,0,0,0-.684-2.178A3,3,0,0,0,0-9.163a2.977,2.977,0,0,0-2.263.731A3.112,3.112,0,0,0-2.94-6.248v3.311A3.152,3.152,0,0,0-2.263-.743,2.943,2.943,0,0,0,0,0M0-1.4c-.307,0-.5-.093-.593-.281a1.8,1.8,0,0,1-.133-.764v-4.29A1.681,1.681,0,0,1-.581-7.5.592.592,0,0,1,0-7.777.621.621,0,0,1,.605-7.5a1.669,1.669,0,0,1,.145.77v4.29a1.673,1.673,0,0,1-.145.764A.615.615,0,0,1,0-1.4M4.283-.132H6.788a5.224,5.224,0,0,0,1.966-.3,1.86,1.86,0,0,0,1.005-.913,3.857,3.857,0,0,0,.3-1.65V-6.226a3.784,3.784,0,0,0-.3-1.633,1.822,1.822,0,0,0-1.011-.9,5.492,5.492,0,0,0-1.984-.286H4.283ZM6.449-1.5V-7.667h.327a1.666,1.666,0,0,1,.7.11.528.528,0,0,1,.29.336,2.455,2.455,0,0,1,.067.654v3.883a3.022,3.022,0,0,1-.061.7.567.567,0,0,1-.284.364,1.474,1.474,0,0,1-.7.126ZM13.975,0a2.914,2.914,0,0,0,1.344-.3,2.24,2.24,0,0,0,.9-.808,2.1,2.1,0,0,0,.321-1.139,2.7,2.7,0,0,0-.4-1.485,4.754,4.754,0,0,0-1.125-1.188L14.2-5.566a3.959,3.959,0,0,1-.72-.7,1.256,1.256,0,0,1-.223-.759.811.811,0,0,1,.151-.479.5.5,0,0,1,.429-.214.48.48,0,0,1,.5.3,3.453,3.453,0,0,1,.139,1l1.863-.209a3.322,3.322,0,0,0-.538-1.793,2.14,2.14,0,0,0-1.894-.737,3.074,3.074,0,0,0-2.015.605,2.113,2.113,0,0,0-.732,1.727,2.367,2.367,0,0,0,.345,1.293,4.1,4.1,0,0,0,.974,1.028l.847.671a3.891,3.891,0,0,1,.817.8,1.523,1.523,0,0,1,.26.891q0,.649-.544.649a.688.688,0,0,1-.636-.369,2.649,2.649,0,0,1-.224-1.215l-1.851.253a3.073,3.073,0,0,0,.732,2.151A2.86,2.86,0,0,0,13.975,0M23.05.033a2.953,2.953,0,0,0,1.682-.4,1.981,1.981,0,0,0,.787-1.1,6.371,6.371,0,0,0,.205-1.765A3.634,3.634,0,0,0,25.2-5.346a1.742,1.742,0,0,0-1.518-.748,3.072,3.072,0,0,0-.878.127,1.091,1.091,0,0,0-.562.3L22.349-7.5H25.3v-1.54H20.727L20.546-3.9h1.742q.157-.814.774-.814a.594.594,0,0,1,.6.39,3.184,3.184,0,0,1,.158,1.139q0,.715-.037,1.083a1.13,1.13,0,0,1-.187.572.556.556,0,0,1-.478.2.544.544,0,0,1-.551-.314,3,3,0,0,1-.139-1.094H20.485a4.675,4.675,0,0,0,.206,1.507,1.71,1.71,0,0,0,.762.929,3.115,3.115,0,0,0,1.6.336" fill="#fff"/>
      </g>
    </g>
  </g>
</svg>
