<svg xmlns="http://www.w3.org/2000/svg" xmlns:xlink="http://www.w3.org/1999/xlink" width="911" height="15" viewBox="0 0 911 15">
  <defs>
    <clipPath id="clip-path">
      <rect id="Retângulo_535" data-name="Retângulo 535" width="911" height="15" transform="translate(347 1574)" fill="#fff" stroke="#707070" stroke-width="1"/>
    </clipPath>
    <clipPath id="clip-path-2">
      <rect id="Retângulo_452" data-name="Retângulo 452" width="1190.55" height="99.205" fill="none"/>
    </clipPath>
    <clipPath id="clip-path-3">
      <rect id="Retângulo_451" data-name="Retângulo 451" width="1190.55" height="56.692" transform="translate(0 30.838)" fill="none"/>
    </clipPath>
    <clipPath id="clip-path-4">
      <rect id="Retângulo_450" data-name="Retângulo 450" width="128.42" height="99.205" transform="translate(972.81)" fill="none"/>
    </clipPath>
    <clipPath id="clip-path-5">
      <rect id="Retângulo_449" data-name="Retângulo 449" width="128.42" height="99.205" transform="translate(972.81 0)" fill="none"/>
    </clipPath>
  </defs>
  <g id="pv_o0sec2_b" transform="translate(-347 -1574)" clip-path="url(#clip-path)">
    <g id="Grupo_1637" data-name="Grupo 1637" transform="translate(75.51 1532)">
      <g id="Grupo_1636" data-name="Grupo 1636" clip-path="url(#clip-path-2)">
        <rect id="Retângulo_448" data-name="Retângulo 448" width="1190.55" height="56.692" transform="translate(0 30.838)" fill="#a99ccc"/>
        <g id="Grupo_1635" data-name="Grupo 1635">
          <g id="Grupo_1634" data-name="Grupo 1634" clip-path="url(#clip-path-3)">
            <g id="Grupo_1633" data-name="Grupo 1633" opacity="0.29" style="mix-blend-mode: lighten;isolation: isolate">
              <g id="Grupo_1632" data-name="Grupo 1632">
                <g id="Grupo_1631" data-name="Grupo 1631" clip-path="url(#clip-path-4)">
                  <g id="Grupo_1630" data-name="Grupo 1630">
                    <g id="Grupo_1629" data-name="Grupo 1629" clip-path="url(#clip-path-5)">
                      <path id="Caminho_3171" data-name="Caminho 3171" d="M1084.233,56.547q0-1.4-.107-2.793c-1.1-14.242-10.685-27.913-25.022-35.678a40.444,40.444,0,0,0-13.349-4.688c-6.4-.954-13.062.043-18.935.922-2.138.319-4.341.562-6.472.8-9.23,1.014-18.773,2.063-24.366,9.708-5.219,7.134-5.877,16.24-6.1,24.956-.136,5.129-.3,11.512,1.961,17.318,5.758,14.8,24.688,22.317,41.979,28.2,3.944,1.342,8.413,2.863,13.076,2.914,5.8.066,11.824-2.083,17.894-6.389,12.176-8.632,19.444-21.936,19.444-35.267m-92.241-6.739c.229-8.827.845-17.309,5.794-24.074,5.066-6.926,13.7-7.874,22.837-8.878,2.154-.237,4.383-.482,6.568-.809,5.979-.894,12.161-1.82,18.192-.921a38.065,38.065,0,0,1,12.57,4.432c13.788,7.467,23.009,20.614,24.063,34.31s-6.068,27.72-18.593,36.6c-5.67,4.021-11.222,6.029-16.5,5.969-4.264-.046-8.353-1.438-12.307-2.785-16.852-5.736-35.289-13.034-40.768-27.11-2.148-5.525-1.988-11.741-1.857-16.736" fill="#fff"/>
                      <path id="Caminho_3172" data-name="Caminho 3172" d="M1078.842,56.439q0-1.236-.1-2.473c-.971-12.616-9.465-24.726-22.165-31.6a35.827,35.827,0,0,0-11.825-4.153c-5.671-.845-11.57.038-16.773.816-1.893.283-3.845.5-5.732.706-8.176.9-16.63,1.827-21.584,8.6-4.623,6.319-5.206,14.386-5.406,22.107-.12,4.542-.265,10.2,1.737,15.34,5.1,13.108,21.869,19.768,37.186,24.98,3.493,1.189,7.452,2.536,11.583,2.582,5.14.058,10.473-1.846,15.85-5.659,10.786-7.647,17.224-19.432,17.224-31.241M997.134,50.47c.2-7.819.748-15.332,5.133-21.325,4.487-6.135,12.134-6.975,20.228-7.864,1.908-.21,3.883-.427,5.819-.716,5.3-.793,10.772-1.613,16.114-.817a33.71,33.71,0,0,1,11.134,3.927c12.215,6.614,20.382,18.26,21.316,30.391s-5.376,24.555-16.47,32.423c-5.023,3.562-9.941,5.341-14.615,5.287-3.777-.041-7.4-1.273-10.9-2.466-14.927-5.082-31.259-11.546-36.112-24.015-1.9-4.894-1.761-10.4-1.645-14.825" fill="#fff"/>
                      <path id="Caminho_3173" data-name="Caminho 3173" d="M1073.451,56.332q0-1.079-.083-2.155c-.845-10.99-8.245-21.538-19.308-27.53a31.189,31.189,0,0,0-10.3-3.617c-4.94-.736-10.079.033-14.611.711-1.649.246-3.349.434-4.993.615-7.122.782-14.486,1.591-18.8,7.49-4.027,5.505-4.535,12.531-4.71,19.257-.105,3.957-.231,8.882,1.513,13.363,4.444,11.417,19.05,17.22,32.392,21.76,3.043,1.035,6.492,2.209,10.09,2.248,4.478.051,9.123-1.607,13.807-4.929,9.4-6.661,15-16.927,15-27.213m-71.175-5.2c.176-6.811.652-13.356,4.471-18.575,3.909-5.345,10.57-6.076,17.621-6.852,1.662-.182,3.382-.372,5.068-.623,4.614-.69,9.384-1.405,14.037-.711a29.346,29.346,0,0,1,9.7,3.42c10.64,5.762,17.754,15.906,18.568,26.474s-4.683,21.389-14.347,28.242c-4.375,3.1-8.659,4.653-12.731,4.606-3.29-.036-6.445-1.109-9.5-2.149-13-4.426-27.23-10.057-31.457-20.918-1.658-4.263-1.534-9.06-1.433-12.914" fill="#fff"/>
                      <path id="Caminho_3174" data-name="Caminho 3174" d="M1068.059,56.223q0-.918-.07-1.836c-.72-9.363-7.025-18.35-16.45-23.455a26.579,26.579,0,0,0-8.776-3.082c-4.21-.627-8.588.028-12.449.606-1.4.21-2.853.37-4.254.523-6.068.667-12.342,1.357-16.019,6.382-3.431,4.691-3.864,10.677-4.012,16.407-.09,3.372-.2,7.568,1.289,11.386,3.786,9.727,16.231,14.671,27.6,18.539a27.92,27.92,0,0,0,8.6,1.916c3.816.043,7.774-1.37,11.764-4.2,8.005-5.675,12.783-14.422,12.783-23.186m-60.641-4.43c.15-5.8.556-11.379,3.809-15.826,3.331-4.554,9.006-5.177,15.013-5.838,1.417-.155,2.882-.316,4.319-.531,3.93-.588,7.994-1.2,11.959-.606a25.022,25.022,0,0,1,8.264,2.914c9.065,4.909,15.127,13.552,15.82,22.556s-3.99,18.224-12.224,24.063c-3.727,2.644-7.377,3.964-10.847,3.924a26.262,26.262,0,0,1-8.09-1.83c-11.079-3.771-23.2-8.569-26.8-17.823-1.413-3.633-1.307-7.719-1.221-11" fill="#fff"/>
                      <path id="Caminho_3175" data-name="Caminho 3175" d="M1062.668,56.116q0-.759-.058-1.517c-.595-7.737-5.8-15.163-13.593-19.382a22.011,22.011,0,0,0-7.251-2.547,35.263,35.263,0,0,0-10.287.5c-1.161.174-2.358.306-3.515.433-5.014.551-10.2,1.121-13.236,5.273-2.835,3.876-3.193,8.823-3.316,13.558-.074,2.785-.162,6.253,1.065,9.407,3.129,8.038,13.412,12.123,22.8,15.319a23.051,23.051,0,0,0,7.1,1.584,16.578,16.578,0,0,0,9.721-3.471c6.614-4.689,10.562-11.917,10.562-19.158m-50.108-3.661c.124-4.8.459-9.4,3.148-13.077,2.752-3.763,7.441-4.278,12.405-4.824,1.17-.128,2.381-.262,3.568-.439a33.654,33.654,0,0,1,9.883-.5,20.683,20.683,0,0,1,6.828,2.407c7.49,4.057,12.5,11.2,13.072,18.638s-3.3,15.059-10.1,19.884a15.345,15.345,0,0,1-8.963,3.242,21.721,21.721,0,0,1-6.685-1.512c-9.154-3.117-19.17-7.081-22.146-14.728-1.167-3-1.08-6.377-1.009-9.091" fill="#fff"/>
                      <path id="Caminho_3176" data-name="Caminho 3176" d="M1057.277,56.007q0-.6-.046-1.2c-.47-6.11-4.584-11.976-10.736-15.307a17.316,17.316,0,0,0-5.727-2.011,27.806,27.806,0,0,0-8.124.4c-.917.137-1.862.241-2.776.342-3.96.435-8.055.885-10.454,4.165-2.239,3.06-2.522,6.967-2.619,10.707a19.006,19.006,0,0,0,.842,7.43c2.47,6.348,10.592,9.574,18.01,12.1a18.223,18.223,0,0,0,5.61,1.25,13.1,13.1,0,0,0,7.678-2.741,18.958,18.958,0,0,0,8.342-15.131M1017.7,53.116c.1-3.787.362-7.426,2.486-10.328,2.174-2.972,5.877-3.379,9.8-3.81.924-.1,1.88-.206,2.818-.346a26.578,26.578,0,0,1,7.805-.4,16.334,16.334,0,0,1,5.393,1.9c5.915,3.2,9.871,8.844,10.324,14.72s-2.6,11.893-7.978,15.7a12.115,12.115,0,0,1-7.078,2.56,17.138,17.138,0,0,1-5.28-1.194c-7.23-2.461-15.141-5.592-17.491-11.632a18.525,18.525,0,0,1-.8-7.18" fill="#fff"/>
                      <path id="Caminho_3177" data-name="Caminho 3177" d="M1051.885,55.9q0-.44-.033-.88c-.345-4.484-3.364-8.788-7.878-11.233a12.761,12.761,0,0,0-4.2-1.476,20.425,20.425,0,0,0-5.962.291c-.673.1-1.367.177-2.037.25-2.907.32-5.911.65-7.672,3.057-1.643,2.246-1.85,5.113-1.921,7.857a13.937,13.937,0,0,0,.617,5.453c1.813,4.658,7.773,7.026,13.217,8.878a13.349,13.349,0,0,0,4.117.918A9.61,9.61,0,0,0,1045.764,67a13.912,13.912,0,0,0,6.121-11.1m-29.041-2.122c.072-2.779.266-5.449,1.824-7.579,1.595-2.181,4.313-2.479,7.19-2.8.678-.074,1.38-.152,2.068-.254a19.475,19.475,0,0,1,5.728-.29,11.957,11.957,0,0,1,3.957,1.4c4.341,2.351,7.245,6.49,7.576,10.8a13.2,13.2,0,0,1-5.853,11.524,8.906,8.906,0,0,1-5.195,1.88,12.59,12.59,0,0,1-3.875-.877c-5.306-1.806-11.11-4.1-12.835-8.536a13.588,13.588,0,0,1-.585-5.269" fill="#fff"/>
                      <path id="Caminho_3178" data-name="Caminho 3178" d="M1046.495,55.792c0-.187-.007-.373-.021-.56a9.261,9.261,0,0,0-5.021-7.159,8.13,8.13,0,0,0-2.679-.941,13.049,13.049,0,0,0-3.8.185c-.428.064-.87.113-1.3.16-1.854.2-3.767.414-4.89,1.948a8.642,8.642,0,0,0-1.224,5.007,8.9,8.9,0,0,0,.393,3.475c1.156,2.969,4.954,4.478,8.424,5.659a8.515,8.515,0,0,0,2.623.584,6.125,6.125,0,0,0,3.591-1.281,8.87,8.87,0,0,0,3.9-7.077m-18.508-1.352a8.254,8.254,0,0,1,1.163-4.83c1.016-1.39,2.747-1.58,4.582-1.782.431-.047.878-.1,1.318-.162a12.46,12.46,0,0,1,3.649-.185,7.663,7.663,0,0,1,2.523.889,8.9,8.9,0,0,1,4.828,6.885,8.417,8.417,0,0,1-3.731,7.344,5.656,5.656,0,0,1-3.31,1.2,8.039,8.039,0,0,1-2.471-.558c-3.381-1.151-7.08-2.616-8.179-5.44a8.651,8.651,0,0,1-.372-3.358" fill="#fff"/>
                    </g>
                  </g>
                </g>
              </g>
            </g>
          </g>
        </g>
      </g>
    </g>
  </g>
</svg>
