<svg xmlns="http://www.w3.org/2000/svg" xmlns:xlink="http://www.w3.org/1999/xlink" width="911" height="15" viewBox="0 0 911 15">
  <defs>
    <clipPath id="clip-path">
      <rect id="Ret창ngulo_531" data-name="Ret창ngulo 531" width="911" height="15" transform="translate(49 1681)" fill="#fff" stroke="#707070" stroke-width="1"/>
    </clipPath>
    <clipPath id="clip-path-2">
      <path id="Caminho_2819" data-name="Caminho 2819" d="M0,0H609.448V-56.693H0Z" fill="none"/>
    </clipPath>
    <clipPath id="clip-path-3">
      <rect id="Ret창ngulo_401" data-name="Ret창ngulo 401" width="128.425" height="99.205" transform="translate(391.723 -87.736)" fill="none"/>
    </clipPath>
    <clipPath id="clip-path-4">
      <path id="Caminho_2818" data-name="Caminho 2818" d="M391.723,11.469H520.146v-99.2H391.723Z" fill="none"/>
    </clipPath>
  </defs>
  <g id="pv_o0sec1_b" transform="translate(-49 -1681)" clip-path="url(#clip-path)">
    <g id="pv_o0sec1_b-2" data-name="pv_o0sec1_b" transform="translate(284.667 1737.386)">
      <path id="Caminho_2809" data-name="Caminho 2809" d="M0-28.346H910.219V-56.693H0Z" transform="translate(-234.885)" fill="#9dc1e4"/>
      <g id="Grupo_1442" data-name="Grupo 1442" clip-path="url(#clip-path-2)">
        <g id="Grupo_1441" data-name="Grupo 1441" opacity="0.29" style="mix-blend-mode: lighten;isolation: isolate">
          <g id="Grupo_1440" data-name="Grupo 1440">
            <g id="Grupo_1439" data-name="Grupo 1439" clip-path="url(#clip-path-3)">
              <g id="Grupo_1438" data-name="Grupo 1438" clip-path="url(#clip-path-4)">
                <g id="Grupo_1430" data-name="Grupo 1430" transform="translate(410.906 -37.928)">
                  <path id="Caminho_2810" data-name="Caminho 2810" d="M0,0C.229-8.827.845-17.309,5.794-24.074c5.066-6.926,13.7-7.874,22.838-8.878,2.154-.237,4.383-.482,6.568-.809,5.979-.894,12.162-1.82,18.193-.921a38.064,38.064,0,0,1,12.57,4.432C79.752-22.783,88.973-9.636,90.027,4.06s-6.068,27.72-18.594,36.6c-5.67,4.021-11.222,6.029-16.5,5.969-4.264-.046-8.353-1.438-12.308-2.785C25.774,38.11,7.336,30.812,1.857,16.736-.291,11.211-.131,4.995,0,0M92.244,6.739q0-1.4-.107-2.793C91.041-10.3,81.452-23.967,67.114-31.732A40.444,40.444,0,0,0,53.765-36.42c-6.4-.954-13.063.043-18.936.922-2.138.319-4.341.562-6.472.8-9.23,1.014-18.774,2.063-24.367,9.708C-1.229-17.86-1.887-8.754-2.113-.038c-.136,5.129-.3,11.512,1.961,17.318,5.758,14.8,24.689,22.317,41.98,28.2,3.945,1.342,8.414,2.863,13.077,2.914,5.8.066,11.824-2.083,17.894-6.389C84.976,33.374,92.244,20.07,92.244,6.739" fill="#fff"/>
                </g>
                <g id="Grupo_1431" data-name="Grupo 1431" transform="translate(416.048 -37.266)">
                  <path id="Caminho_2811" data-name="Caminho 2811" d="M0,0C.2-7.819.748-15.332,5.133-21.325,9.62-27.46,17.268-28.3,25.362-29.189c1.908-.21,3.883-.427,5.819-.716,5.3-.793,10.772-1.613,16.115-.817A33.71,33.71,0,0,1,58.43-26.8C70.645-20.181,78.813-8.535,79.747,3.6S74.371,28.151,63.276,36.019c-5.023,3.562-9.941,5.341-14.615,5.287-3.778-.041-7.4-1.273-10.9-2.466C22.831,33.758,6.5,27.294,1.645,14.825-.258,9.931-.116,4.425,0,0M81.711,5.969q0-1.236-.1-2.473C80.645-9.12,72.15-21.23,59.45-28.108a35.827,35.827,0,0,0-11.825-4.153c-5.672-.845-11.571.038-16.774.816-1.893.283-3.845.5-5.732.706-8.176.9-16.631,1.827-21.585,8.6C-1.089-15.821-1.672-7.754-1.872-.033c-.12,4.542-.265,10.2,1.737,15.34,5.1,13.108,21.87,19.768,37.187,24.98,3.493,1.189,7.452,2.536,11.584,2.582,5.14.058,10.473-1.846,15.85-5.659C75.273,29.563,81.711,17.778,81.711,5.969" fill="#fff"/>
                </g>
                <g id="Grupo_1432" data-name="Grupo 1432" transform="translate(421.191 -36.604)">
                  <path id="Caminho_2812" data-name="Caminho 2812" d="M0,0C.176-6.811.652-13.356,4.471-18.575c3.909-5.345,10.57-6.076,17.622-6.852,1.662-.182,3.382-.372,5.068-.623,4.614-.69,9.384-1.405,14.037-.711a29.343,29.343,0,0,1,9.7,3.42C61.538-17.579,68.652-7.435,69.466,3.133S64.783,24.522,55.119,31.375c-4.375,3.1-8.66,4.653-12.732,4.606-3.29-.036-6.445-1.109-9.5-2.149-13-4.426-27.231-10.057-31.458-20.918C-.225,8.651-.1,3.854,0,0M71.177,5.2q0-1.078-.083-2.155c-.845-10.99-8.245-21.538-19.308-27.53a31.193,31.193,0,0,0-10.3-3.617c-4.94-.736-10.079.033-14.611.711-1.649.246-3.349.434-4.993.615-7.123.782-14.487,1.591-18.8,7.49C-.948-13.781-1.456-6.755-1.631-.029c-.1,3.957-.231,8.882,1.513,13.363,4.444,11.417,19.051,17.22,32.393,21.76,3.043,1.035,6.492,2.209,10.09,2.248,4.479.051,9.124-1.607,13.808-4.929,9.4-6.661,15-16.927,15-27.213" fill="#fff"/>
                </g>
                <g id="Grupo_1433" data-name="Grupo 1433" transform="translate(426.333 -35.943)">
                  <path id="Caminho_2813" data-name="Caminho 2813" d="M0,0C.15-5.8.556-11.379,3.809-15.826,7.14-20.38,12.815-21,18.823-21.664c1.417-.155,2.882-.316,4.319-.531,3.93-.588,7.994-1.2,11.959-.606a25.023,25.023,0,0,1,8.264,2.914C52.431-14.978,58.493-6.335,59.186,2.669S55.2,20.893,46.962,26.732c-3.728,2.644-7.378,3.964-10.848,3.924a26.262,26.262,0,0,1-8.09-1.83C16.945,25.055,4.823,20.257,1.221,11-.192,7.37-.086,3.284,0,0M60.643,4.43q0-.918-.07-1.836c-.72-9.363-7.025-18.35-16.451-23.455a26.58,26.58,0,0,0-8.776-3.082c-4.21-.627-8.588.028-12.449.606-1.4.21-2.853.37-4.254.523-6.069.667-12.343,1.357-16.02,6.382C-.808-11.741-1.241-5.755-1.389-.025c-.09,3.372-.2,7.568,1.289,11.386C3.686,21.088,16.132,26.032,27.5,29.9a27.919,27.919,0,0,0,8.6,1.916c3.816.043,7.774-1.37,11.765-4.2C55.865,21.941,60.643,13.194,60.643,4.43" fill="#fff"/>
                </g>
                <g id="Grupo_1434" data-name="Grupo 1434" transform="translate(431.475 -35.281)">
                  <path id="Caminho_2814" data-name="Caminho 2814" d="M0,0C.124-4.8.459-9.4,3.148-13.077,5.9-16.84,10.589-17.355,15.553-17.9c1.171-.128,2.382-.262,3.569-.439A33.655,33.655,0,0,1,29-18.84a20.684,20.684,0,0,1,6.828,2.407c7.49,4.057,12.5,11.2,13.073,18.638s-3.3,15.059-10.1,19.884a15.345,15.345,0,0,1-8.963,3.242,21.721,21.721,0,0,1-6.685-1.512C14,20.7,3.985,16.738,1.009,9.091-.158,6.09-.071,2.714,0,0M50.11,3.661q0-.759-.058-1.517c-.595-7.737-5.8-15.163-13.594-19.382a22.012,22.012,0,0,0-7.251-2.547,35.272,35.272,0,0,0-10.288.5c-1.16.174-2.357.306-3.515.433-5.014.551-10.2,1.121-13.236,5.273C-.667-9.7-1.025-4.755-1.148-.02-1.222,2.765-1.31,6.233-.083,9.387,3.046,17.425,13.329,21.51,22.723,24.706a23.051,23.051,0,0,0,7.1,1.584,16.578,16.578,0,0,0,9.721-3.471C46.162,18.13,50.11,10.9,50.11,3.661" fill="#fff"/>
                </g>
                <g id="Grupo_1435" data-name="Grupo 1435" transform="translate(436.617 -34.619)">
                  <path id="Caminho_2815" data-name="Caminho 2815" d="M0,0C.1-3.787.362-7.426,2.486-10.328c2.174-2.972,5.877-3.379,9.8-3.81.924-.1,1.88-.206,2.819-.346a26.576,26.576,0,0,1,7.805-.4,16.334,16.334,0,0,1,5.393,1.9c5.915,3.2,9.871,8.844,10.324,14.72s-2.6,11.893-7.978,15.7a12.115,12.115,0,0,1-7.078,2.56,17.15,17.15,0,0,1-5.281-1.194C11.058,16.351,3.147,13.22.8,7.18A18.526,18.526,0,0,1,0,0M39.576,2.891q0-.6-.046-1.2c-.47-6.11-4.584-11.976-10.736-15.307a17.316,17.316,0,0,0-5.727-2.011,27.806,27.806,0,0,0-8.124.4c-.918.137-1.863.241-2.777.342-3.96.435-8.055.885-10.454,4.165C-.527-7.663-.81-3.756-.907-.016a19.006,19.006,0,0,0,.842,7.43c2.47,6.348,10.592,9.574,18.01,12.1a18.236,18.236,0,0,0,5.611,1.25,13.1,13.1,0,0,0,7.678-2.741A18.958,18.958,0,0,0,39.576,2.891" fill="#fff"/>
                </g>
                <g id="Grupo_1436" data-name="Grupo 1436" transform="translate(441.76 -33.958)">
                  <path id="Caminho_2816" data-name="Caminho 2816" d="M0,0C.072-2.779.266-5.449,1.824-7.579c1.595-2.181,4.313-2.479,7.19-2.8.678-.074,1.38-.152,2.068-.254a19.48,19.48,0,0,1,5.729-.29,11.958,11.958,0,0,1,3.957,1.395c4.341,2.351,7.245,6.49,7.576,10.8A13.2,13.2,0,0,1,22.491,12.8a8.906,8.906,0,0,1-5.195,1.88,12.59,12.59,0,0,1-3.876-.877C8.114,12,2.31,9.7.585,5.269A13.588,13.588,0,0,1,0,0M29.042,2.122q0-.439-.033-.88c-.345-4.484-3.364-8.788-7.878-11.233a12.761,12.761,0,0,0-4.2-1.476,20.43,20.43,0,0,0-5.963.291c-.673.1-1.367.177-2.037.25-2.907.32-5.911.65-7.672,3.057C-.387-5.623-.594-2.756-.665-.012A13.938,13.938,0,0,0-.048,5.441c1.813,4.658,7.773,7.026,13.217,8.878a13.348,13.348,0,0,0,4.118.918,9.61,9.61,0,0,0,5.634-2.012,13.912,13.912,0,0,0,6.121-11.1" fill="#fff"/>
                </g>
                <g id="Grupo_1437" data-name="Grupo 1437" transform="translate(446.902 -33.296)">
                  <path id="Caminho_2817" data-name="Caminho 2817" d="M0,0A8.262,8.262,0,0,1,1.163-4.83C2.179-6.22,3.911-6.41,5.745-6.612c.432-.047.879-.1,1.318-.162a12.466,12.466,0,0,1,3.65-.185,7.657,7.657,0,0,1,2.522.889A8.9,8.9,0,0,1,18.064.815a8.417,8.417,0,0,1-3.731,7.344,5.661,5.661,0,0,1-3.311,1.2A8.025,8.025,0,0,1,8.552,8.8C5.171,7.647,1.472,6.182.373,3.358A8.653,8.653,0,0,1,0,0M18.509,1.352c0-.187-.007-.373-.021-.56a9.258,9.258,0,0,0-5.022-7.159,8.122,8.122,0,0,0-2.679-.941,13.04,13.04,0,0,0-3.8.185c-.429.064-.871.113-1.3.16-1.853.2-3.767.414-4.889,1.948A8.634,8.634,0,0,0-.424-.008,8.9,8.9,0,0,0-.031,3.467C1.125,6.436,4.923,7.945,8.393,9.126a8.515,8.515,0,0,0,2.623.584,6.121,6.121,0,0,0,3.591-1.281,8.866,8.866,0,0,0,3.9-7.077" fill="#fff"/>
                </g>
              </g>
            </g>
          </g>
        </g>
      </g>
    </g>
  </g>
</svg>
