<svg xmlns="http://www.w3.org/2000/svg" width="38.845" height="39.428" viewBox="0 0 38.845 39.428">
  <g id="pv_o0sec1box" transform="translate(-1246.086 -193.617)">
    <g id="Grupo_1410" data-name="Grupo 1410" transform="translate(1273.867 196.513)">
      <path id="Caminho_2793" data-name="Caminho 2793" d="M0,0C-.62.289-1.234.594-1.864.86A4.589,4.589,0,0,1-2.9,1.168.9.9,0,0,1-3.885.635.92.92,0,0,1-3.492-.422a2.664,2.664,0,0,1,.428-.221c1.4-.624,2.792-1.25,4.193-1.862a4.08,4.08,0,0,1,.916-.289.83.83,0,0,1,.892.477.83.83,0,0,1-.239.99,3.4,3.4,0,0,1-.713.44C1.334-.569.673-.271.016.035.011.023,0,.012,0,0" fill="#5c9ad2"/>
    </g>
    <g id="Grupo_1411" data-name="Grupo 1411" transform="translate(1269.229 214.532)">
      <path id="Caminho_2794" data-name="Caminho 2794" d="M0,0C-.475.221-.949.444-1.425.663A5.2,5.2,0,0,1-1.981.9c-.56.179-.952.065-1.162-.323A.879.879,0,0,1-2.809-.594,4.266,4.266,0,0,1-2-1.115C-.914-1.648.18-2.164,1.274-2.68a2.261,2.261,0,0,1,.567-.193.856.856,0,0,1,.9.464.814.814,0,0,1-.136.912A2.334,2.334,0,0,1,1.932-1C1.285-.678.621-.385-.036-.079L0,0" fill="#5c9ad2"/>
    </g>
    <g id="Grupo_1412" data-name="Grupo 1412" transform="translate(1258.878 210.151)">
      <path id="Caminho_2795" data-name="Caminho 2795" d="M0,0C.614-.286,1.153-.552,1.705-.787a2.933,2.933,0,0,1,.8-.222.755.755,0,0,1,.781.454.769.769,0,0,1-.1.9A1.888,1.888,0,0,1,2.63.79c-.9.435-1.807.863-2.728,1.253a4.71,4.71,0,0,1-1.159.289,1.5,1.5,0,0,1-.7-.08A.772.772,0,0,1-2.139.893,3.506,3.506,0,0,1-1.386.532C-.9.338-.416.159,0,0" fill="#5c9ad2"/>
    </g>
    <g id="Grupo_1413" data-name="Grupo 1413" transform="translate(1282.38 196.225)">
      <path id="Caminho_2796" data-name="Caminho 2796" d="M0,0C-.619.288-1.234.586-1.859.861a1.872,1.872,0,0,1-.928.217A.8.8,0,0,1-3.535.56.747.747,0,0,1-3.38-.233a1.988,1.988,0,0,1,.562-.441q1.905-.908,3.827-1.777A1.917,1.917,0,0,1,1.7-2.607a.784.784,0,0,1,.807.6.776.776,0,0,1-.256.874,3.125,3.125,0,0,1-.613.377C1.1-.494.55-.246,0,.008L0,0" fill="#5c9ad2"/>
    </g>
    <g id="Grupo_1414" data-name="Grupo 1414" transform="translate(1280.97 213.672)">
      <path id="Caminho_2797" data-name="Caminho 2797" d="M0,0C.581-.27,1.159-.548,1.744-.808a2.427,2.427,0,0,1,.68-.216A.758.758,0,0,1,3.218-.6a.822.822,0,0,1-.131,1,2.409,2.409,0,0,1-.6.389C1.4,1.309.31,1.81-.78,2.313a2.267,2.267,0,0,1-.918.254.832.832,0,0,1-.871-.507.822.822,0,0,1,.3-.962A4.475,4.475,0,0,1-1.54.677C-1.036.43-.525.2-.016-.036L0,0" fill="#5c9ad2"/>
    </g>
    <g id="Grupo_1415" data-name="Grupo 1415" transform="translate(1281.318 222.837)">
      <path id="Caminho_2798" data-name="Caminho 2798" d="M0,0C-.473.22-.944.447-1.421.659a5.007,5.007,0,0,1-.786.3A.8.8,0,0,1-3.134.57a.826.826,0,0,1,.178-1A3.131,3.131,0,0,1-2.187-1c1.046-.514,2.1-1,3.165-1.483a1.951,1.951,0,0,1,.693-.163.8.8,0,0,1,.781.47.869.869,0,0,1-.219,1A2.959,2.959,0,0,1,1.624-.8C1.083-.531.533-.284-.013-.03-.009-.02,0-.01,0,0" fill="#5c9ad2"/>
    </g>
    <g id="Grupo_1416" data-name="Grupo 1416" transform="translate(1259.211 224.89)">
      <path id="Caminho_2799" data-name="Caminho 2799" d="M0,0C-.4.187-.8.372-1.2.56c-.182.086-.355.195-.542.265A.9.9,0,0,1-2.915.515a.914.914,0,0,1,.243-1.1,3.528,3.528,0,0,1,.778-.566C-1.036-1.593-.162-2,.707-2.423a1.622,1.622,0,0,1,.813-.188.8.8,0,0,1,.74.526.755.755,0,0,1-.172.892,3.1,3.1,0,0,1-.694.47C.929-.484.449-.276-.025-.056-.017-.037-.008-.019,0,0" fill="#5c9ad2"/>
    </g>
    <g id="Grupo_1417" data-name="Grupo 1417" transform="translate(1248.425 208.472)">
      <path id="Caminho_2800" data-name="Caminho 2800" d="M0,0C.472-.22.932-.47,1.418-.652c.7-.262,1.262-.076,1.432.422.158.463-.059.9-.713,1.229C1.207,1.465.255,1.887-.7,2.306a2.847,2.847,0,0,1-.809.2.751.751,0,0,1-.763-.476.761.761,0,0,1,.1-.8A1.986,1.986,0,0,1-1.423.642C-.953.419-.48.2-.008-.018L0,0" fill="#5c9ad2"/>
    </g>
    <g id="Grupo_1418" data-name="Grupo 1418" transform="translate(1278.717 205.039)">
      <path id="Caminho_2801" data-name="Caminho 2801" d="M0,0C.511-.238,1.021-.48,1.535-.712a2.809,2.809,0,0,1,.566-.2.878.878,0,0,1,.928.42A.9.9,0,0,1,2.78.6a2.642,2.642,0,0,1-.52.3C1.349,1.334.433,1.753-.479,2.18a2.245,2.245,0,0,1-1.284.246.808.808,0,0,1-.717-.567A.8.8,0,0,1-2.1.922,7.089,7.089,0,0,1-1.335.565L-.021-.047,0,0" fill="#5c9ad2"/>
    </g>
    <g id="Grupo_1419" data-name="Grupo 1419" transform="translate(1268.672 204.419)">
      <path id="Caminho_2802" data-name="Caminho 2802" d="M0,0Q-.709.33-1.419.66A2.253,2.253,0,0,1-2.468.882.886.886,0,0,1-3.4.119a.928.928,0,0,1,.629-.932.759.759,0,0,1,.113-.04,21.141,21.141,0,0,0,3-1.235,3.75,3.75,0,0,1,.676-.245.936.936,0,0,1,1.029.449.9.9,0,0,1-.4,1.145C1.121-.447.56-.222.015.032L0,0" fill="#5c9ad2"/>
    </g>
    <g id="Grupo_1420" data-name="Grupo 1420" transform="translate(1261.044 203.446)">
      <path id="Caminho_2803" data-name="Caminho 2803" d="M0,0C-.544.253-1.077.535-1.635.752c-.6.236-1.059.11-1.275-.28A.935.935,0,0,1-2.459-.764,14.062,14.062,0,0,1,.956-2.216a1.092,1.092,0,0,1,.473-.012A.846.846,0,0,1,1.934-.9a1.456,1.456,0,0,1-.679.474C.846-.266.437-.1.029.063L0,0" fill="#5c9ad2"/>
    </g>
    <g id="Grupo_1421" data-name="Grupo 1421" transform="translate(1253.88 199.749)">
      <path id="Caminho_2804" data-name="Caminho 2804" d="M0,0C-.582.271-1.157.559-1.748.808A.773.773,0,0,1-2.806.548.9.9,0,0,1-2.677-.57a2.816,2.816,0,0,1,.78-.549C-1.024-1.526-.138-1.9.749-2.278a1.89,1.89,0,0,1,.578-.141.884.884,0,0,1,.883.5A.868.868,0,0,1,1.853-.862,11.84,11.84,0,0,1,.769-.345L0,.01S0,0,0,0" fill="#5c9ad2"/>
    </g>
    <g id="Grupo_1422" data-name="Grupo 1422" transform="translate(1268.499 231.991)">
      <path id="Caminho_2805" data-name="Caminho 2805" d="M0,0C-.39.21-.776.43-1.174.625a3.182,3.182,0,0,1-.677.244.724.724,0,0,1-.836-.33.783.783,0,0,1,.1-1A4.386,4.386,0,0,1-1.631-1.2C-.852-1.623-.044-1.991.752-2.38a1.391,1.391,0,0,1,.225-.086.854.854,0,0,1,1.041.376.877.877,0,0,1-.224,1.1,4.643,4.643,0,0,1-.722.435C.719-.365.359-.183,0,0A.008.008,0,0,0,0,0" fill="#5c9ad2"/>
    </g>
    <g id="Grupo_1423" data-name="Grupo 1423" transform="translate(1269.747 223.257)">
      <path id="Caminho_2806" data-name="Caminho 2806" d="M0,0A6.8,6.8,0,0,1-.764.348a.812.812,0,0,1-.95-.32A.859.859,0,0,1-1.6-.982a1.912,1.912,0,0,1,.445-.4C-.4-1.844.355-2.3,1.111-2.75a2.486,2.486,0,0,1,.318-.169A.9.9,0,0,1,2.6-2.65a.9.9,0,0,1-.262,1.189A13.587,13.587,0,0,1,0,0" fill="#5c9ad2"/>
    </g>
    <g id="Grupo_1424" data-name="Grupo 1424" transform="translate(1277.309 232.988)">
      <path id="Caminho_2807" data-name="Caminho 2807" d="M0,0C1.287-.49,2.561-1.013,3.856-1.48c.967-.348.348-1.834-.619-1.486C1.942-2.5.668-1.976-.618-1.486-1.579-1.12-.961.366,0,0" fill="#5c9ad2"/>
    </g>
  </g>
</svg>
