<svg xmlns="http://www.w3.org/2000/svg" xmlns:xlink="http://www.w3.org/1999/xlink" width="30.112" height="51.914" viewBox="0 0 30.112 51.914">
  <defs>
    <clipPath id="clip-path">
      <path id="Caminho_13069" data-name="Caminho 13069" d="M0,0H30.112V-51.914H0Z" fill="none"/>
    </clipPath>
    <clipPath id="clip-path-2">
      <rect id="Retângulo_820" data-name="Retângulo 820" width="58.347" height="48.685" transform="translate(-28.973 -53.3)" fill="none"/>
    </clipPath>
    <clipPath id="clip-path-3">
      <path id="Caminho_13058" data-name="Caminho 13058" d="M-28.973-4.615H29.374V-53.3H-28.973Z" fill="none"/>
    </clipPath>
    <clipPath id="clip-path-4">
      <rect id="Retângulo_821" data-name="Retângulo 821" width="50.953" height="41.23" transform="translate(-25.276 -49.572)" fill="none"/>
    </clipPath>
    <clipPath id="clip-path-5">
      <path id="Caminho_13060" data-name="Caminho 13060" d="M-25.276-8.343H25.677V-49.572H-25.276Z" fill="none"/>
    </clipPath>
    <clipPath id="clip-path-6">
      <rect id="Retângulo_822" data-name="Retângulo 822" width="43.679" height="33.895" transform="translate(-21.639 -45.905)" fill="none"/>
    </clipPath>
    <clipPath id="clip-path-7">
      <path id="Caminho_13062" data-name="Caminho 13062" d="M-21.639-12.01H22.04V-45.9H-21.639Z" fill="none"/>
    </clipPath>
    <clipPath id="clip-path-8">
      <rect id="Retângulo_823" data-name="Retângulo 823" width="36.405" height="26.56" transform="translate(-18.002 -42.237)" fill="none"/>
    </clipPath>
    <clipPath id="clip-path-9">
      <path id="Caminho_13064" data-name="Caminho 13064" d="M-18-15.678H18.4V-42.237H-18Z" fill="none"/>
    </clipPath>
    <clipPath id="clip-path-10">
      <rect id="Retângulo_824" data-name="Retângulo 824" width="28.851" height="18.942" transform="translate(-14.225 -38.428)" fill="none"/>
    </clipPath>
    <clipPath id="clip-path-11">
      <path id="Caminho_13066" data-name="Caminho 13066" d="M-14.225-19.486H14.626V-38.427H-14.225Z" fill="none"/>
    </clipPath>
    <clipPath id="clip-path-12">
      <rect id="Retângulo_825" data-name="Retângulo 825" width="21.577" height="11.607" transform="translate(-10.588 -34.761)" fill="none"/>
    </clipPath>
    <clipPath id="clip-path-13">
      <path id="Caminho_13068" data-name="Caminho 13068" d="M-10.588-23.153H10.989V-34.76H-10.588Z" fill="none"/>
    </clipPath>
  </defs>
  <g id="pv_p0tit2mptextura1" transform="translate(0 51.914)" clip-path="url(#clip-path)">
    <g id="Grupo_12948" data-name="Grupo 12948" transform="translate(0.201)">
      <path id="Caminho_13056" data-name="Caminho 13056" d="M0,0C14.017,0,25.38-11.621,25.38-25.957S14.017-51.914,0-51.914-25.38-40.293-25.38-25.957-14.017,0,0,0" fill="#2a9b9a"/>
    </g>
    <g id="Grupo_12953" data-name="Grupo 12953" opacity="0.6">
      <g id="Grupo_12952" data-name="Grupo 12952">
        <g id="Grupo_12951" data-name="Grupo 12951" clip-path="url(#clip-path-2)">
          <g id="Grupo_12950" data-name="Grupo 12950" clip-path="url(#clip-path-3)">
            <g id="Grupo_12949" data-name="Grupo 12949" transform="translate(0.201 -6.194)">
              <path id="Caminho_13057" data-name="Caminho 13057" d="M0,0A19.7,19.7,0,0,0,19.594-19.763,19.7,19.7,0,0,0,0-39.526,19.7,19.7,0,0,0-19.594-19.763,19.7,19.7,0,0,0,0,0Z" fill="none" stroke="#82d8d4" stroke-width="1.159"/>
            </g>
          </g>
        </g>
      </g>
    </g>
    <g id="Grupo_12958" data-name="Grupo 12958" opacity="0.6">
      <g id="Grupo_12957" data-name="Grupo 12957">
        <g id="Grupo_12956" data-name="Grupo 12956" clip-path="url(#clip-path-4)">
          <g id="Grupo_12955" data-name="Grupo 12955" clip-path="url(#clip-path-5)">
            <g id="Grupo_12954" data-name="Grupo 12954" transform="translate(0.201 -9.922)">
              <path id="Caminho_13059" data-name="Caminho 13059" d="M0,0A15.984,15.984,0,0,0,15.9-16.035,15.985,15.985,0,0,0,0-32.071,15.985,15.985,0,0,0-15.9-16.035,15.984,15.984,0,0,0,0,0Z" fill="none" stroke="#82d8d4" stroke-width="1.159"/>
            </g>
          </g>
        </g>
      </g>
    </g>
    <g id="Grupo_12963" data-name="Grupo 12963" opacity="0.6">
      <g id="Grupo_12962" data-name="Grupo 12962">
        <g id="Grupo_12961" data-name="Grupo 12961" clip-path="url(#clip-path-6)">
          <g id="Grupo_12960" data-name="Grupo 12960" clip-path="url(#clip-path-7)">
            <g id="Grupo_12959" data-name="Grupo 12959" transform="translate(0.201 -13.59)">
              <path id="Caminho_13061" data-name="Caminho 13061" d="M0,0A12.328,12.328,0,0,0,12.26-12.368,12.328,12.328,0,0,0,0-24.735,12.328,12.328,0,0,0-12.26-12.368,12.328,12.328,0,0,0,0,0Z" fill="none" stroke="#82d8d4" stroke-width="1.159"/>
            </g>
          </g>
        </g>
      </g>
    </g>
    <g id="Grupo_12968" data-name="Grupo 12968" opacity="0.6">
      <g id="Grupo_12967" data-name="Grupo 12967">
        <g id="Grupo_12966" data-name="Grupo 12966" clip-path="url(#clip-path-8)">
          <g id="Grupo_12965" data-name="Grupo 12965" clip-path="url(#clip-path-9)">
            <g id="Grupo_12964" data-name="Grupo 12964" transform="translate(0.201 -17.257)">
              <path id="Caminho_13063" data-name="Caminho 13063" d="M0,0A8.672,8.672,0,0,0,8.623-8.7,8.671,8.671,0,0,0,0-17.4,8.671,8.671,0,0,0-8.623-8.7,8.672,8.672,0,0,0,0,0Z" fill="none" stroke="#82d8d4" stroke-width="1.159"/>
            </g>
          </g>
        </g>
      </g>
    </g>
    <g id="Grupo_12973" data-name="Grupo 12973" opacity="0.6">
      <g id="Grupo_12972" data-name="Grupo 12972">
        <g id="Grupo_12971" data-name="Grupo 12971" clip-path="url(#clip-path-10)">
          <g id="Grupo_12970" data-name="Grupo 12970" clip-path="url(#clip-path-11)">
            <g id="Grupo_12969" data-name="Grupo 12969" transform="translate(0.201 -21.066)">
              <path id="Caminho_13065" data-name="Caminho 13065" d="M0,0A4.874,4.874,0,0,0,4.846-4.892,4.874,4.874,0,0,0,0-9.783,4.874,4.874,0,0,0-4.846-4.892,4.874,4.874,0,0,0,0,0Z" fill="none" stroke="#82d8d4" stroke-width="1.159"/>
            </g>
          </g>
        </g>
      </g>
    </g>
    <g id="Grupo_12978" data-name="Grupo 12978" opacity="0.6">
      <g id="Grupo_12977" data-name="Grupo 12977">
        <g id="Grupo_12976" data-name="Grupo 12976" clip-path="url(#clip-path-12)">
          <g id="Grupo_12975" data-name="Grupo 12975" clip-path="url(#clip-path-13)">
            <g id="Grupo_12974" data-name="Grupo 12974" transform="translate(0.201 -24.733)">
              <path id="Caminho_13067" data-name="Caminho 13067" d="M0,0A1.218,1.218,0,0,0,1.209-1.224,1.218,1.218,0,0,0,0-2.448,1.218,1.218,0,0,0-1.209-1.224,1.218,1.218,0,0,0,0,0Z" fill="none" stroke="#82d8d4" stroke-width="1.159"/>
            </g>
          </g>
        </g>
      </g>
    </g>
  </g>
</svg>
