<svg xmlns="http://www.w3.org/2000/svg" xmlns:xlink="http://www.w3.org/1999/xlink" width="364" height="24" viewBox="0 0 364 24">
  <defs>
    <clipPath id="clip-path">
      <rect id="Ret창ngulo_483" data-name="Ret창ngulo 483" width="364" height="24" transform="translate(60 1224)" fill="#fff"/>
    </clipPath>
    <clipPath id="clip-path-2">
      <path id="Caminho_2295" data-name="Caminho 2295" d="M182.316,32.745V45.951H369.4a13.2,13.2,0,0,0-11.425-13.072v-.134Z" fill="none"/>
    </clipPath>
    <clipPath id="clip-path-3">
      <rect id="Ret창ngulo_329" data-name="Ret창ngulo 329" width="214.527" height="99.205" transform="translate(5.349)" fill="none"/>
    </clipPath>
    <clipPath id="clip-path-4">
      <path id="Caminho_2304" data-name="Caminho 2304" d="M91.452,45.951H199.541l3.752-16.96L91.452,25.825Z" fill="none"/>
    </clipPath>
  </defs>
  <g id="pv_parasabermais" transform="translate(-60 -1224)" clip-path="url(#clip-path)">
    <g id="Grupo_2193" data-name="Grupo 2193">
      <path id="Caminho_2292" data-name="Caminho 2292" d="M357.976,32.879v-.134H182.316V45.95H369.4a13.2,13.2,0,0,0-11.426-13.071" transform="translate(55 1202)" fill="#fbde00"/>
      <g id="Grupo_1166" data-name="Grupo 1166" transform="translate(55 1202)">
        <g id="Grupo_1165" data-name="Grupo 1165" clip-path="url(#clip-path-2)">
          <path id="Caminho_2293" data-name="Caminho 2293" d="M195.639,79.382a70.623,70.623,0,0,0,15.683,6.245,51.785,51.785,0,0,0,20.426.987,36.37,36.37,0,0,0,18.325-8.034c5.571-4.851,8.82-11.35,11.963-17.635,3.946-7.89,7.672-15.342,15.587-19.829,11.3-6.4,25.722-2.983,33.316-.375,3.151,1.082,6.3,2.342,9.336,3.561,7.17,2.873,14.585,5.845,22.679,6.721a33.712,33.712,0,0,0,10.055-.353,19.967,19.967,0,0,0,8.955-4.008,11.262,11.262,0,0,0,4.168-9.154,7.283,7.283,0,0,0-3.809-6.141l-.384.491a6.772,6.772,0,0,1,3.528,5.722,10.667,10.667,0,0,1-3.945,8.681c-4.208,3.477-10.929,5-18.439,4.192-8-.865-15.367-3.819-22.494-6.676-3.049-1.222-6.2-2.485-9.368-3.572a57.851,57.851,0,0,0-17.105-3.322,31.906,31.906,0,0,0-16.829,3.76c-8.1,4.591-12.044,12.479-15.858,20.107-3.116,6.231-6.338,12.675-11.811,17.44-8.956,7.8-23.9,10.5-38.067,6.885-12.889-3.288-23.812-10.885-33.45-17.588l-.438.457a178.2,178.2,0,0,0,17.976,11.438" fill="#e03965"/>
          <path id="Caminho_2294" data-name="Caminho 2294" d="M255.515,62.959a30.423,30.423,0,0,0,17.407,3.293c10.74-1.177,20.854-8.233,24.594-17.158a49.893,49.893,0,0,0,1.855-5.669c1.245-4.388,2.42-8.533,6.052-11.515,3.477-2.855,8.943-4.072,14.623-3.254,4.517.649,8.7,2.385,12.743,4.064q.752.312,1.5.622c4.336,1.781,9.416,3.683,14.854,3.721A20.666,20.666,0,0,0,357.1,35.53a13.3,13.3,0,0,0,6.05-4.7,7.868,7.868,0,0,0,.644-7.523,6.8,6.8,0,0,0-4.881-3.947l-.2.559a6.226,6.226,0,0,1,4.461,3.628,7.345,7.345,0,0,1-.591,7.024c-2.421,3.635-7.673,5.958-13.38,5.918-5.306-.037-10.312-1.914-14.587-3.669l-1.5-.621c-4.083-1.7-8.3-3.448-12.91-4.111-5.889-.847-11.577.431-15.216,3.419-3.788,3.11-5.044,7.538-6.258,11.82a49.4,49.4,0,0,1-1.834,5.606c-3.65,8.712-13.522,15.6-24.007,16.75S251.779,62.192,247.053,54.4l-.593.294a23.207,23.207,0,0,0,9.055,8.267" fill="#e03965"/>
        </g>
      </g>
      <path id="Caminho_2296" data-name="Caminho 2296" d="M5.349,45.95H199.54l3.752-16.959L5.349,23.387Z" transform="translate(55 1202)" fill="#e03965"/>
      <g id="Grupo_1171" data-name="Grupo 1171" transform="translate(55 1202)" opacity="0.29" style="mix-blend-mode: lighten;isolation: isolate">
        <g id="Grupo_1170" data-name="Grupo 1170">
          <g id="Grupo_1169" data-name="Grupo 1169" clip-path="url(#clip-path-3)">
            <g id="Grupo_1168" data-name="Grupo 1168">
              <g id="Grupo_1167" data-name="Grupo 1167" clip-path="url(#clip-path-4)">
                <path id="Caminho_2297" data-name="Caminho 2297" d="M202.875,56.547q0-1.4-.107-2.793c-1.1-14.242-10.685-27.913-25.022-35.678A40.444,40.444,0,0,0,164.4,13.388c-6.4-.954-13.062.043-18.935.922-2.138.319-4.341.562-6.472.8-9.23,1.014-18.773,2.063-24.366,9.708-5.219,7.134-5.877,16.24-6.1,24.956-.136,5.129-.3,11.512,1.961,17.318,5.758,14.8,24.688,22.317,41.979,28.2,3.944,1.342,8.413,2.863,13.076,2.914,5.8.066,11.824-2.083,17.894-6.389,12.176-8.632,19.444-21.936,19.444-35.267m-92.241-6.739c.229-8.827.845-17.309,5.794-24.074,5.066-6.926,13.7-7.874,22.837-8.878,2.154-.237,4.383-.482,6.568-.809,5.979-.894,12.161-1.82,18.192-.921a38.065,38.065,0,0,1,12.57,4.432c13.788,7.467,23.009,20.614,24.063,34.31s-6.068,27.72-18.593,36.6c-5.67,4.021-11.222,6.029-16.5,5.969-4.264-.046-8.353-1.438-12.307-2.785-16.852-5.736-35.289-13.034-40.768-27.11-2.148-5.525-1.988-11.741-1.857-16.736" fill="#fff"/>
                <path id="Caminho_2298" data-name="Caminho 2298" d="M197.484,56.439q0-1.236-.095-2.473c-.971-12.616-9.465-24.726-22.165-31.6A35.827,35.827,0,0,0,163.4,18.209c-5.671-.845-11.57.038-16.773.816-1.893.283-3.845.5-5.732.706-8.176.9-16.63,1.827-21.584,8.6-4.623,6.319-5.206,14.386-5.406,22.107-.12,4.542-.265,10.2,1.737,15.34,5.1,13.108,21.869,19.768,37.186,24.98,3.493,1.189,7.452,2.536,11.583,2.582,5.14.058,10.473-1.846,15.85-5.659,10.786-7.647,17.224-19.432,17.224-31.241M115.776,50.47c.2-7.819.748-15.332,5.133-21.325,4.487-6.135,12.134-6.975,20.228-7.864,1.908-.21,3.883-.427,5.819-.716,5.3-.793,10.772-1.613,16.114-.817A33.71,33.71,0,0,1,174.2,23.675c12.215,6.614,20.382,18.26,21.316,30.391s-5.376,24.555-16.47,32.423c-5.023,3.562-9.941,5.341-14.615,5.287-3.777-.041-7.4-1.273-10.9-2.466-14.927-5.082-31.259-11.546-36.112-24.015-1.9-4.894-1.761-10.4-1.645-14.825" fill="#fff"/>
                <path id="Caminho_2299" data-name="Caminho 2299" d="M192.093,56.332q0-1.079-.083-2.155c-.845-10.99-8.245-21.538-19.308-27.53a31.188,31.188,0,0,0-10.3-3.617c-4.94-.736-10.079.033-14.611.711-1.649.246-3.349.434-4.993.615-7.122.782-14.486,1.591-18.8,7.49-4.027,5.505-4.535,12.531-4.71,19.257-.105,3.957-.231,8.882,1.513,13.363,4.444,11.417,19.05,17.22,32.393,21.76,3.042,1.035,6.491,2.209,10.089,2.248,4.478.051,9.123-1.607,13.807-4.929,9.4-6.661,15-16.927,15-27.213m-71.175-5.2c.176-6.811.652-13.356,4.471-18.575,3.909-5.345,10.57-6.076,17.621-6.852,1.662-.182,3.382-.372,5.068-.623,4.614-.69,9.384-1.405,14.037-.711a29.346,29.346,0,0,1,9.7,3.42c10.64,5.762,17.754,15.906,18.568,26.474S185.7,75.654,176.035,82.507c-4.375,3.1-8.659,4.653-12.731,4.606-3.29-.036-6.445-1.109-9.5-2.149-13-4.426-27.23-10.057-31.457-20.918-1.658-4.263-1.534-9.06-1.433-12.914" fill="#fff"/>
                <path id="Caminho_2300" data-name="Caminho 2300" d="M186.7,56.223q0-.918-.07-1.836c-.72-9.363-7.025-18.35-16.45-23.455A26.58,26.58,0,0,0,161.4,27.85c-4.21-.627-8.588.028-12.449.606-1.4.21-2.853.37-4.254.523-6.068.667-12.342,1.357-16.019,6.382-3.431,4.691-3.864,10.677-4.012,16.407-.09,3.372-.2,7.568,1.289,11.386,3.786,9.727,16.231,14.671,27.6,18.539a27.92,27.92,0,0,0,8.6,1.916c3.816.043,7.774-1.37,11.764-4.2,8.005-5.675,12.783-14.422,12.783-23.186m-60.641-4.43c.15-5.8.556-11.379,3.809-15.826,3.331-4.554,9.006-5.177,15.013-5.838,1.417-.155,2.882-.316,4.319-.531,3.93-.588,7.994-1.2,11.96-.606a25.025,25.025,0,0,1,8.263,2.914c9.065,4.909,15.127,13.552,15.82,22.556s-3.99,18.224-12.224,24.063c-3.727,2.644-7.377,3.964-10.847,3.924a26.262,26.262,0,0,1-8.09-1.83c-11.079-3.771-23.2-8.569-26.8-17.823-1.413-3.633-1.307-7.719-1.221-11" fill="#fff"/>
                <path id="Caminho_2301" data-name="Caminho 2301" d="M181.31,56.116q0-.759-.058-1.517c-.6-7.737-5.8-15.163-13.593-19.382a22.012,22.012,0,0,0-7.251-2.547,35.263,35.263,0,0,0-10.287.5c-1.161.174-2.358.306-3.515.433-5.014.551-10.2,1.121-13.236,5.273-2.835,3.876-3.193,8.823-3.316,13.558-.074,2.785-.162,6.253,1.065,9.407,3.129,8.038,13.412,12.123,22.8,15.319a23.051,23.051,0,0,0,7.1,1.584,16.578,16.578,0,0,0,9.721-3.471c6.614-4.689,10.562-11.917,10.562-19.158M131.2,52.455c.124-4.8.459-9.4,3.148-13.077,2.752-3.763,7.441-4.278,12.4-4.824,1.17-.128,2.381-.262,3.568-.439a33.655,33.655,0,0,1,9.883-.5,20.684,20.684,0,0,1,6.828,2.407c7.49,4.057,12.5,11.2,13.072,18.638s-3.3,15.059-10.1,19.884a15.345,15.345,0,0,1-8.963,3.242,21.721,21.721,0,0,1-6.685-1.512c-9.154-3.117-19.17-7.081-22.146-14.728-1.167-3-1.08-6.377-1.009-9.091" fill="#fff"/>
                <path id="Caminho_2302" data-name="Caminho 2302" d="M175.919,56.007q0-.6-.046-1.2c-.47-6.11-4.584-11.976-10.736-15.307a17.316,17.316,0,0,0-5.727-2.011,27.806,27.806,0,0,0-8.124.4c-.917.137-1.862.241-2.776.342-3.96.435-8.055.885-10.454,4.165-2.239,3.06-2.522,6.967-2.619,10.707a19.006,19.006,0,0,0,.842,7.43c2.47,6.348,10.592,9.574,18.01,12.1a18.223,18.223,0,0,0,5.61,1.25,13.1,13.1,0,0,0,7.678-2.741,18.958,18.958,0,0,0,8.342-15.131m-39.575-2.891c.1-3.787.362-7.426,2.486-10.328,2.174-2.972,5.877-3.379,9.8-3.81.924-.1,1.88-.206,2.818-.346a26.578,26.578,0,0,1,7.805-.4,16.334,16.334,0,0,1,5.393,1.9c5.915,3.2,9.871,8.844,10.324,14.72s-2.6,11.893-7.977,15.7a12.12,12.12,0,0,1-7.079,2.56,17.137,17.137,0,0,1-5.28-1.194c-7.23-2.461-15.141-5.592-17.491-11.632a18.525,18.525,0,0,1-.8-7.18" fill="#fff"/>
                <path id="Caminho_2303" data-name="Caminho 2303" d="M170.527,55.9q0-.44-.033-.88c-.345-4.484-3.364-8.788-7.878-11.233a12.769,12.769,0,0,0-4.2-1.476,20.424,20.424,0,0,0-5.962.291c-.673.1-1.367.177-2.037.25-2.907.32-5.911.65-7.672,3.057-1.643,2.246-1.85,5.113-1.921,7.857a13.938,13.938,0,0,0,.617,5.453c1.813,4.658,7.773,7.026,13.217,8.878a13.348,13.348,0,0,0,4.117.918A9.61,9.61,0,0,0,164.406,67a13.912,13.912,0,0,0,6.121-11.1m-29.041-2.122c.072-2.779.266-5.449,1.824-7.579,1.6-2.181,4.313-2.479,7.19-2.8.678-.074,1.38-.152,2.068-.254a19.476,19.476,0,0,1,5.728-.29,11.958,11.958,0,0,1,3.957,1.4c4.341,2.351,7.245,6.49,7.576,10.8a13.2,13.2,0,0,1-5.853,11.524,8.906,8.906,0,0,1-5.195,1.88,12.59,12.59,0,0,1-3.875-.877c-5.306-1.806-11.11-4.1-12.835-8.536a13.589,13.589,0,0,1-.585-5.269" fill="#fff"/>
              </g>
            </g>
          </g>
        </g>
      </g>
    </g>
  </g>
</svg>
