<svg xmlns="http://www.w3.org/2000/svg" xmlns:xlink="http://www.w3.org/1999/xlink" width="609.449" height="62.266" viewBox="0 0 609.449 62.266">
  <defs>
    <clipPath id="clip-path">
      <path id="Caminho_3215" data-name="Caminho 3215" d="M0,0H609.449V-62.266H0Z" fill="none"/>
    </clipPath>
  </defs>
  <g id="pv_referenciasa" transform="translate(0 62.266)">
    <g id="Grupo_1696" data-name="Grupo 1696" clip-path="url(#clip-path)">
      <g id="Grupo_1695" data-name="Grupo 1695" transform="translate(609.449 -5.574)">
        <path id="Caminho_3214" data-name="Caminho 3214" d="M0,0V-56.693H-609.449V0h52.925a12.243,12.243,0,0,1-.2-2.147,12.158,12.158,0,0,1,12.159-12.158h237.411A12.158,12.158,0,0,1-295-2.147,12.15,12.15,0,0,1-295.2,0Z" fill="#21807a"/>
      </g>
    </g>
    <g id="Grupo_1704" data-name="Grupo 1704" clip-path="url(#clip-path)">
      <g id="Grupo_1697" data-name="Grupo 1697" transform="translate(59.473)">
        <path id="Caminho_3216" data-name="Caminho 3216" d="M0,0A11.414,11.414,0,0,0,11.284-11.54,11.415,11.415,0,0,0,0-23.081,11.415,11.415,0,0,0-11.284-11.54,11.414,11.414,0,0,0,0,0" fill="#85cec8"/>
      </g>
      <g id="Grupo_1698" data-name="Grupo 1698" transform="translate(59.473 -2.754)">
        <path id="Caminho_3217" data-name="Caminho 3217" d="M0,0A8.759,8.759,0,0,0,8.711-8.786,8.759,8.759,0,0,0,0-17.573,8.759,8.759,0,0,0-8.711-8.786,8.759,8.759,0,0,0,0,0Z" fill="none" stroke="#003538" stroke-width="0.515"/>
      </g>
      <g id="Grupo_1699" data-name="Grupo 1699" transform="translate(59.473 -4.411)">
        <path id="Caminho_3218" data-name="Caminho 3218" d="M0,0A7.107,7.107,0,0,0,7.068-7.129,7.108,7.108,0,0,0,0-14.259a7.108,7.108,0,0,0-7.068,7.13A7.107,7.107,0,0,0,0,0Z" fill="none" stroke="#003538" stroke-width="0.515"/>
      </g>
      <g id="Grupo_1700" data-name="Grupo 1700" transform="translate(59.473 -6.042)">
        <path id="Caminho_3219" data-name="Caminho 3219" d="M0,0A5.481,5.481,0,0,0,5.451-5.5,5.48,5.48,0,0,0,0-11,5.48,5.48,0,0,0-5.451-5.5,5.481,5.481,0,0,0,0,0Z" fill="none" stroke="#003538" stroke-width="0.515"/>
      </g>
      <g id="Grupo_1701" data-name="Grupo 1701" transform="translate(59.473 -7.672)">
        <path id="Caminho_3220" data-name="Caminho 3220" d="M0,0A3.855,3.855,0,0,0,3.834-3.868,3.855,3.855,0,0,0,0-7.736,3.855,3.855,0,0,0-3.834-3.868,3.855,3.855,0,0,0,0,0Z" fill="none" stroke="#003538" stroke-width="0.515"/>
      </g>
      <g id="Grupo_1702" data-name="Grupo 1702" transform="translate(59.473 -9.366)">
        <path id="Caminho_3221" data-name="Caminho 3221" d="M0,0A2.168,2.168,0,0,0,2.155-2.175,2.168,2.168,0,0,0,0-4.35,2.168,2.168,0,0,0-2.155-2.175,2.168,2.168,0,0,0,0,0Z" fill="none" stroke="#003538" stroke-width="0.515"/>
      </g>
      <g id="Grupo_1703" data-name="Grupo 1703" transform="translate(59.473 -10.996)">
        <path id="Caminho_3222" data-name="Caminho 3222" d="M0,0A.542.542,0,0,0,.538-.544.543.543,0,0,0,0-1.089a.543.543,0,0,0-.538.545A.542.542,0,0,0,0,0Z" fill="none" stroke="#003538" stroke-width="0.515"/>
      </g>
    </g>
  </g>
</svg>
