<svg id="pv_sec1tit3" xmlns="http://www.w3.org/2000/svg" xmlns:xlink="http://www.w3.org/1999/xlink" width="11.827" height="13.48" viewBox="0 0 11.827 13.48">
  <defs>
    <clipPath id="clip-path">
      <rect id="Retângulo_465" data-name="Retângulo 465" width="11.827" height="13.48" transform="translate(0 0)" fill="none"/>
    </clipPath>
  </defs>
  <g id="Grupo_1657" data-name="Grupo 1657" clip-path="url(#clip-path)">
    <path id="Caminho_3201" data-name="Caminho 3201" d="M6.59,0A6.666,6.666,0,0,0,0,6.74a6.666,6.666,0,0,0,6.59,6.74" fill="#f6e200"/>
    <path id="Caminho_3202" data-name="Caminho 3202" d="M6.59,11.811A5.072,5.072,0,1,0,1.563,6.74,5.055,5.055,0,0,0,6.59,11.811Z" fill="none" stroke="#0e1519" stroke-width="0.421"/>
    <path id="Caminho_3203" data-name="Caminho 3203" d="M6.59,10.843a4.1,4.1,0,1,0-4.068-4.1A4.091,4.091,0,0,0,6.59,10.843Z" fill="none" stroke="#0e1519" stroke-width="0.421"/>
    <ellipse id="Elipse_17" data-name="Elipse 17" cx="3.123" cy="3.151" rx="3.123" ry="3.151" transform="translate(3.467 3.589)" fill="none" stroke="#0e1519" stroke-width="0.421"/>
    <ellipse id="Elipse_18" data-name="Elipse 18" cx="2.179" cy="2.199" rx="2.179" ry="2.199" transform="translate(4.411 4.541)" fill="none" stroke="#0e1519" stroke-width="0.421"/>
    <ellipse id="Elipse_19" data-name="Elipse 19" cx="1.198" cy="1.21" rx="1.198" ry="1.21" transform="translate(5.392 5.53)" fill="none" stroke="#0e1519" stroke-width="0.421"/>
    <path id="Caminho_3204" data-name="Caminho 3204" d="M6.59,7a.258.258,0,1,0-.254-.258A.257.257,0,0,0,6.59,7Z" fill="none" stroke="#1a1818" stroke-width="0.421"/>
  </g>
</svg>
