<svg xmlns="http://www.w3.org/2000/svg" xmlns:xlink="http://www.w3.org/1999/xlink" width="106.672" height="96.257" viewBox="0 0 106.672 96.257">
  <defs>
    <clipPath id="clip-path">
      <path id="Caminho_4215" data-name="Caminho 4215" d="M0,0H106.672V-96.257H0Z" fill="none"/>
    </clipPath>
  </defs>
  <g id="pv_textura" transform="translate(0 96.257)">
    <g id="Grupo_2419" data-name="Grupo 2419" clip-path="url(#clip-path)">
      <g id="Grupo_2411" data-name="Grupo 2411" transform="translate(2.465 -54.675)">
        <path id="Caminho_4207" data-name="Caminho 4207" d="M0,0C.258-9.971.955-19.554,6.546-27.2c5.723-7.825,15.476-8.9,25.8-10.031,2.433-.267,4.951-.545,7.42-.913C46.52-39.15,53.5-40.2,60.317-39.181a42.982,42.982,0,0,1,14.2,5.007C90.094-25.738,100.511-10.886,101.7,4.587S94.846,35.9,80.7,45.937c-6.406,4.542-12.678,6.811-18.64,6.743-4.816-.053-9.436-1.624-13.9-3.146C29.116,43.054,8.287,34.809,2.1,18.907-.329,12.665-.148,5.643,0,0M104.207,7.613q0-1.578-.122-3.155c-1.237-16.09-12.07-31.534-28.267-40.306a45.711,45.711,0,0,0-15.081-5.3C53.5-42.222,45.98-41.1,39.345-40.1c-2.415.361-4.9.635-7.311.9-10.427,1.145-21.208,2.33-27.527,10.966C-1.388-20.177-2.132-9.889-2.388-.042c-.153,5.793-.338,13,2.216,19.564C6.333,36.239,27.719,44.733,47.253,51.381c4.455,1.516,9.5,3.234,14.772,3.292,6.556.074,13.358-2.354,20.215-7.218C96,37.7,104.207,22.673,104.207,7.613" fill="#9be0dc"/>
      </g>
      <g id="Grupo_2412" data-name="Grupo 2412" transform="translate(8.274 -53.927)">
        <path id="Caminho_4208" data-name="Caminho 4208" d="M0,0C.229-8.833.846-17.321,5.8-24.091c5.07-6.931,13.709-7.88,22.853-8.885,2.156-.237,4.386-.482,6.573-.809,5.984-.9,12.17-1.822,18.205-.922a38.076,38.076,0,0,1,12.579,4.436C79.806-22.8,89.034-9.643,90.089,4.063S84.015,31.8,71.482,40.691c-5.674,4.024-11.23,6.034-16.511,5.973-4.267-.046-8.359-1.438-12.316-2.786-16.864-5.741-35.314-13.044-40.8-27.13C-.292,11.219-.131,5,0,0M92.307,6.744q0-1.4-.107-2.8C91.1-10.3,81.507-23.984,67.16-31.754A40.483,40.483,0,0,0,53.8-36.446c-6.407-.954-13.071.043-18.949.922-2.139.32-4.344.563-6.476.8-9.237,1.014-18.787,2.064-24.383,9.714C-1.23-17.873-1.889-8.76-2.115-.038c-.136,5.132-.3,11.52,1.963,17.331C5.61,32.1,24.554,39.625,41.857,45.513c3.947,1.344,8.418,2.865,13.085,2.917,5.808.066,11.832-2.085,17.907-6.394C85.034,33.4,92.307,20.084,92.307,6.744" fill="#9be0dc"/>
      </g>
      <g id="Grupo_2413" data-name="Grupo 2413" transform="translate(14.083 -53.18)">
        <path id="Caminho_4209" data-name="Caminho 4209" d="M0,0C.2-7.694.737-15.088,5.051-20.985c4.416-6.038,11.941-6.864,19.907-7.74,1.877-.206,3.82-.42,5.725-.7,5.212-.78,10.6-1.588,15.859-.8A33.17,33.17,0,0,1,57.5-26.369C69.518-19.86,77.556-8.4,78.475,3.539S73.185,27.7,62.267,35.445c-4.943,3.505-9.783,5.256-14.383,5.2-3.716-.041-7.281-1.254-10.728-2.428-14.69-5-30.761-11.362-35.537-23.632C-.254,9.773-.114,4.354,0,0M80.407,5.874q0-1.216-.093-2.434C79.359-8.975,71-20.892,58.5-27.661a35.254,35.254,0,0,0-11.637-4.087c-5.581-.831-11.386.038-16.506.8-1.863.278-3.783.49-5.641.694-8.046.884-16.365,1.8-21.24,8.462C-1.071-15.569-1.645-7.631-1.842-.033-1.961,4.438-2.1,10-.133,15.063c5.02,12.9,21.521,19.454,36.594,24.583,3.438,1.17,7.333,2.5,11.4,2.54,5.059.058,10.307-1.816,15.6-5.569C74.072,29.093,80.407,17.5,80.407,5.874" fill="#9be0dc"/>
      </g>
      <g id="Grupo_2414" data-name="Grupo 2414" transform="translate(19.892 -52.432)">
        <path id="Caminho_4210" data-name="Caminho 4210" d="M0,0C.17-6.555.628-12.855,4.3-17.879c3.763-5.145,10.175-5.849,16.961-6.6,1.6-.175,3.255-.358,4.878-.6,4.441-.664,9.032-1.352,13.512-.685a28.244,28.244,0,0,1,9.335,3.293C59.23-16.92,66.078-7.156,66.861,3.015S62.354,23.6,53.052,30.2c-4.211,2.986-8.335,4.478-12.254,4.433a29.7,29.7,0,0,1-9.14-2.068c-12.516-4.26-26.21-9.68-30.279-20.135C-.216,8.327-.1,3.71,0,0M68.508,5.005q0-1.036-.08-2.074c-.814-10.578-7.936-20.731-18.584-26.5a30.028,30.028,0,0,0-9.914-3.482c-4.756-.708-9.7.032-14.064.684-1.587.238-3.223.418-4.806.592-6.855.753-13.943,1.532-18.1,7.21C-.913-13.265-1.4-6.5-1.57-.028c-.1,3.809-.222,8.55,1.457,12.862,4.277,10.99,18.336,16.575,31.178,20.945a31.539,31.539,0,0,0,9.712,2.164c4.31.049,8.781-1.547,13.29-4.745C63.11,24.787,68.508,14.906,68.508,5.005" fill="#9be0dc"/>
      </g>
      <g id="Grupo_2415" data-name="Grupo 2415" transform="translate(25.701 -51.685)">
        <path id="Caminho_4211" data-name="Caminho 4211" d="M0,0C.14-5.417.519-10.622,3.556-14.774c3.109-4.251,8.407-4.832,14.015-5.449,1.322-.145,2.689-.3,4.031-.5,3.669-.549,7.463-1.117,11.164-.565a23.323,23.323,0,0,1,7.714,2.72C48.942-13.982,54.6-5.913,55.248,2.492S51.523,19.5,43.837,24.954c-3.48,2.468-6.887,3.7-10.126,3.663a24.5,24.5,0,0,1-7.552-1.709c-10.342-3.52-21.657-8-25.019-16.637C-.179,6.88-.08,3.066,0,0M56.608,4.135q0-.857-.066-1.713c-.672-8.741-6.557-17.13-15.356-21.9a24.822,24.822,0,0,0-8.192-2.877c-3.929-.585-8.016.027-11.621.566-1.311.2-2.663.345-3.971.489-5.665.622-11.521,1.266-14.953,5.957C-.754-10.961-1.158-5.372-1.3-.023-1.38,3.124-1.48,7.041-.093,10.6,3.441,19.686,15.058,24.3,25.669,27.911A26.08,26.08,0,0,0,33.694,29.7c3.561.04,7.256-1.279,10.982-3.921,7.472-5.3,11.932-13.462,11.932-21.644" fill="#9be0dc"/>
      </g>
      <g id="Grupo_2416" data-name="Grupo 2416" transform="translate(31.511 -50.937)">
        <path id="Caminho_4212" data-name="Caminho 4212" d="M0,0C.111-4.278.409-8.389,2.808-11.668c2.456-3.357,6.64-3.817,11.069-4.3,1.044-.114,2.124-.233,3.184-.391a30.02,30.02,0,0,1,8.817-.447,18.459,18.459,0,0,1,6.093,2.148c6.683,3.62,11.152,9.992,11.663,16.63S40.692,15.4,34.622,19.709a13.7,13.7,0,0,1-8,2.893,19.381,19.381,0,0,1-5.965-1.35C12.492,18.472,3.556,14.935.9,8.112-.141,5.434-.063,2.421,0,0M44.708,3.266q0-.676-.052-1.353c-.531-6.9-5.178-13.529-12.128-17.293a19.6,19.6,0,0,0-6.47-2.272,31.444,31.444,0,0,0-9.177.446c-1.037.155-2.1.273-3.137.387-4.474.491-9.1,1-11.81,4.7C-.6-8.657-.915-4.243-1.024-.018c-.066,2.486-.145,5.579.95,8.394,2.791,7.172,11.966,10.816,20.347,13.668a20.585,20.585,0,0,0,6.338,1.413,14.784,14.784,0,0,0,8.673-3.1c5.9-4.184,9.424-10.632,9.424-17.094" fill="#9be0dc"/>
      </g>
      <g id="Grupo_2417" data-name="Grupo 2417" transform="translate(37.32 -50.19)">
        <path id="Caminho_4213" data-name="Caminho 4213" d="M0,0C.081-3.139.3-6.156,2.061-8.563c1.8-2.463,4.872-2.8,8.122-3.158.767-.084,1.559-.171,2.337-.287a22.042,22.042,0,0,1,6.47-.328,13.526,13.526,0,0,1,4.471,1.577c4.9,2.656,8.184,7.332,8.559,12.2S29.862,11.3,25.407,14.463a10.054,10.054,0,0,1-5.869,2.123,14.2,14.2,0,0,1-4.377-.991C9.167,13.555,2.609,10.959.66,5.953A15.375,15.375,0,0,1,0,0M32.809,2.4q0-.5-.038-.993c-.39-5.066-3.8-9.929-8.9-12.69a14.388,14.388,0,0,0-4.749-1.668,23.068,23.068,0,0,0-6.735.328c-.76.113-1.543.2-2.3.283-3.283.361-6.678.734-8.667,3.453C-.437-6.353-.671-3.114-.752-.013a15.757,15.757,0,0,0,.7,6.159c2.048,5.263,8.781,7.938,14.931,10.031a15.112,15.112,0,0,0,4.651,1.036,10.85,10.85,0,0,0,6.365-2.272A15.718,15.718,0,0,0,32.809,2.4" fill="#9be0dc"/>
      </g>
      <g id="Grupo_2418" data-name="Grupo 2418" transform="translate(43.129 -49.442)">
        <path id="Caminho_4214" data-name="Caminho 4214" d="M0,0C.052-2,.191-3.923,1.313-5.457,2.462-7.027,4.419-7.242,6.49-7.47c.488-.053.994-.109,1.489-.183A14.107,14.107,0,0,1,12.1-7.862a8.657,8.657,0,0,1,2.849,1.005A10.06,10.06,0,0,1,20.406.92a9.506,9.506,0,0,1-4.214,8.3,6.4,6.4,0,0,1-3.74,1.353,9.053,9.053,0,0,1-2.79-.631c-3.82-1.3-8-2.955-9.241-6.145A9.787,9.787,0,0,1,0,0M20.909,1.527q0-.315-.024-.633a10.461,10.461,0,0,0-5.672-8.087,9.178,9.178,0,0,0-3.026-1.063,14.717,14.717,0,0,0-4.292.209c-.485.073-.984.128-1.467.181C4.335-7.636,2.172-7.4.9-5.666-.279-4.048-.428-1.984-.479-.009A10.043,10.043,0,0,0-.035,3.917c1.306,3.354,5.6,5.059,9.516,6.392a9.618,9.618,0,0,0,2.964.661A6.917,6.917,0,0,0,16.5,9.522a10.018,10.018,0,0,0,4.407-8" fill="#9be0dc"/>
      </g>
    </g>
  </g>
</svg>
